<?xml version="1.0" encoding="utf-8"?>
<svg xmlns="http://www.w3.org/2000/svg" xmlns:xlink="http://www.w3.org/1999/xlink" width="600" height="400" viewBox="0 0 2400 1600">
<defs>
  <clipPath id="clip430">
    <rect x="0" y="0" width="2400" height="1600"/>
  </clipPath>
</defs>
<path clip-path="url(#clip430)" d="M0 1600 L2400 1600 L2400 0 L0 0  Z" fill="#ffffff" fill-rule="evenodd" fill-opacity="1"/>
<defs>
  <clipPath id="clip431">
    <rect x="480" y="0" width="1681" height="1600"/>
  </clipPath>
</defs>
<path clip-path="url(#clip430)" d="M242.135 1423.18 L1793.91 1423.18 L1793.91 123.472 L242.135 123.472  Z" fill="#ffffff" fill-rule="evenodd" fill-opacity="1"/>
<defs>
  <clipPath id="clip432">
    <rect x="242" y="123" width="1553" height="1301"/>
  </clipPath>
</defs>
<polyline clip-path="url(#clip432)" style="stroke:#000000; stroke-linecap:round; stroke-linejoin:round; stroke-width:2; stroke-opacity:0.1; fill:none" points="304.18,1423.18 304.18,123.472 "/>
<polyline clip-path="url(#clip432)" style="stroke:#000000; stroke-linecap:round; stroke-linejoin:round; stroke-width:2; stroke-opacity:0.1; fill:none" points="658.703,1423.18 658.703,123.472 "/>
<polyline clip-path="url(#clip432)" style="stroke:#000000; stroke-linecap:round; stroke-linejoin:round; stroke-width:2; stroke-opacity:0.1; fill:none" points="1013.23,1423.18 1013.23,123.472 "/>
<polyline clip-path="url(#clip432)" style="stroke:#000000; stroke-linecap:round; stroke-linejoin:round; stroke-width:2; stroke-opacity:0.1; fill:none" points="1367.75,1423.18 1367.75,123.472 "/>
<polyline clip-path="url(#clip432)" style="stroke:#000000; stroke-linecap:round; stroke-linejoin:round; stroke-width:2; stroke-opacity:0.1; fill:none" points="1722.27,1423.18 1722.27,123.472 "/>
<polyline clip-path="url(#clip430)" style="stroke:#000000; stroke-linecap:round; stroke-linejoin:round; stroke-width:4; stroke-opacity:1; fill:none" points="242.135,1423.18 1793.91,1423.18 "/>
<polyline clip-path="url(#clip430)" style="stroke:#000000; stroke-linecap:round; stroke-linejoin:round; stroke-width:4; stroke-opacity:1; fill:none" points="304.18,1423.18 304.18,1404.28 "/>
<polyline clip-path="url(#clip430)" style="stroke:#000000; stroke-linecap:round; stroke-linejoin:round; stroke-width:4; stroke-opacity:1; fill:none" points="658.703,1423.18 658.703,1404.28 "/>
<polyline clip-path="url(#clip430)" style="stroke:#000000; stroke-linecap:round; stroke-linejoin:round; stroke-width:4; stroke-opacity:1; fill:none" points="1013.23,1423.18 1013.23,1404.28 "/>
<polyline clip-path="url(#clip430)" style="stroke:#000000; stroke-linecap:round; stroke-linejoin:round; stroke-width:4; stroke-opacity:1; fill:none" points="1367.75,1423.18 1367.75,1404.28 "/>
<polyline clip-path="url(#clip430)" style="stroke:#000000; stroke-linecap:round; stroke-linejoin:round; stroke-width:4; stroke-opacity:1; fill:none" points="1722.27,1423.18 1722.27,1404.28 "/>
<path clip-path="url(#clip430)" d="M273.648 1468.75 L303.324 1468.75 L303.324 1472.69 L273.648 1472.69 L273.648 1468.75 Z" fill="#000000" fill-rule="nonzero" fill-opacity="1" /><path clip-path="url(#clip430)" d="M327.583 1466.95 Q330.939 1467.66 332.814 1469.93 Q334.712 1472.2 334.712 1475.53 Q334.712 1480.65 331.194 1483.45 Q327.675 1486.25 321.194 1486.25 Q319.018 1486.25 316.703 1485.81 Q314.412 1485.39 311.958 1484.54 L311.958 1480.02 Q313.902 1481.16 316.217 1481.74 Q318.532 1482.32 321.055 1482.32 Q325.453 1482.32 327.745 1480.58 Q330.06 1478.84 330.06 1475.53 Q330.06 1472.48 327.907 1470.77 Q325.777 1469.03 321.958 1469.03 L317.93 1469.03 L317.93 1465.19 L322.143 1465.19 Q325.592 1465.19 327.421 1463.82 Q329.249 1462.43 329.249 1459.84 Q329.249 1457.18 327.351 1455.77 Q325.476 1454.33 321.958 1454.33 Q320.037 1454.33 317.837 1454.75 Q315.638 1455.16 313 1456.04 L313 1451.88 Q315.662 1451.14 317.976 1450.77 Q320.314 1450.39 322.375 1450.39 Q327.699 1450.39 330.8 1452.83 Q333.902 1455.23 333.902 1459.35 Q333.902 1462.22 332.259 1464.21 Q330.615 1466.18 327.583 1466.95 Z" fill="#000000" fill-rule="nonzero" fill-opacity="1" /><path clip-path="url(#clip430)" d="M628.645 1468.75 L658.321 1468.75 L658.321 1472.69 L628.645 1472.69 L628.645 1468.75 Z" fill="#000000" fill-rule="nonzero" fill-opacity="1" /><path clip-path="url(#clip430)" d="M672.441 1481.64 L688.76 1481.64 L688.76 1485.58 L666.816 1485.58 L666.816 1481.64 Q669.478 1478.89 674.061 1474.26 Q678.668 1469.61 679.848 1468.27 Q682.094 1465.74 682.973 1464.01 Q683.876 1462.25 683.876 1460.56 Q683.876 1457.8 681.932 1456.07 Q680.011 1454.33 676.909 1454.33 Q674.71 1454.33 672.256 1455.09 Q669.825 1455.86 667.048 1457.41 L667.048 1452.69 Q669.872 1451.55 672.325 1450.97 Q674.779 1450.39 676.816 1450.39 Q682.186 1450.39 685.381 1453.08 Q688.575 1455.77 688.575 1460.26 Q688.575 1462.39 687.765 1464.31 Q686.978 1466.2 684.872 1468.8 Q684.293 1469.47 681.191 1472.69 Q678.089 1475.88 672.441 1481.64 Z" fill="#000000" fill-rule="nonzero" fill-opacity="1" /><path clip-path="url(#clip430)" d="M982.982 1468.75 L1012.66 1468.75 L1012.66 1472.69 L982.982 1472.69 L982.982 1468.75 Z" fill="#000000" fill-rule="nonzero" fill-opacity="1" /><path clip-path="url(#clip430)" d="M1023.56 1481.64 L1031.2 1481.64 L1031.2 1455.28 L1022.89 1456.95 L1022.89 1452.69 L1031.15 1451.02 L1035.83 1451.02 L1035.83 1481.64 L1043.47 1481.64 L1043.47 1485.58 L1023.56 1485.58 L1023.56 1481.64 Z" fill="#000000" fill-rule="nonzero" fill-opacity="1" /><path clip-path="url(#clip430)" d="M1367.75 1454.1 Q1364.14 1454.1 1362.31 1457.66 Q1360.5 1461.2 1360.5 1468.33 Q1360.5 1475.44 1362.31 1479.01 Q1364.14 1482.55 1367.75 1482.55 Q1371.38 1482.55 1373.19 1479.01 Q1375.02 1475.44 1375.02 1468.33 Q1375.02 1461.2 1373.19 1457.66 Q1371.38 1454.1 1367.75 1454.1 M1367.75 1450.39 Q1373.56 1450.39 1376.61 1455 Q1379.69 1459.58 1379.69 1468.33 Q1379.69 1477.06 1376.61 1481.67 Q1373.56 1486.25 1367.75 1486.25 Q1361.94 1486.25 1358.86 1481.67 Q1355.8 1477.06 1355.8 1468.33 Q1355.8 1459.58 1358.86 1455 Q1361.94 1450.39 1367.75 1450.39 Z" fill="#000000" fill-rule="nonzero" fill-opacity="1" /><path clip-path="url(#clip430)" d="M1712.65 1481.64 L1720.29 1481.64 L1720.29 1455.28 L1711.98 1456.95 L1711.98 1452.69 L1720.25 1451.02 L1724.92 1451.02 L1724.92 1481.64 L1732.56 1481.64 L1732.56 1485.58 L1712.65 1485.58 L1712.65 1481.64 Z" fill="#000000" fill-rule="nonzero" fill-opacity="1" /><path clip-path="url(#clip430)" d="M643.321 1520.52 L649.751 1520.52 L649.751 1562.63 L672.89 1562.63 L672.89 1568.04 L643.321 1568.04 L643.321 1520.52 Z" fill="#000000" fill-rule="nonzero" fill-opacity="1" /><path clip-path="url(#clip430)" d="M692.051 1536.5 Q687.34 1536.5 684.603 1540.19 Q681.866 1543.85 681.866 1550.25 Q681.866 1556.65 684.571 1560.34 Q687.308 1564 692.051 1564 Q696.73 1564 699.467 1560.31 Q702.204 1556.62 702.204 1550.25 Q702.204 1543.92 699.467 1540.23 Q696.73 1536.5 692.051 1536.5 M692.051 1531.54 Q699.69 1531.54 704.05 1536.5 Q708.411 1541.47 708.411 1550.25 Q708.411 1559 704.05 1564 Q699.69 1568.97 692.051 1568.97 Q684.38 1568.97 680.02 1564 Q675.691 1559 675.691 1550.25 Q675.691 1541.47 680.02 1536.5 Q684.38 1531.54 692.051 1531.54 Z" fill="#000000" fill-rule="nonzero" fill-opacity="1" /><path clip-path="url(#clip430)" d="M741.576 1549.81 Q741.576 1543.44 738.934 1539.94 Q736.324 1536.44 731.582 1536.44 Q726.871 1536.44 724.229 1539.94 Q721.619 1543.44 721.619 1549.81 Q721.619 1556.14 724.229 1559.64 Q726.871 1563.14 731.582 1563.14 Q736.324 1563.14 738.934 1559.64 Q741.576 1556.14 741.576 1549.81 M747.432 1563.62 Q747.432 1572.72 743.39 1577.15 Q739.348 1581.6 731.009 1581.6 Q727.922 1581.6 725.184 1581.13 Q722.447 1580.68 719.869 1579.72 L719.869 1574.03 Q722.447 1575.43 724.961 1576.1 Q727.476 1576.76 730.086 1576.76 Q735.847 1576.76 738.711 1573.74 Q741.576 1570.75 741.576 1564.67 L741.576 1561.77 Q739.762 1564.92 736.929 1566.48 Q734.096 1568.04 730.15 1568.04 Q723.593 1568.04 719.582 1563.05 Q715.572 1558.05 715.572 1549.81 Q715.572 1541.53 719.582 1536.53 Q723.593 1531.54 730.15 1531.54 Q734.096 1531.54 736.929 1533.1 Q739.762 1534.66 741.576 1537.81 L741.576 1532.4 L747.432 1532.4 L747.432 1563.62 Z" fill="#000000" fill-rule="nonzero" fill-opacity="1" /><path clip-path="url(#clip430)" d="M758.318 1564.54 L764.811 1564.54 L764.811 1545.1 L757.713 1546.4 L757.713 1542.71 L765.034 1541.47 L769.394 1541.47 L769.394 1564.54 L775.919 1564.54 L775.919 1568.04 L758.318 1568.04 L758.318 1564.54 Z" fill="#000000" fill-rule="nonzero" fill-opacity="1" /><path clip-path="url(#clip430)" d="M797.626 1546.5 Q796.035 1543.76 792.82 1543.76 Q789.605 1543.76 788.014 1546.5 Q786.391 1549.23 786.391 1554.71 Q786.391 1560.21 788.014 1562.95 Q789.605 1565.69 792.82 1565.69 Q796.035 1565.69 797.626 1562.95 Q799.249 1560.21 799.249 1554.71 Q799.249 1549.23 797.626 1546.5 M792.82 1540.93 Q797.944 1540.93 800.65 1544.46 Q803.355 1547.99 803.355 1554.71 Q803.355 1561.46 800.65 1564.99 Q797.944 1568.52 792.82 1568.52 Q787.664 1568.52 784.958 1564.99 Q782.253 1561.46 782.253 1554.71 Q782.253 1547.99 784.958 1544.46 Q787.664 1540.93 792.82 1540.93 Z" fill="#000000" fill-rule="nonzero" fill-opacity="1" /><path clip-path="url(#clip430)" d="M825.826 1518.58 Q821.561 1525.9 819.492 1533.06 Q817.423 1540.23 817.423 1547.58 Q817.423 1554.93 819.492 1562.16 Q821.593 1569.35 825.826 1576.64 L820.734 1576.64 Q815.959 1569.16 813.572 1561.93 Q811.217 1554.71 811.217 1547.58 Q811.217 1540.48 813.572 1533.29 Q815.927 1526.09 820.734 1518.58 L825.826 1518.58 Z" fill="#000000" fill-rule="nonzero" fill-opacity="1" /><path clip-path="url(#clip430)" d="M837.443 1520.52 L867.49 1520.52 L867.49 1525.93 L843.873 1525.93 L843.873 1540 L866.503 1540 L866.503 1545.41 L843.873 1545.41 L843.873 1562.63 L868.063 1562.63 L868.063 1568.04 L837.443 1568.04 L837.443 1520.52 Z" fill="#000000" fill-rule="nonzero" fill-opacity="1" /><path clip-path="url(#clip430)" d="M878.375 1518.52 L884.231 1518.52 L884.231 1568.04 L878.375 1568.04 L878.375 1518.52 Z" fill="#000000" fill-rule="nonzero" fill-opacity="1" /><path clip-path="url(#clip430)" d="M912.686 1550.12 Q905.588 1550.12 902.851 1551.75 Q900.114 1553.37 900.114 1557.29 Q900.114 1560.4 902.151 1562.25 Q904.22 1564.07 907.753 1564.07 Q912.622 1564.07 915.551 1560.63 Q918.511 1557.16 918.511 1551.43 L918.511 1550.12 L912.686 1550.12 M924.367 1547.71 L924.367 1568.04 L918.511 1568.04 L918.511 1562.63 Q916.506 1565.88 913.514 1567.44 Q910.522 1568.97 906.193 1568.97 Q900.719 1568.97 897.472 1565.91 Q894.257 1562.82 894.257 1557.67 Q894.257 1551.65 898.268 1548.6 Q902.31 1545.54 910.299 1545.54 L918.511 1545.54 L918.511 1544.97 Q918.511 1540.93 915.837 1538.73 Q913.195 1536.5 908.389 1536.5 Q905.334 1536.5 902.437 1537.23 Q899.541 1537.97 896.867 1539.43 L896.867 1534.02 Q900.082 1532.78 903.106 1532.17 Q906.129 1531.54 908.994 1531.54 Q916.728 1531.54 920.548 1535.55 Q924.367 1539.56 924.367 1547.71 Z" fill="#000000" fill-rule="nonzero" fill-opacity="1" /><path clip-path="url(#clip430)" d="M942.096 1562.7 L942.096 1581.6 L936.207 1581.6 L936.207 1532.4 L942.096 1532.4 L942.096 1537.81 Q943.942 1534.62 946.743 1533.1 Q949.575 1531.54 953.49 1531.54 Q959.983 1531.54 964.026 1536.69 Q968.1 1541.85 968.1 1550.25 Q968.1 1558.65 964.026 1563.81 Q959.983 1568.97 953.49 1568.97 Q949.575 1568.97 946.743 1567.44 Q943.942 1565.88 942.096 1562.7 M962.02 1550.25 Q962.02 1543.79 959.347 1540.13 Q956.705 1536.44 952.058 1536.44 Q947.411 1536.44 944.737 1540.13 Q942.096 1543.79 942.096 1550.25 Q942.096 1556.71 944.737 1560.4 Q947.411 1564.07 952.058 1564.07 Q956.705 1564.07 959.347 1560.4 Q962.02 1556.71 962.02 1550.25 Z" fill="#000000" fill-rule="nonzero" fill-opacity="1" /><path clip-path="url(#clip430)" d="M1000.53 1533.45 L1000.53 1538.98 Q998.05 1537.71 995.377 1537.07 Q992.703 1536.44 989.839 1536.44 Q985.478 1536.44 983.282 1537.77 Q981.117 1539.11 981.117 1541.79 Q981.117 1543.82 982.677 1545 Q984.237 1546.15 988.947 1547.2 L990.953 1547.64 Q997.191 1548.98 999.801 1551.43 Q1002.44 1553.85 1002.44 1558.21 Q1002.44 1563.17 998.496 1566.07 Q994.581 1568.97 987.706 1568.97 Q984.841 1568.97 981.722 1568.39 Q978.635 1567.85 975.197 1566.74 L975.197 1560.69 Q978.444 1562.38 981.595 1563.24 Q984.746 1564.07 987.833 1564.07 Q991.971 1564.07 994.199 1562.66 Q996.427 1561.23 996.427 1558.65 Q996.427 1556.27 994.804 1554.99 Q993.212 1553.72 987.77 1552.54 L985.733 1552.07 Q980.29 1550.92 977.871 1548.56 Q975.452 1546.18 975.452 1542.04 Q975.452 1537.01 979.017 1534.27 Q982.582 1531.54 989.138 1531.54 Q992.385 1531.54 995.249 1532.01 Q998.114 1532.49 1000.53 1533.45 Z" fill="#000000" fill-rule="nonzero" fill-opacity="1" /><path clip-path="url(#clip430)" d="M1042.26 1548.76 L1042.26 1551.62 L1015.33 1551.62 Q1015.72 1557.67 1018.96 1560.85 Q1022.24 1564 1028.06 1564 Q1031.44 1564 1034.59 1563.17 Q1037.77 1562.35 1040.89 1560.69 L1040.89 1566.23 Q1037.74 1567.57 1034.43 1568.27 Q1031.12 1568.97 1027.71 1568.97 Q1019.18 1568.97 1014.19 1564 Q1009.22 1559.04 1009.22 1550.57 Q1009.22 1541.82 1013.93 1536.69 Q1018.68 1531.54 1026.7 1531.54 Q1033.89 1531.54 1038.06 1536.18 Q1042.26 1540.8 1042.26 1548.76 M1036.4 1547.04 Q1036.34 1542.23 1033.7 1539.37 Q1031.09 1536.5 1026.76 1536.5 Q1021.86 1536.5 1018.9 1539.27 Q1015.97 1542.04 1015.52 1547.07 L1036.4 1547.04 Z" fill="#000000" fill-rule="nonzero" fill-opacity="1" /><path clip-path="url(#clip430)" d="M1075.33 1537.81 L1075.33 1518.52 L1081.19 1518.52 L1081.19 1568.04 L1075.33 1568.04 L1075.33 1562.7 Q1073.48 1565.88 1070.65 1567.44 Q1067.85 1568.97 1063.9 1568.97 Q1057.44 1568.97 1053.37 1563.81 Q1049.33 1558.65 1049.33 1550.25 Q1049.33 1541.85 1053.37 1536.69 Q1057.44 1531.54 1063.9 1531.54 Q1067.85 1531.54 1070.65 1533.1 Q1073.48 1534.62 1075.33 1537.81 M1055.37 1550.25 Q1055.37 1556.71 1058.02 1560.4 Q1060.69 1564.07 1065.34 1564.07 Q1069.98 1564.07 1072.66 1560.4 Q1075.33 1556.71 1075.33 1550.25 Q1075.33 1543.79 1072.66 1540.13 Q1069.98 1536.44 1065.34 1536.44 Q1060.69 1536.44 1058.02 1540.13 Q1055.37 1543.79 1055.37 1550.25 Z" fill="#000000" fill-rule="nonzero" fill-opacity="1" /><path clip-path="url(#clip430)" d="M1107.64 1520.52 L1147.84 1520.52 L1147.84 1525.93 L1130.97 1525.93 L1130.97 1568.04 L1124.51 1568.04 L1124.51 1525.93 L1107.64 1525.93 L1107.64 1520.52 Z" fill="#000000" fill-rule="nonzero" fill-opacity="1" /><path clip-path="url(#clip430)" d="M1151.78 1532.4 L1157.64 1532.4 L1157.64 1568.04 L1151.78 1568.04 L1151.78 1532.4 M1151.78 1518.52 L1157.64 1518.52 L1157.64 1525.93 L1151.78 1525.93 L1151.78 1518.52 Z" fill="#000000" fill-rule="nonzero" fill-opacity="1" /><path clip-path="url(#clip430)" d="M1197.65 1539.24 Q1199.84 1535.29 1202.9 1533.41 Q1205.95 1531.54 1210.09 1531.54 Q1215.66 1531.54 1218.69 1535.45 Q1221.71 1539.33 1221.71 1546.53 L1221.71 1568.04 L1215.82 1568.04 L1215.82 1546.72 Q1215.82 1541.59 1214.01 1539.11 Q1212.19 1536.63 1208.47 1536.63 Q1203.92 1536.63 1201.28 1539.65 Q1198.63 1542.68 1198.63 1547.9 L1198.63 1568.04 L1192.75 1568.04 L1192.75 1546.72 Q1192.75 1541.56 1190.93 1539.11 Q1189.12 1536.63 1185.33 1536.63 Q1180.84 1536.63 1178.2 1539.68 Q1175.56 1542.71 1175.56 1547.9 L1175.56 1568.04 L1169.67 1568.04 L1169.67 1532.4 L1175.56 1532.4 L1175.56 1537.93 Q1177.56 1534.66 1180.36 1533.1 Q1183.17 1531.54 1187.02 1531.54 Q1190.9 1531.54 1193.6 1533.51 Q1196.34 1535.48 1197.65 1539.24 Z" fill="#000000" fill-rule="nonzero" fill-opacity="1" /><path clip-path="url(#clip430)" d="M1263.88 1548.76 L1263.88 1551.62 L1236.96 1551.62 Q1237.34 1557.67 1240.58 1560.85 Q1243.86 1564 1249.69 1564 Q1253.06 1564 1256.21 1563.17 Q1259.39 1562.35 1262.51 1560.69 L1262.51 1566.23 Q1259.36 1567.57 1256.05 1568.27 Q1252.74 1568.97 1249.34 1568.97 Q1240.81 1568.97 1235.81 1564 Q1230.84 1559.04 1230.84 1550.57 Q1230.84 1541.82 1235.55 1536.69 Q1240.3 1531.54 1248.32 1531.54 Q1255.51 1531.54 1259.68 1536.18 Q1263.88 1540.8 1263.88 1548.76 M1258.03 1547.04 Q1257.96 1542.23 1255.32 1539.37 Q1252.71 1536.5 1248.38 1536.5 Q1243.48 1536.5 1240.52 1539.27 Q1237.59 1542.04 1237.15 1547.07 L1258.03 1547.04 Z" fill="#000000" fill-rule="nonzero" fill-opacity="1" /><path clip-path="url(#clip430)" d="M1272.57 1518.58 L1277.66 1518.58 Q1282.44 1526.09 1284.79 1533.29 Q1287.18 1540.48 1287.18 1547.58 Q1287.18 1554.71 1284.79 1561.93 Q1282.44 1569.16 1277.66 1576.64 L1272.57 1576.64 Q1276.8 1569.35 1278.87 1562.16 Q1280.97 1554.93 1280.97 1547.58 Q1280.97 1540.23 1278.87 1533.06 Q1276.8 1525.9 1272.57 1518.58 Z" fill="#000000" fill-rule="nonzero" fill-opacity="1" /><path clip-path="url(#clip430)" d="M1333.71 1518.58 Q1329.45 1525.9 1327.38 1533.06 Q1325.31 1540.23 1325.31 1547.58 Q1325.31 1554.93 1327.38 1562.16 Q1329.48 1569.35 1333.71 1576.64 L1328.62 1576.64 Q1323.85 1569.16 1321.46 1561.93 Q1319.1 1554.71 1319.1 1547.58 Q1319.1 1540.48 1321.46 1533.29 Q1323.82 1526.09 1328.62 1518.58 L1333.71 1518.58 Z" fill="#000000" fill-rule="nonzero" fill-opacity="1" /><path clip-path="url(#clip430)" d="M1367.8 1533.45 L1367.8 1538.98 Q1365.32 1537.71 1362.65 1537.07 Q1359.97 1536.44 1357.11 1536.44 Q1352.75 1536.44 1350.55 1537.77 Q1348.39 1539.11 1348.39 1541.79 Q1348.39 1543.82 1349.95 1545 Q1351.51 1546.15 1356.22 1547.2 L1358.22 1547.64 Q1364.46 1548.98 1367.07 1551.43 Q1369.71 1553.85 1369.71 1558.21 Q1369.71 1563.17 1365.77 1566.07 Q1361.85 1568.97 1354.98 1568.97 Q1352.11 1568.97 1348.99 1568.39 Q1345.9 1567.85 1342.47 1566.74 L1342.47 1560.69 Q1345.71 1562.38 1348.86 1563.24 Q1352.02 1564.07 1355.1 1564.07 Q1359.24 1564.07 1361.47 1562.66 Q1363.7 1561.23 1363.7 1558.65 Q1363.7 1556.27 1362.07 1554.99 Q1360.48 1553.72 1355.04 1552.54 L1353 1552.07 Q1347.56 1550.92 1345.14 1548.56 Q1342.72 1546.18 1342.72 1542.04 Q1342.72 1537.01 1346.29 1534.27 Q1349.85 1531.54 1356.41 1531.54 Q1359.65 1531.54 1362.52 1532.01 Q1365.38 1532.49 1367.8 1533.45 Z" fill="#000000" fill-rule="nonzero" fill-opacity="1" /><path clip-path="url(#clip430)" d="M1378.11 1518.58 L1383.21 1518.58 Q1387.98 1526.09 1390.34 1533.29 Q1392.72 1540.48 1392.72 1547.58 Q1392.72 1554.71 1390.34 1561.93 Q1387.98 1569.16 1383.21 1576.64 L1378.11 1576.64 Q1382.35 1569.35 1384.42 1562.16 Q1386.52 1554.93 1386.52 1547.58 Q1386.52 1540.23 1384.42 1533.06 Q1382.35 1525.9 1378.11 1518.58 Z" fill="#000000" fill-rule="nonzero" fill-opacity="1" /><polyline clip-path="url(#clip432)" style="stroke:#000000; stroke-linecap:round; stroke-linejoin:round; stroke-width:2; stroke-opacity:0.1; fill:none" points="242.135,1380.73 1793.91,1380.73 "/>
<polyline clip-path="url(#clip432)" style="stroke:#000000; stroke-linecap:round; stroke-linejoin:round; stroke-width:2; stroke-opacity:0.1; fill:none" points="242.135,1269.78 1793.91,1269.78 "/>
<polyline clip-path="url(#clip432)" style="stroke:#000000; stroke-linecap:round; stroke-linejoin:round; stroke-width:2; stroke-opacity:0.1; fill:none" points="242.135,1158.83 1793.91,1158.83 "/>
<polyline clip-path="url(#clip432)" style="stroke:#000000; stroke-linecap:round; stroke-linejoin:round; stroke-width:2; stroke-opacity:0.1; fill:none" points="242.135,1047.87 1793.91,1047.87 "/>
<polyline clip-path="url(#clip432)" style="stroke:#000000; stroke-linecap:round; stroke-linejoin:round; stroke-width:2; stroke-opacity:0.1; fill:none" points="242.135,936.922 1793.91,936.922 "/>
<polyline clip-path="url(#clip432)" style="stroke:#000000; stroke-linecap:round; stroke-linejoin:round; stroke-width:2; stroke-opacity:0.1; fill:none" points="242.135,825.97 1793.91,825.97 "/>
<polyline clip-path="url(#clip432)" style="stroke:#000000; stroke-linecap:round; stroke-linejoin:round; stroke-width:2; stroke-opacity:0.1; fill:none" points="242.135,715.018 1793.91,715.018 "/>
<polyline clip-path="url(#clip432)" style="stroke:#000000; stroke-linecap:round; stroke-linejoin:round; stroke-width:2; stroke-opacity:0.1; fill:none" points="242.135,604.065 1793.91,604.065 "/>
<polyline clip-path="url(#clip432)" style="stroke:#000000; stroke-linecap:round; stroke-linejoin:round; stroke-width:2; stroke-opacity:0.1; fill:none" points="242.135,493.113 1793.91,493.113 "/>
<polyline clip-path="url(#clip432)" style="stroke:#000000; stroke-linecap:round; stroke-linejoin:round; stroke-width:2; stroke-opacity:0.1; fill:none" points="242.135,382.161 1793.91,382.161 "/>
<polyline clip-path="url(#clip432)" style="stroke:#000000; stroke-linecap:round; stroke-linejoin:round; stroke-width:2; stroke-opacity:0.1; fill:none" points="242.135,271.209 1793.91,271.209 "/>
<polyline clip-path="url(#clip432)" style="stroke:#000000; stroke-linecap:round; stroke-linejoin:round; stroke-width:2; stroke-opacity:0.1; fill:none" points="242.135,160.256 1793.91,160.256 "/>
<polyline clip-path="url(#clip430)" style="stroke:#000000; stroke-linecap:round; stroke-linejoin:round; stroke-width:4; stroke-opacity:1; fill:none" points="242.135,1423.18 242.135,123.472 "/>
<polyline clip-path="url(#clip430)" style="stroke:#000000; stroke-linecap:round; stroke-linejoin:round; stroke-width:4; stroke-opacity:1; fill:none" points="242.135,1380.73 256.029,1380.73 "/>
<polyline clip-path="url(#clip430)" style="stroke:#000000; stroke-linecap:round; stroke-linejoin:round; stroke-width:4; stroke-opacity:1; fill:none" points="242.135,1269.78 256.029,1269.78 "/>
<polyline clip-path="url(#clip430)" style="stroke:#000000; stroke-linecap:round; stroke-linejoin:round; stroke-width:4; stroke-opacity:1; fill:none" points="242.135,1158.83 256.029,1158.83 "/>
<polyline clip-path="url(#clip430)" style="stroke:#000000; stroke-linecap:round; stroke-linejoin:round; stroke-width:4; stroke-opacity:1; fill:none" points="242.135,1047.87 256.029,1047.87 "/>
<polyline clip-path="url(#clip430)" style="stroke:#000000; stroke-linecap:round; stroke-linejoin:round; stroke-width:4; stroke-opacity:1; fill:none" points="242.135,936.922 256.029,936.922 "/>
<polyline clip-path="url(#clip430)" style="stroke:#000000; stroke-linecap:round; stroke-linejoin:round; stroke-width:4; stroke-opacity:1; fill:none" points="242.135,825.97 256.029,825.97 "/>
<polyline clip-path="url(#clip430)" style="stroke:#000000; stroke-linecap:round; stroke-linejoin:round; stroke-width:4; stroke-opacity:1; fill:none" points="242.135,715.018 256.029,715.018 "/>
<polyline clip-path="url(#clip430)" style="stroke:#000000; stroke-linecap:round; stroke-linejoin:round; stroke-width:4; stroke-opacity:1; fill:none" points="242.135,604.065 256.029,604.065 "/>
<polyline clip-path="url(#clip430)" style="stroke:#000000; stroke-linecap:round; stroke-linejoin:round; stroke-width:4; stroke-opacity:1; fill:none" points="242.135,493.113 256.029,493.113 "/>
<polyline clip-path="url(#clip430)" style="stroke:#000000; stroke-linecap:round; stroke-linejoin:round; stroke-width:4; stroke-opacity:1; fill:none" points="242.135,382.161 256.029,382.161 "/>
<polyline clip-path="url(#clip430)" style="stroke:#000000; stroke-linecap:round; stroke-linejoin:round; stroke-width:4; stroke-opacity:1; fill:none" points="242.135,271.209 256.029,271.209 "/>
<polyline clip-path="url(#clip430)" style="stroke:#000000; stroke-linecap:round; stroke-linejoin:round; stroke-width:4; stroke-opacity:1; fill:none" points="242.135,160.256 256.029,160.256 "/>
<path clip-path="url(#clip430)" d="M115.487 1381.18 L145.163 1381.18 L145.163 1385.12 L115.487 1385.12 L115.487 1381.18 Z" fill="#000000" fill-rule="nonzero" fill-opacity="1" /><path clip-path="url(#clip430)" d="M156.065 1394.08 L163.704 1394.08 L163.704 1367.71 L155.394 1369.38 L155.394 1365.12 L163.658 1363.45 L168.334 1363.45 L168.334 1394.08 L175.973 1394.08 L175.973 1398.01 L156.065 1398.01 L156.065 1394.08 Z" fill="#000000" fill-rule="nonzero" fill-opacity="1" /><path clip-path="url(#clip430)" d="M186.227 1394.08 L193.866 1394.08 L193.866 1367.71 L185.556 1369.38 L185.556 1365.12 L193.82 1363.45 L198.496 1363.45 L198.496 1394.08 L206.135 1394.08 L206.135 1398.01 L186.227 1398.01 L186.227 1394.08 Z" fill="#000000" fill-rule="nonzero" fill-opacity="1" /><path clip-path="url(#clip430)" d="M114.26 1270.23 L143.936 1270.23 L143.936 1274.17 L114.26 1274.17 L114.26 1270.23 Z" fill="#000000" fill-rule="nonzero" fill-opacity="1" /><path clip-path="url(#clip430)" d="M154.839 1283.12 L162.477 1283.12 L162.477 1256.76 L154.167 1258.42 L154.167 1254.17 L162.431 1252.5 L167.107 1252.5 L167.107 1283.12 L174.746 1283.12 L174.746 1287.06 L154.839 1287.06 L154.839 1283.12 Z" fill="#000000" fill-rule="nonzero" fill-opacity="1" /><path clip-path="url(#clip430)" d="M194.19 1255.58 Q190.579 1255.58 188.75 1259.14 Q186.945 1262.68 186.945 1269.81 Q186.945 1276.92 188.75 1280.48 Q190.579 1284.03 194.19 1284.03 Q197.825 1284.03 199.63 1280.48 Q201.459 1276.92 201.459 1269.81 Q201.459 1262.68 199.63 1259.14 Q197.825 1255.58 194.19 1255.58 M194.19 1251.87 Q200 1251.87 203.056 1256.48 Q206.135 1261.06 206.135 1269.81 Q206.135 1278.54 203.056 1283.15 Q200 1287.73 194.19 1287.73 Q188.38 1287.73 185.301 1283.15 Q182.246 1278.54 182.246 1269.81 Q182.246 1261.06 185.301 1256.48 Q188.38 1251.87 194.19 1251.87 Z" fill="#000000" fill-rule="nonzero" fill-opacity="1" /><path clip-path="url(#clip430)" d="M144.607 1159.28 L174.283 1159.28 L174.283 1163.21 L144.607 1163.21 L144.607 1159.28 Z" fill="#000000" fill-rule="nonzero" fill-opacity="1" /><path clip-path="url(#clip430)" d="M184.514 1175.39 L184.514 1171.13 Q186.274 1171.96 188.079 1172.4 Q189.885 1172.84 191.621 1172.84 Q196.25 1172.84 198.681 1169.74 Q201.135 1166.62 201.482 1160.27 Q200.139 1162.26 198.079 1163.33 Q196.019 1164.39 193.519 1164.39 Q188.334 1164.39 185.301 1161.27 Q182.292 1158.12 182.292 1152.68 Q182.292 1147.36 185.44 1144.14 Q188.588 1140.92 193.82 1140.92 Q199.815 1140.92 202.963 1145.53 Q206.135 1150.11 206.135 1158.86 Q206.135 1167.03 202.246 1171.92 Q198.38 1176.78 191.829 1176.78 Q190.07 1176.78 188.264 1176.43 Q186.459 1176.08 184.514 1175.39 M193.82 1160.74 Q196.968 1160.74 198.797 1158.58 Q200.649 1156.43 200.649 1152.68 Q200.649 1148.95 198.797 1146.8 Q196.968 1144.63 193.82 1144.63 Q190.672 1144.63 188.82 1146.8 Q186.991 1148.95 186.991 1152.68 Q186.991 1156.43 188.82 1158.58 Q190.672 1160.74 193.82 1160.74 Z" fill="#000000" fill-rule="nonzero" fill-opacity="1" /><path clip-path="url(#clip430)" d="M144.515 1048.33 L174.19 1048.33 L174.19 1052.26 L144.515 1052.26 L144.515 1048.33 Z" fill="#000000" fill-rule="nonzero" fill-opacity="1" /><path clip-path="url(#clip430)" d="M194.283 1048.74 Q190.95 1048.74 189.028 1050.52 Q187.13 1052.31 187.13 1055.43 Q187.13 1058.56 189.028 1060.34 Q190.95 1062.12 194.283 1062.12 Q197.616 1062.12 199.537 1060.34 Q201.459 1058.53 201.459 1055.43 Q201.459 1052.31 199.537 1050.52 Q197.639 1048.74 194.283 1048.74 M189.607 1046.75 Q186.598 1046.01 184.908 1043.95 Q183.241 1041.89 183.241 1038.93 Q183.241 1034.78 186.181 1032.38 Q189.144 1029.97 194.283 1029.97 Q199.445 1029.97 202.385 1032.38 Q205.324 1034.78 205.324 1038.93 Q205.324 1041.89 203.635 1043.95 Q201.968 1046.01 198.982 1046.75 Q202.362 1047.54 204.237 1049.83 Q206.135 1052.12 206.135 1055.43 Q206.135 1060.46 203.056 1063.14 Q200 1065.83 194.283 1065.83 Q188.565 1065.83 185.487 1063.14 Q182.431 1060.46 182.431 1055.43 Q182.431 1052.12 184.329 1049.83 Q186.227 1047.54 189.607 1046.75 M187.894 1039.37 Q187.894 1042.05 189.561 1043.56 Q191.25 1045.06 194.283 1045.06 Q197.292 1045.06 198.982 1043.56 Q200.695 1042.05 200.695 1039.37 Q200.695 1036.68 198.982 1035.18 Q197.292 1033.67 194.283 1033.67 Q191.25 1033.67 189.561 1035.18 Q187.894 1036.68 187.894 1039.37 Z" fill="#000000" fill-rule="nonzero" fill-opacity="1" /><path clip-path="url(#clip430)" d="M145.325 937.373 L175.001 937.373 L175.001 941.309 L145.325 941.309 L145.325 937.373 Z" fill="#000000" fill-rule="nonzero" fill-opacity="1" /><path clip-path="url(#clip430)" d="M183.913 919.642 L206.135 919.642 L206.135 921.633 L193.588 954.202 L188.704 954.202 L200.51 923.577 L183.913 923.577 L183.913 919.642 Z" fill="#000000" fill-rule="nonzero" fill-opacity="1" /><path clip-path="url(#clip430)" d="M144.26 826.421 L173.936 826.421 L173.936 830.356 L144.26 830.356 L144.26 826.421 Z" fill="#000000" fill-rule="nonzero" fill-opacity="1" /><path clip-path="url(#clip430)" d="M194.607 824.106 Q191.459 824.106 189.607 826.259 Q187.778 828.412 187.778 832.162 Q187.778 835.889 189.607 838.065 Q191.459 840.217 194.607 840.217 Q197.755 840.217 199.584 838.065 Q201.436 835.889 201.436 832.162 Q201.436 828.412 199.584 826.259 Q197.755 824.106 194.607 824.106 M203.889 809.454 L203.889 813.713 Q202.13 812.88 200.325 812.44 Q198.542 812 196.783 812 Q192.153 812 189.7 815.125 Q187.269 818.25 186.922 824.569 Q188.288 822.555 190.348 821.491 Q192.408 820.403 194.885 820.403 Q200.093 820.403 203.102 823.574 Q206.135 826.722 206.135 832.162 Q206.135 837.486 202.987 840.703 Q199.838 843.921 194.607 843.921 Q188.612 843.921 185.44 839.338 Q182.269 834.731 182.269 826.004 Q182.269 817.81 186.158 812.949 Q190.047 808.065 196.598 808.065 Q198.357 808.065 200.139 808.412 Q201.945 808.759 203.889 809.454 Z" fill="#000000" fill-rule="nonzero" fill-opacity="1" /><path clip-path="url(#clip430)" d="M145.417 715.469 L175.093 715.469 L175.093 719.404 L145.417 719.404 L145.417 715.469 Z" fill="#000000" fill-rule="nonzero" fill-opacity="1" /><path clip-path="url(#clip430)" d="M185.232 697.738 L203.588 697.738 L203.588 701.673 L189.514 701.673 L189.514 710.145 Q190.533 709.798 191.551 709.636 Q192.57 709.45 193.588 709.45 Q199.375 709.45 202.755 712.622 Q206.135 715.793 206.135 721.21 Q206.135 726.788 202.662 729.89 Q199.19 732.969 192.871 732.969 Q190.695 732.969 188.426 732.598 Q186.181 732.228 183.774 731.487 L183.774 726.788 Q185.857 727.923 188.079 728.478 Q190.301 729.034 192.778 729.034 Q196.783 729.034 199.121 726.927 Q201.459 724.821 201.459 721.21 Q201.459 717.599 199.121 715.492 Q196.783 713.386 192.778 713.386 Q190.903 713.386 189.028 713.802 Q187.176 714.219 185.232 715.099 L185.232 697.738 Z" fill="#000000" fill-rule="nonzero" fill-opacity="1" /><path clip-path="url(#clip430)" d="M143.936 604.517 L173.612 604.517 L173.612 608.452 L143.936 608.452 L143.936 604.517 Z" fill="#000000" fill-rule="nonzero" fill-opacity="1" /><path clip-path="url(#clip430)" d="M196.551 590.859 L184.746 609.308 L196.551 609.308 L196.551 590.859 M195.325 586.785 L201.204 586.785 L201.204 609.308 L206.135 609.308 L206.135 613.197 L201.204 613.197 L201.204 621.345 L196.551 621.345 L196.551 613.197 L180.95 613.197 L180.95 608.683 L195.325 586.785 Z" fill="#000000" fill-rule="nonzero" fill-opacity="1" /><path clip-path="url(#clip430)" d="M145.07 493.564 L174.746 493.564 L174.746 497.5 L145.07 497.5 L145.07 493.564 Z" fill="#000000" fill-rule="nonzero" fill-opacity="1" /><path clip-path="url(#clip430)" d="M199.005 491.759 Q202.362 492.476 204.237 494.745 Q206.135 497.013 206.135 500.347 Q206.135 505.463 202.616 508.263 Q199.098 511.064 192.616 511.064 Q190.44 511.064 188.126 510.625 Q185.834 510.208 183.38 509.351 L183.38 504.838 Q185.325 505.972 187.639 506.55 Q189.954 507.129 192.477 507.129 Q196.875 507.129 199.167 505.393 Q201.482 503.657 201.482 500.347 Q201.482 497.291 199.329 495.578 Q197.2 493.842 193.38 493.842 L189.352 493.842 L189.352 490 L193.565 490 Q197.014 490 198.843 488.634 Q200.672 487.245 200.672 484.652 Q200.672 481.99 198.774 480.578 Q196.899 479.143 193.38 479.143 Q191.459 479.143 189.26 479.56 Q187.061 479.977 184.422 480.856 L184.422 476.69 Q187.084 475.949 189.399 475.578 Q191.737 475.208 193.797 475.208 Q199.121 475.208 202.223 477.639 Q205.324 480.046 205.324 484.166 Q205.324 487.037 203.681 489.027 Q202.037 490.995 199.005 491.759 Z" fill="#000000" fill-rule="nonzero" fill-opacity="1" /><path clip-path="url(#clip430)" d="M146.019 382.612 L175.695 382.612 L175.695 386.547 L146.019 386.547 L146.019 382.612 Z" fill="#000000" fill-rule="nonzero" fill-opacity="1" /><path clip-path="url(#clip430)" d="M189.815 395.506 L206.135 395.506 L206.135 399.441 L184.19 399.441 L184.19 395.506 Q186.852 392.751 191.436 388.121 Q196.042 383.469 197.223 382.126 Q199.468 379.603 200.348 377.867 Q201.25 376.108 201.25 374.418 Q201.25 371.663 199.306 369.927 Q197.385 368.191 194.283 368.191 Q192.084 368.191 189.63 368.955 Q187.2 369.719 184.422 371.27 L184.422 366.547 Q187.246 365.413 189.7 364.834 Q192.153 364.256 194.19 364.256 Q199.561 364.256 202.755 366.941 Q205.949 369.626 205.949 374.117 Q205.949 376.246 205.139 378.168 Q204.352 380.066 202.246 382.658 Q201.667 383.33 198.565 386.547 Q195.463 389.742 189.815 395.506 Z" fill="#000000" fill-rule="nonzero" fill-opacity="1" /><path clip-path="url(#clip430)" d="M145.649 271.66 L175.325 271.66 L175.325 275.595 L145.649 275.595 L145.649 271.66 Z" fill="#000000" fill-rule="nonzero" fill-opacity="1" /><path clip-path="url(#clip430)" d="M186.227 284.553 L193.866 284.553 L193.866 258.188 L185.556 259.854 L185.556 255.595 L193.82 253.929 L198.496 253.929 L198.496 284.553 L206.135 284.553 L206.135 288.489 L186.227 288.489 L186.227 284.553 Z" fill="#000000" fill-rule="nonzero" fill-opacity="1" /><path clip-path="url(#clip430)" d="M194.19 146.055 Q190.579 146.055 188.75 149.62 Q186.945 153.161 186.945 160.291 Q186.945 167.397 188.75 170.962 Q190.579 174.504 194.19 174.504 Q197.825 174.504 199.63 170.962 Q201.459 167.397 201.459 160.291 Q201.459 153.161 199.63 149.62 Q197.825 146.055 194.19 146.055 M194.19 142.351 Q200 142.351 203.056 146.958 Q206.135 151.541 206.135 160.291 Q206.135 169.018 203.056 173.624 Q200 178.208 194.19 178.208 Q188.38 178.208 185.301 173.624 Q182.246 169.018 182.246 160.291 Q182.246 151.541 185.301 146.958 Q188.38 142.351 194.19 142.351 Z" fill="#000000" fill-rule="nonzero" fill-opacity="1" /><path clip-path="url(#clip430)" d="M16.4842 984.572 L16.4842 978.143 L58.5933 978.143 L58.5933 955.003 L64.0042 955.003 L64.0042 984.572 L16.4842 984.572 Z" fill="#000000" fill-rule="nonzero" fill-opacity="1" /><path clip-path="url(#clip430)" d="M32.4621 935.842 Q32.4621 940.553 36.1542 943.29 Q39.8145 946.028 46.212 946.028 Q52.6095 946.028 56.3017 943.322 Q59.9619 940.585 59.9619 935.842 Q59.9619 931.164 56.2698 928.426 Q52.5777 925.689 46.212 925.689 Q39.8781 925.689 36.186 928.426 Q32.4621 931.164 32.4621 935.842 M27.4968 935.842 Q27.4968 928.204 32.4621 923.843 Q37.4273 919.483 46.212 919.483 Q54.9649 919.483 59.9619 923.843 Q64.9272 928.204 64.9272 935.842 Q64.9272 943.513 59.9619 947.874 Q54.9649 952.202 46.212 952.202 Q37.4273 952.202 32.4621 947.874 Q27.4968 943.513 27.4968 935.842 Z" fill="#000000" fill-rule="nonzero" fill-opacity="1" /><path clip-path="url(#clip430)" d="M45.7664 886.317 Q39.4007 886.317 35.8996 888.959 Q32.3984 891.569 32.3984 896.311 Q32.3984 901.022 35.8996 903.664 Q39.4007 906.274 45.7664 906.274 Q52.1003 906.274 55.6014 903.664 Q59.1026 901.022 59.1026 896.311 Q59.1026 891.569 55.6014 888.959 Q52.1003 886.317 45.7664 886.317 M59.58 880.461 Q68.683 880.461 73.1071 884.503 Q77.5631 888.545 77.5631 896.884 Q77.5631 899.972 77.0857 902.709 Q76.6401 905.446 75.6852 908.024 L69.9879 908.024 Q71.3884 905.446 72.0568 902.932 Q72.7252 900.417 72.7252 897.807 Q72.7252 892.046 69.7015 889.182 Q66.7096 886.317 60.6303 886.317 L57.7339 886.317 Q60.885 888.132 62.4446 890.964 Q64.0042 893.797 64.0042 897.744 Q64.0042 904.3 59.0071 908.311 Q54.01 912.321 45.7664 912.321 Q37.491 912.321 32.4939 908.311 Q27.4968 904.3 27.4968 897.744 Q27.4968 893.797 29.0564 890.964 Q30.616 888.132 33.7671 886.317 L28.3562 886.317 L28.3562 880.461 L59.58 880.461 Z" fill="#000000" fill-rule="nonzero" fill-opacity="1" /><path clip-path="url(#clip430)" d="M60.503 869.575 L60.503 863.082 L41.0558 863.082 L42.3608 870.18 L38.6686 870.18 L37.4273 862.86 L37.4273 858.499 L60.503 858.499 L60.503 851.974 L64.0042 851.974 L64.0042 869.575 L60.503 869.575 Z" fill="#000000" fill-rule="nonzero" fill-opacity="1" /><path clip-path="url(#clip430)" d="M42.4562 830.267 Q39.719 831.859 39.719 835.073 Q39.719 838.288 42.4562 839.879 Q45.1935 841.503 50.668 841.503 Q56.1743 841.503 58.9116 839.879 Q61.6488 838.288 61.6488 835.073 Q61.6488 831.859 58.9116 830.267 Q56.1743 828.644 50.668 828.644 Q45.1935 828.644 42.4562 830.267 M36.8862 835.073 Q36.8862 829.949 40.4192 827.244 Q43.9522 824.538 50.668 824.538 Q57.4157 824.538 60.9486 827.244 Q64.4816 829.949 64.4816 835.073 Q64.4816 840.23 60.9486 842.935 Q57.4157 845.64 50.668 845.64 Q43.9522 845.64 40.4192 842.935 Q36.8862 840.23 36.8862 835.073 Z" fill="#000000" fill-rule="nonzero" fill-opacity="1" /><path clip-path="url(#clip430)" d="M14.5426 802.067 Q21.8632 806.332 29.0246 808.401 Q36.186 810.47 43.5384 810.47 Q50.8908 810.47 58.1159 808.401 Q65.3091 806.3 72.5979 802.067 L72.5979 807.16 Q65.1182 811.934 57.8931 814.321 Q50.668 816.676 43.5384 816.676 Q36.4406 816.676 29.2474 814.321 Q22.0542 811.966 14.5426 807.16 L14.5426 802.067 Z" fill="#000000" fill-rule="nonzero" fill-opacity="1" /><path clip-path="url(#clip430)" d="M41.7242 767.915 Q42.4244 765.846 44.7161 763.905 Q47.0077 761.931 51.0181 759.958 L64.0042 753.433 L64.0042 760.34 L51.8138 766.419 Q47.0395 768.775 45.48 771.003 Q43.9204 773.199 43.9204 777.018 L43.9204 784.02 L64.0042 784.02 L64.0042 790.45 L16.4842 790.45 L16.4842 775.936 Q16.4842 767.788 19.8898 763.777 Q23.2955 759.767 30.1704 759.767 Q34.6582 759.767 37.6183 761.868 Q40.5784 763.937 41.7242 767.915 M21.7677 784.02 L38.6368 784.02 L38.6368 775.936 Q38.6368 771.289 36.5043 768.934 Q34.34 766.547 30.1704 766.547 Q26.0009 766.547 23.9002 768.934 Q21.7677 771.289 21.7677 775.936 L21.7677 784.02 Z" fill="#000000" fill-rule="nonzero" fill-opacity="1" /><path clip-path="url(#clip430)" d="M44.7161 717.849 L47.5806 717.849 L47.5806 744.776 Q53.6281 744.394 56.8109 741.147 Q59.9619 737.869 59.9619 732.044 Q59.9619 728.671 59.1344 725.52 Q58.3069 722.337 56.6518 719.217 L62.1899 719.217 Q63.5267 722.369 64.227 725.679 Q64.9272 728.989 64.9272 732.394 Q64.9272 740.925 59.9619 745.922 Q54.9967 750.887 46.5303 750.887 Q37.7774 750.887 32.6531 746.176 Q27.4968 741.434 27.4968 733.413 Q27.4968 726.22 32.1438 722.05 Q36.7589 717.849 44.7161 717.849 M42.9973 723.705 Q38.1912 723.769 35.3266 726.411 Q32.4621 729.021 32.4621 733.349 Q32.4621 738.251 35.2312 741.211 Q38.0002 744.139 43.0292 744.585 L42.9973 723.705 Z" fill="#000000" fill-rule="nonzero" fill-opacity="1" /><path clip-path="url(#clip430)" d="M14.479 708.237 L14.479 702.38 L64.0042 702.38 L64.0042 708.237 L14.479 708.237 Z" fill="#000000" fill-rule="nonzero" fill-opacity="1" /><path clip-path="url(#clip430)" d="M16.4842 669.151 L16.4842 639.105 L21.895 639.105 L21.895 662.722 L35.9632 662.722 L35.9632 640.092 L41.3741 640.092 L41.3741 662.722 L58.5933 662.722 L58.5933 638.532 L64.0042 638.532 L64.0042 669.151 L16.4842 669.151 Z" fill="#000000" fill-rule="nonzero" fill-opacity="1" /><path clip-path="url(#clip430)" d="M33.8307 607.563 Q33.2578 608.55 33.0032 609.727 Q32.7167 610.873 32.7167 612.274 Q32.7167 617.239 35.9632 619.912 Q39.1779 622.554 45.2253 622.554 L64.0042 622.554 L64.0042 628.443 L28.3562 628.443 L28.3562 622.554 L33.8944 622.554 Q30.6479 620.708 29.0883 617.748 Q27.4968 614.788 27.4968 610.555 Q27.4968 609.95 27.5923 609.218 Q27.656 608.486 27.8151 607.595 L33.8307 607.563 Z" fill="#000000" fill-rule="nonzero" fill-opacity="1" /><path clip-path="url(#clip430)" d="M33.8307 581.909 Q33.2578 582.896 33.0032 584.074 Q32.7167 585.219 32.7167 586.62 Q32.7167 591.585 35.9632 594.259 Q39.1779 596.9 45.2253 596.9 L64.0042 596.9 L64.0042 602.789 L28.3562 602.789 L28.3562 596.9 L33.8944 596.9 Q30.6479 595.054 29.0883 592.094 Q27.4968 589.134 27.4968 584.901 Q27.4968 584.296 27.5923 583.564 Q27.656 582.832 27.8151 581.941 L33.8307 581.909 Z" fill="#000000" fill-rule="nonzero" fill-opacity="1" /><path clip-path="url(#clip430)" d="M14.5426 576.689 L14.5426 571.597 Q22.0542 566.822 29.2474 564.467 Q36.4406 562.08 43.5384 562.08 Q50.668 562.08 57.8931 564.467 Q65.1182 566.822 72.5979 571.597 L72.5979 576.689 Q65.3091 572.456 58.1159 570.387 Q50.8908 568.287 43.5384 568.287 Q36.186 568.287 29.0246 570.387 Q21.8632 572.456 14.5426 576.689 Z" fill="#000000" fill-rule="nonzero" fill-opacity="1" /><path clip-path="url(#clip430)" d="M498.069 16.7545 L498.069 25.383 Q493.937 21.5346 489.238 19.6307 Q484.579 17.7268 479.313 17.7268 Q468.943 17.7268 463.434 24.0867 Q457.924 30.4061 457.924 42.3968 Q457.924 54.3469 463.434 60.7069 Q468.943 67.0263 479.313 67.0263 Q484.579 67.0263 489.238 65.1223 Q493.937 63.2184 498.069 59.3701 L498.069 67.9175 Q493.775 70.8341 488.954 72.2924 Q484.174 73.7508 478.827 73.7508 Q465.094 73.7508 457.195 65.3654 Q449.296 56.9395 449.296 42.3968 Q449.296 27.8135 457.195 19.4281 Q465.094 11.0023 478.827 11.0023 Q484.255 11.0023 489.035 12.4606 Q493.856 13.8784 498.069 16.7545 Z" fill="#000000" fill-rule="nonzero" fill-opacity="1" /><path clip-path="url(#clip430)" d="M510.708 12.096 L521.726 12.096 L548.543 62.6918 L548.543 12.096 L556.483 12.096 L556.483 72.576 L545.464 72.576 L518.647 21.9802 L518.647 72.576 L510.708 72.576 L510.708 12.096 Z" fill="#000000" fill-rule="nonzero" fill-opacity="1" /><path clip-path="url(#clip430)" d="M597.316 17.6457 Q588.404 17.6457 583.138 24.2892 Q577.912 30.9327 577.912 42.3968 Q577.912 53.8203 583.138 60.4638 Q588.404 67.1073 597.316 67.1073 Q606.228 67.1073 611.413 60.4638 Q616.639 53.8203 616.639 42.3968 Q616.639 30.9327 611.413 24.2892 Q606.228 17.6457 597.316 17.6457 M597.316 11.0023 Q610.036 11.0023 617.652 19.5497 Q625.267 28.0566 625.267 42.3968 Q625.267 56.6965 617.652 65.2439 Q610.036 73.7508 597.316 73.7508 Q584.556 73.7508 576.899 65.2439 Q569.284 56.737 569.284 42.3968 Q569.284 28.0566 576.899 19.5497 Q584.556 11.0023 597.316 11.0023 Z" fill="#000000" fill-rule="nonzero" fill-opacity="1" /><path clip-path="url(#clip430)" d="M629.683 12.096 L680.846 12.096 L680.846 18.9825 L659.376 18.9825 L659.376 72.576 L651.153 72.576 L651.153 18.9825 L629.683 18.9825 L629.683 12.096 Z" fill="#000000" fill-rule="nonzero" fill-opacity="1" /><path clip-path="url(#clip430)" d="M677.038 46.5287 L698.872 46.5287 L698.872 53.1722 L677.038 53.1722 L677.038 46.5287 Z" fill="#000000" fill-rule="nonzero" fill-opacity="1" /><path clip-path="url(#clip430)" d="M718.843 65.6895 L747.402 65.6895 L747.402 72.576 L708.999 72.576 L708.999 65.6895 Q713.658 60.8689 721.679 52.7671 Q729.74 44.6248 731.806 42.2752 Q735.735 37.8598 737.275 34.8216 Q738.855 31.7429 738.855 28.7857 Q738.855 23.9651 735.452 20.927 Q732.09 17.8888 726.661 17.8888 Q722.813 17.8888 718.519 19.2256 Q714.266 20.5624 709.405 23.2765 L709.405 15.0127 Q714.347 13.0277 718.641 12.015 Q722.935 11.0023 726.499 11.0023 Q735.897 11.0023 741.488 15.7013 Q747.078 20.4004 747.078 28.2591 Q747.078 31.9859 745.66 35.3482 Q744.283 38.6699 740.596 43.2069 Q739.584 44.3817 734.156 50.0125 Q728.727 55.6027 718.843 65.6895 Z" fill="#000000" fill-rule="nonzero" fill-opacity="1" /><path clip-path="url(#clip430)" d="M791.8 62.2867 L800.347 62.2867 L800.347 72.576 L791.8 72.576 L791.8 62.2867 M791.8 29.6769 L800.347 29.6769 L800.347 39.9662 L791.8 39.9662 L791.8 29.6769 Z" fill="#000000" fill-rule="nonzero" fill-opacity="1" /><path clip-path="url(#clip430)" d="M839.155 12.096 L847.419 12.096 L860.139 63.2184 L872.818 12.096 L882.014 12.096 L894.733 63.2184 L907.413 12.096 L915.717 12.096 L900.526 72.576 L890.237 72.576 L877.477 20.0763 L864.595 72.576 L854.305 72.576 L839.155 12.096 Z" fill="#000000" fill-rule="nonzero" fill-opacity="1" /><path clip-path="url(#clip430)" d="M941.562 49.7694 Q932.528 49.7694 929.045 51.8354 Q925.561 53.9013 925.561 58.8839 Q925.561 62.8538 928.153 65.2034 Q930.786 67.5124 935.283 67.5124 Q941.481 67.5124 945.208 63.1374 Q948.975 58.7219 948.975 51.4303 L948.975 49.7694 L941.562 49.7694 M956.429 46.6907 L956.429 72.576 L948.975 72.576 L948.975 65.6895 Q946.423 69.8214 942.615 71.8063 Q938.807 73.7508 933.298 73.7508 Q926.33 73.7508 922.199 69.8619 Q918.107 65.9325 918.107 59.3701 Q918.107 51.7138 923.211 47.825 Q928.356 43.9361 938.524 43.9361 L948.975 43.9361 L948.975 43.2069 Q948.975 38.0623 945.572 35.2672 Q942.21 32.4315 936.093 32.4315 Q932.204 32.4315 928.518 33.3632 Q924.832 34.295 921.429 36.1584 L921.429 29.2718 Q925.52 27.692 929.369 26.9223 Q933.217 26.1121 936.863 26.1121 Q946.706 26.1121 951.568 31.2163 Q956.429 36.3204 956.429 46.6907 Z" fill="#000000" fill-rule="nonzero" fill-opacity="1" /><path clip-path="url(#clip430)" d="M971.782 9.54393 L979.235 9.54393 L979.235 72.576 L971.782 72.576 L971.782 9.54393 Z" fill="#000000" fill-rule="nonzero" fill-opacity="1" /><path clip-path="url(#clip430)" d="M994.831 9.54393 L1002.28 9.54393 L1002.28 72.576 L994.831 72.576 L994.831 9.54393 Z" fill="#000000" fill-rule="nonzero" fill-opacity="1" /><path clip-path="url(#clip430)" d="M1036.19 12.096 L1087.35 12.096 L1087.35 18.9825 L1065.88 18.9825 L1065.88 72.576 L1057.66 72.576 L1057.66 18.9825 L1036.19 18.9825 L1036.19 12.096 Z" fill="#000000" fill-rule="nonzero" fill-opacity="1" /><path clip-path="url(#clip430)" d="M1092.38 27.2059 L1099.83 27.2059 L1099.83 72.576 L1092.38 72.576 L1092.38 27.2059 M1092.38 9.54393 L1099.83 9.54393 L1099.83 18.9825 L1092.38 18.9825 L1092.38 9.54393 Z" fill="#000000" fill-rule="nonzero" fill-opacity="1" /><path clip-path="url(#clip430)" d="M1150.75 35.9153 Q1153.55 30.8922 1157.43 28.5022 Q1161.32 26.1121 1166.59 26.1121 Q1173.68 26.1121 1177.53 31.0947 Q1181.38 36.0368 1181.38 45.1919 L1181.38 72.576 L1173.88 72.576 L1173.88 45.4349 Q1173.88 38.913 1171.57 35.7533 Q1169.26 32.5936 1164.52 32.5936 Q1158.73 32.5936 1155.37 36.4419 Q1152.01 40.2903 1152.01 46.9338 L1152.01 72.576 L1144.51 72.576 L1144.51 45.4349 Q1144.51 38.8725 1142.2 35.7533 Q1139.89 32.5936 1135.07 32.5936 Q1129.36 32.5936 1126 36.4824 Q1122.64 40.3308 1122.64 46.9338 L1122.64 72.576 L1115.14 72.576 L1115.14 27.2059 L1122.64 27.2059 L1122.64 34.2544 Q1125.19 30.082 1128.75 28.0971 Q1132.32 26.1121 1137.22 26.1121 Q1142.16 26.1121 1145.61 28.6237 Q1149.09 31.1352 1150.75 35.9153 Z" fill="#000000" fill-rule="nonzero" fill-opacity="1" /><path clip-path="url(#clip430)" d="M1235.05 48.0275 L1235.05 51.6733 L1200.78 51.6733 Q1201.27 59.3701 1205.4 63.421 Q1209.57 67.4314 1216.98 67.4314 Q1221.28 67.4314 1225.29 66.3781 Q1229.34 65.3249 1233.31 63.2184 L1233.31 70.267 Q1229.3 71.9684 1225.08 72.8596 Q1220.87 73.7508 1216.54 73.7508 Q1205.68 73.7508 1199.32 67.4314 Q1193 61.1119 1193 50.3365 Q1193 39.1965 1199 32.6746 Q1205.03 26.1121 1215.24 26.1121 Q1224.4 26.1121 1229.7 32.0264 Q1235.05 37.9003 1235.05 48.0275 M1227.6 45.84 Q1227.52 39.7232 1224.15 36.0774 Q1220.83 32.4315 1215.32 32.4315 Q1209.08 32.4315 1205.32 35.9558 Q1201.59 39.4801 1201.02 45.8805 L1227.6 45.84 Z" fill="#000000" fill-rule="nonzero" fill-opacity="1" /><path clip-path="url(#clip430)" d="M1268.31 27.2059 L1276.21 27.2059 L1290.39 65.2844 L1304.56 27.2059 L1312.46 27.2059 L1295.45 72.576 L1285.32 72.576 L1268.31 27.2059 Z" fill="#000000" fill-rule="nonzero" fill-opacity="1" /><path clip-path="url(#clip430)" d="M1351.68 28.5427 L1351.68 35.5912 Q1348.52 33.9709 1345.11 33.1607 Q1341.71 32.3505 1338.06 32.3505 Q1332.51 32.3505 1329.72 34.0519 Q1326.96 35.7533 1326.96 39.156 Q1326.96 41.7486 1328.95 43.2475 Q1330.93 44.7058 1336.93 46.0426 L1339.48 46.6097 Q1347.42 48.3111 1350.74 51.4303 Q1354.11 54.509 1354.11 60.0587 Q1354.11 66.3781 1349.08 70.0644 Q1344.1 73.7508 1335.35 73.7508 Q1331.7 73.7508 1327.73 73.0216 Q1323.81 72.3329 1319.43 70.9151 L1319.43 63.2184 Q1323.56 65.3654 1327.57 66.4591 Q1331.58 67.5124 1335.51 67.5124 Q1340.78 67.5124 1343.61 65.73 Q1346.45 63.9071 1346.45 60.6258 Q1346.45 57.5877 1344.38 55.9673 Q1342.36 54.3469 1335.43 52.8481 L1332.84 52.2405 Q1325.91 50.7821 1322.83 47.7845 Q1319.75 44.7463 1319.75 39.4801 Q1319.75 33.0797 1324.29 29.5959 Q1328.83 26.1121 1337.17 26.1121 Q1341.31 26.1121 1344.95 26.7198 Q1348.6 27.3274 1351.68 28.5427 Z" fill="#000000" fill-rule="nonzero" fill-opacity="1" /><path clip-path="url(#clip430)" d="M1392.67 12.096 L1430.91 12.096 L1430.91 18.9825 L1400.85 18.9825 L1400.85 36.8875 L1429.66 36.8875 L1429.66 43.7741 L1400.85 43.7741 L1400.85 65.6895 L1431.64 65.6895 L1431.64 72.576 L1392.67 72.576 L1392.67 12.096 Z" fill="#000000" fill-rule="nonzero" fill-opacity="1" /><path clip-path="url(#clip430)" d="M1471.06 34.1734 Q1469.8 33.4443 1468.3 33.1202 Q1466.84 32.7556 1465.06 32.7556 Q1458.74 32.7556 1455.34 36.8875 Q1451.98 40.9789 1451.98 48.6757 L1451.98 72.576 L1444.48 72.576 L1444.48 27.2059 L1451.98 27.2059 L1451.98 34.2544 Q1454.33 30.1225 1458.09 28.1376 Q1461.86 26.1121 1467.25 26.1121 Q1468.02 26.1121 1468.95 26.2337 Q1469.88 26.3147 1471.02 26.5172 L1471.06 34.1734 Z" fill="#000000" fill-rule="nonzero" fill-opacity="1" /><path clip-path="url(#clip430)" d="M1503.71 34.1734 Q1502.45 33.4443 1500.95 33.1202 Q1499.49 32.7556 1497.71 32.7556 Q1491.39 32.7556 1487.99 36.8875 Q1484.63 40.9789 1484.63 48.6757 L1484.63 72.576 L1477.13 72.576 L1477.13 27.2059 L1484.63 27.2059 L1484.63 34.2544 Q1486.98 30.1225 1490.74 28.1376 Q1494.51 26.1121 1499.9 26.1121 Q1500.67 26.1121 1501.6 26.2337 Q1502.53 26.3147 1503.67 26.5172 L1503.71 34.1734 Z" fill="#000000" fill-rule="nonzero" fill-opacity="1" /><path clip-path="url(#clip430)" d="M1527.28 32.4315 Q1521.29 32.4315 1517.8 37.1306 Q1514.32 41.7891 1514.32 49.9314 Q1514.32 58.0738 1517.76 62.7728 Q1521.25 67.4314 1527.28 67.4314 Q1533.24 67.4314 1536.72 62.7323 Q1540.2 58.0333 1540.2 49.9314 Q1540.2 41.8701 1536.72 37.1711 Q1533.24 32.4315 1527.28 32.4315 M1527.28 26.1121 Q1537 26.1121 1542.55 32.4315 Q1548.1 38.7509 1548.1 49.9314 Q1548.1 61.0714 1542.55 67.4314 Q1537 73.7508 1527.28 73.7508 Q1517.52 73.7508 1511.97 67.4314 Q1506.46 61.0714 1506.46 49.9314 Q1506.46 38.7509 1511.97 32.4315 Q1517.52 26.1121 1527.28 26.1121 Z" fill="#000000" fill-rule="nonzero" fill-opacity="1" /><path clip-path="url(#clip430)" d="M1586.75 34.1734 Q1585.49 33.4443 1583.99 33.1202 Q1582.54 32.7556 1580.75 32.7556 Q1574.43 32.7556 1571.03 36.8875 Q1567.67 40.9789 1567.67 48.6757 L1567.67 72.576 L1560.18 72.576 L1560.18 27.2059 L1567.67 27.2059 L1567.67 34.2544 Q1570.02 30.1225 1573.79 28.1376 Q1577.55 26.1121 1582.94 26.1121 Q1583.71 26.1121 1584.64 26.2337 Q1585.57 26.3147 1586.71 26.5172 L1586.75 34.1734 Z" fill="#000000" fill-rule="nonzero" fill-opacity="1" /><polyline clip-path="url(#clip432)" style="stroke:#009af9; stroke-linecap:round; stroke-linejoin:round; stroke-width:4; stroke-opacity:0.5; fill:none" points="396.699,228.358 327.485,235.41 377.553,234.707 434.115,272.75 531.865,333.185 600.824,395.364 692.011,454.202 781.79,519.851 869.655,586.499 971.795,653.275 1073.59,720.064 1155.46,786.752 1255.02,854.293 1357.54,919.833 1465.03,986.633 "/>
<circle clip-path="url(#clip432)" cx="396.699" cy="228.358" r="18" fill="#009af9" fill-rule="evenodd" fill-opacity="1" stroke="#000000" stroke-opacity="1" stroke-width="3.2"/>
<circle clip-path="url(#clip432)" cx="327.485" cy="235.41" r="18" fill="#009af9" fill-rule="evenodd" fill-opacity="1" stroke="#000000" stroke-opacity="1" stroke-width="3.2"/>
<circle clip-path="url(#clip432)" cx="377.553" cy="234.707" r="18" fill="#009af9" fill-rule="evenodd" fill-opacity="1" stroke="#000000" stroke-opacity="1" stroke-width="3.2"/>
<circle clip-path="url(#clip432)" cx="434.115" cy="272.75" r="18" fill="#009af9" fill-rule="evenodd" fill-opacity="1" stroke="#000000" stroke-opacity="1" stroke-width="3.2"/>
<circle clip-path="url(#clip432)" cx="531.865" cy="333.185" r="18" fill="#009af9" fill-rule="evenodd" fill-opacity="1" stroke="#000000" stroke-opacity="1" stroke-width="3.2"/>
<circle clip-path="url(#clip432)" cx="600.824" cy="395.364" r="18" fill="#009af9" fill-rule="evenodd" fill-opacity="1" stroke="#000000" stroke-opacity="1" stroke-width="3.2"/>
<circle clip-path="url(#clip432)" cx="692.011" cy="454.202" r="18" fill="#009af9" fill-rule="evenodd" fill-opacity="1" stroke="#000000" stroke-opacity="1" stroke-width="3.2"/>
<circle clip-path="url(#clip432)" cx="781.79" cy="519.851" r="18" fill="#009af9" fill-rule="evenodd" fill-opacity="1" stroke="#000000" stroke-opacity="1" stroke-width="3.2"/>
<circle clip-path="url(#clip432)" cx="869.655" cy="586.499" r="18" fill="#009af9" fill-rule="evenodd" fill-opacity="1" stroke="#000000" stroke-opacity="1" stroke-width="3.2"/>
<circle clip-path="url(#clip432)" cx="971.795" cy="653.275" r="18" fill="#009af9" fill-rule="evenodd" fill-opacity="1" stroke="#000000" stroke-opacity="1" stroke-width="3.2"/>
<circle clip-path="url(#clip432)" cx="1073.59" cy="720.064" r="18" fill="#009af9" fill-rule="evenodd" fill-opacity="1" stroke="#000000" stroke-opacity="1" stroke-width="3.2"/>
<circle clip-path="url(#clip432)" cx="1155.46" cy="786.752" r="18" fill="#009af9" fill-rule="evenodd" fill-opacity="1" stroke="#000000" stroke-opacity="1" stroke-width="3.2"/>
<circle clip-path="url(#clip432)" cx="1255.02" cy="854.293" r="18" fill="#009af9" fill-rule="evenodd" fill-opacity="1" stroke="#000000" stroke-opacity="1" stroke-width="3.2"/>
<circle clip-path="url(#clip432)" cx="1357.54" cy="919.833" r="18" fill="#009af9" fill-rule="evenodd" fill-opacity="1" stroke="#000000" stroke-opacity="1" stroke-width="3.2"/>
<circle clip-path="url(#clip432)" cx="1465.03" cy="986.633" r="18" fill="#009af9" fill-rule="evenodd" fill-opacity="1" stroke="#000000" stroke-opacity="1" stroke-width="3.2"/>
<polyline clip-path="url(#clip432)" style="stroke:#e26f46; stroke-linecap:round; stroke-linejoin:round; stroke-width:4; stroke-opacity:0.5; fill:none" points="380.475,292.134 482.842,324.74 576.972,421.254 642.549,512.426 689.071,566.603 782.071,691.747 793.783,822.161 879.835,955.206 967.122,1088.74 1074.47,1199.85 1164.12,1123.27 1244.98,1060.97 1350.45,1079.32 1457.82,1136.16 1564.35,1202.96 "/>
<circle clip-path="url(#clip432)" cx="380.475" cy="292.134" r="18" fill="#e26f46" fill-rule="evenodd" fill-opacity="1" stroke="#000000" stroke-opacity="1" stroke-width="3.2"/>
<circle clip-path="url(#clip432)" cx="482.842" cy="324.74" r="18" fill="#e26f46" fill-rule="evenodd" fill-opacity="1" stroke="#000000" stroke-opacity="1" stroke-width="3.2"/>
<circle clip-path="url(#clip432)" cx="576.972" cy="421.254" r="18" fill="#e26f46" fill-rule="evenodd" fill-opacity="1" stroke="#000000" stroke-opacity="1" stroke-width="3.2"/>
<circle clip-path="url(#clip432)" cx="642.549" cy="512.426" r="18" fill="#e26f46" fill-rule="evenodd" fill-opacity="1" stroke="#000000" stroke-opacity="1" stroke-width="3.2"/>
<circle clip-path="url(#clip432)" cx="689.071" cy="566.603" r="18" fill="#e26f46" fill-rule="evenodd" fill-opacity="1" stroke="#000000" stroke-opacity="1" stroke-width="3.2"/>
<circle clip-path="url(#clip432)" cx="782.071" cy="691.747" r="18" fill="#e26f46" fill-rule="evenodd" fill-opacity="1" stroke="#000000" stroke-opacity="1" stroke-width="3.2"/>
<circle clip-path="url(#clip432)" cx="793.783" cy="822.161" r="18" fill="#e26f46" fill-rule="evenodd" fill-opacity="1" stroke="#000000" stroke-opacity="1" stroke-width="3.2"/>
<circle clip-path="url(#clip432)" cx="879.835" cy="955.206" r="18" fill="#e26f46" fill-rule="evenodd" fill-opacity="1" stroke="#000000" stroke-opacity="1" stroke-width="3.2"/>
<circle clip-path="url(#clip432)" cx="967.122" cy="1088.74" r="18" fill="#e26f46" fill-rule="evenodd" fill-opacity="1" stroke="#000000" stroke-opacity="1" stroke-width="3.2"/>
<circle clip-path="url(#clip432)" cx="1074.47" cy="1199.85" r="18" fill="#e26f46" fill-rule="evenodd" fill-opacity="1" stroke="#000000" stroke-opacity="1" stroke-width="3.2"/>
<circle clip-path="url(#clip432)" cx="1164.12" cy="1123.27" r="18" fill="#e26f46" fill-rule="evenodd" fill-opacity="1" stroke="#000000" stroke-opacity="1" stroke-width="3.2"/>
<circle clip-path="url(#clip432)" cx="1244.98" cy="1060.97" r="18" fill="#e26f46" fill-rule="evenodd" fill-opacity="1" stroke="#000000" stroke-opacity="1" stroke-width="3.2"/>
<circle clip-path="url(#clip432)" cx="1350.45" cy="1079.32" r="18" fill="#e26f46" fill-rule="evenodd" fill-opacity="1" stroke="#000000" stroke-opacity="1" stroke-width="3.2"/>
<circle clip-path="url(#clip432)" cx="1457.82" cy="1136.16" r="18" fill="#e26f46" fill-rule="evenodd" fill-opacity="1" stroke="#000000" stroke-opacity="1" stroke-width="3.2"/>
<circle clip-path="url(#clip432)" cx="1564.35" cy="1202.96" r="18" fill="#e26f46" fill-rule="evenodd" fill-opacity="1" stroke="#000000" stroke-opacity="1" stroke-width="3.2"/>
<polyline clip-path="url(#clip432)" style="stroke:#3da44d; stroke-linecap:round; stroke-linejoin:round; stroke-width:4; stroke-opacity:0.5; fill:none" points="491.604,369.833 616.279,494.235 742.329,586.747 822.991,636.959 851.751,811.931 835.851,985.261 871.961,1182.24 960.185,1280.3 1045.67,1272.08 1152.13,1282.04 1241.95,1192.5 1322.88,1130.09 1428.31,1148.44 1535.49,1205.32 1641.62,1272.11 "/>
<circle clip-path="url(#clip432)" cx="491.604" cy="369.833" r="18" fill="#3da44d" fill-rule="evenodd" fill-opacity="1" stroke="#000000" stroke-opacity="1" stroke-width="3.2"/>
<circle clip-path="url(#clip432)" cx="616.279" cy="494.235" r="18" fill="#3da44d" fill-rule="evenodd" fill-opacity="1" stroke="#000000" stroke-opacity="1" stroke-width="3.2"/>
<circle clip-path="url(#clip432)" cx="742.329" cy="586.747" r="18" fill="#3da44d" fill-rule="evenodd" fill-opacity="1" stroke="#000000" stroke-opacity="1" stroke-width="3.2"/>
<circle clip-path="url(#clip432)" cx="822.991" cy="636.959" r="18" fill="#3da44d" fill-rule="evenodd" fill-opacity="1" stroke="#000000" stroke-opacity="1" stroke-width="3.2"/>
<circle clip-path="url(#clip432)" cx="851.751" cy="811.931" r="18" fill="#3da44d" fill-rule="evenodd" fill-opacity="1" stroke="#000000" stroke-opacity="1" stroke-width="3.2"/>
<circle clip-path="url(#clip432)" cx="835.851" cy="985.261" r="18" fill="#3da44d" fill-rule="evenodd" fill-opacity="1" stroke="#000000" stroke-opacity="1" stroke-width="3.2"/>
<circle clip-path="url(#clip432)" cx="871.961" cy="1182.24" r="18" fill="#3da44d" fill-rule="evenodd" fill-opacity="1" stroke="#000000" stroke-opacity="1" stroke-width="3.2"/>
<circle clip-path="url(#clip432)" cx="960.185" cy="1280.3" r="18" fill="#3da44d" fill-rule="evenodd" fill-opacity="1" stroke="#000000" stroke-opacity="1" stroke-width="3.2"/>
<circle clip-path="url(#clip432)" cx="1045.67" cy="1272.08" r="18" fill="#3da44d" fill-rule="evenodd" fill-opacity="1" stroke="#000000" stroke-opacity="1" stroke-width="3.2"/>
<circle clip-path="url(#clip432)" cx="1152.13" cy="1282.04" r="18" fill="#3da44d" fill-rule="evenodd" fill-opacity="1" stroke="#000000" stroke-opacity="1" stroke-width="3.2"/>
<circle clip-path="url(#clip432)" cx="1241.95" cy="1192.5" r="18" fill="#3da44d" fill-rule="evenodd" fill-opacity="1" stroke="#000000" stroke-opacity="1" stroke-width="3.2"/>
<circle clip-path="url(#clip432)" cx="1322.88" cy="1130.09" r="18" fill="#3da44d" fill-rule="evenodd" fill-opacity="1" stroke="#000000" stroke-opacity="1" stroke-width="3.2"/>
<circle clip-path="url(#clip432)" cx="1428.31" cy="1148.44" r="18" fill="#3da44d" fill-rule="evenodd" fill-opacity="1" stroke="#000000" stroke-opacity="1" stroke-width="3.2"/>
<circle clip-path="url(#clip432)" cx="1535.49" cy="1205.32" r="18" fill="#3da44d" fill-rule="evenodd" fill-opacity="1" stroke="#000000" stroke-opacity="1" stroke-width="3.2"/>
<circle clip-path="url(#clip432)" cx="1641.62" cy="1272.11" r="18" fill="#3da44d" fill-rule="evenodd" fill-opacity="1" stroke="#000000" stroke-opacity="1" stroke-width="3.2"/>
<polyline clip-path="url(#clip432)" style="stroke:#c271d2; stroke-linecap:round; stroke-linejoin:round; stroke-width:4; stroke-opacity:0.5; fill:none" points="580.205,492.773 705.318,623.794 811.619,659.326 893.438,845.582 919.315,1012.1 899.286,1264.06 935.339,1386.4 1023.44,1351.05 1109.27,1340.08 1214.86,1348.69 1306.21,1259.88 1387.92,1197.46 1492.09,1215.81 1601.5,1272.69 1708.56,1339.48 "/>
<circle clip-path="url(#clip432)" cx="580.205" cy="492.773" r="18" fill="#c271d2" fill-rule="evenodd" fill-opacity="1" stroke="#000000" stroke-opacity="1" stroke-width="3.2"/>
<circle clip-path="url(#clip432)" cx="705.318" cy="623.794" r="18" fill="#c271d2" fill-rule="evenodd" fill-opacity="1" stroke="#000000" stroke-opacity="1" stroke-width="3.2"/>
<circle clip-path="url(#clip432)" cx="811.619" cy="659.326" r="18" fill="#c271d2" fill-rule="evenodd" fill-opacity="1" stroke="#000000" stroke-opacity="1" stroke-width="3.2"/>
<circle clip-path="url(#clip432)" cx="893.438" cy="845.582" r="18" fill="#c271d2" fill-rule="evenodd" fill-opacity="1" stroke="#000000" stroke-opacity="1" stroke-width="3.2"/>
<circle clip-path="url(#clip432)" cx="919.315" cy="1012.1" r="18" fill="#c271d2" fill-rule="evenodd" fill-opacity="1" stroke="#000000" stroke-opacity="1" stroke-width="3.2"/>
<circle clip-path="url(#clip432)" cx="899.286" cy="1264.06" r="18" fill="#c271d2" fill-rule="evenodd" fill-opacity="1" stroke="#000000" stroke-opacity="1" stroke-width="3.2"/>
<circle clip-path="url(#clip432)" cx="935.339" cy="1386.4" r="18" fill="#c271d2" fill-rule="evenodd" fill-opacity="1" stroke="#000000" stroke-opacity="1" stroke-width="3.2"/>
<circle clip-path="url(#clip432)" cx="1023.44" cy="1351.05" r="18" fill="#c271d2" fill-rule="evenodd" fill-opacity="1" stroke="#000000" stroke-opacity="1" stroke-width="3.2"/>
<circle clip-path="url(#clip432)" cx="1109.27" cy="1340.08" r="18" fill="#c271d2" fill-rule="evenodd" fill-opacity="1" stroke="#000000" stroke-opacity="1" stroke-width="3.2"/>
<circle clip-path="url(#clip432)" cx="1214.86" cy="1348.69" r="18" fill="#c271d2" fill-rule="evenodd" fill-opacity="1" stroke="#000000" stroke-opacity="1" stroke-width="3.2"/>
<circle clip-path="url(#clip432)" cx="1306.21" cy="1259.88" r="18" fill="#c271d2" fill-rule="evenodd" fill-opacity="1" stroke="#000000" stroke-opacity="1" stroke-width="3.2"/>
<circle clip-path="url(#clip432)" cx="1387.92" cy="1197.46" r="18" fill="#c271d2" fill-rule="evenodd" fill-opacity="1" stroke="#000000" stroke-opacity="1" stroke-width="3.2"/>
<circle clip-path="url(#clip432)" cx="1492.09" cy="1215.81" r="18" fill="#c271d2" fill-rule="evenodd" fill-opacity="1" stroke="#000000" stroke-opacity="1" stroke-width="3.2"/>
<circle clip-path="url(#clip432)" cx="1601.5" cy="1272.69" r="18" fill="#c271d2" fill-rule="evenodd" fill-opacity="1" stroke="#000000" stroke-opacity="1" stroke-width="3.2"/>
<circle clip-path="url(#clip432)" cx="1708.56" cy="1339.48" r="18" fill="#c271d2" fill-rule="evenodd" fill-opacity="1" stroke="#000000" stroke-opacity="1" stroke-width="3.2"/>
<polyline clip-path="url(#clip432)" style="stroke:#ff0000; stroke-linecap:round; stroke-linejoin:round; stroke-width:4; stroke-opacity:1; fill:none" points="286.053,936.922 1749.99,936.922 "/>
<polyline clip-path="url(#clip432)" style="stroke:#000000; stroke-linecap:round; stroke-linejoin:round; stroke-width:4; stroke-opacity:0.5; fill:none" points="305.748,227.056 345.131,227.056 322.233,227.056 303.591,227.056 390.718,227.056 485.027,160.256 589.57,160.256 685.439,556.759 786.714,623.578 888.336,690.387 993.912,757.19 1100.37,823.99 1206.77,890.79 1312.85,957.59 1420.12,1024.39 "/>
<path clip-path="url(#clip432)" d="M305.748 207.056 L301.048 220.576 L286.728 220.876 L298.148 229.536 L293.988 243.236 L305.748 235.056 L317.508 243.236 L313.348 229.536 L324.768 220.876 L310.448 220.576 L305.748 207.056 Z" fill="#000000" fill-rule="evenodd" fill-opacity="1" stroke="none"/>
<path clip-path="url(#clip432)" d="M345.131 207.056 L340.431 220.576 L326.111 220.876 L337.531 229.536 L333.371 243.236 L345.131 235.056 L356.891 243.236 L352.731 229.536 L364.151 220.876 L349.831 220.576 L345.131 207.056 Z" fill="#000000" fill-rule="evenodd" fill-opacity="1" stroke="none"/>
<path clip-path="url(#clip432)" d="M322.233 207.056 L317.533 220.576 L303.213 220.876 L314.633 229.536 L310.473 243.236 L322.233 235.056 L333.993 243.236 L329.833 229.536 L341.253 220.876 L326.933 220.576 L322.233 207.056 Z" fill="#000000" fill-rule="evenodd" fill-opacity="1" stroke="none"/>
<path clip-path="url(#clip432)" d="M303.591 207.056 L298.891 220.576 L284.571 220.876 L295.991 229.536 L291.831 243.236 L303.591 235.056 L315.351 243.236 L311.191 229.536 L322.611 220.876 L308.291 220.576 L303.591 207.056 Z" fill="#000000" fill-rule="evenodd" fill-opacity="1" stroke="none"/>
<path clip-path="url(#clip432)" d="M390.718 207.056 L386.018 220.576 L371.698 220.876 L383.118 229.536 L378.958 243.236 L390.718 235.056 L402.478 243.236 L398.318 229.536 L409.738 220.876 L395.418 220.576 L390.718 207.056 Z" fill="#000000" fill-rule="evenodd" fill-opacity="1" stroke="none"/>
<path clip-path="url(#clip432)" d="M485.027 140.256 L480.327 153.776 L466.007 154.076 L477.427 162.736 L473.267 176.436 L485.027 168.256 L496.787 176.436 L492.627 162.736 L504.047 154.076 L489.727 153.776 L485.027 140.256 Z" fill="#000000" fill-rule="evenodd" fill-opacity="1" stroke="none"/>
<path clip-path="url(#clip432)" d="M589.57 140.256 L584.87 153.776 L570.55 154.076 L581.97 162.736 L577.81 176.436 L589.57 168.256 L601.33 176.436 L597.17 162.736 L608.59 154.076 L594.27 153.776 L589.57 140.256 Z" fill="#000000" fill-rule="evenodd" fill-opacity="1" stroke="none"/>
<path clip-path="url(#clip432)" d="M685.439 536.759 L680.739 550.279 L666.419 550.579 L677.839 559.239 L673.679 572.939 L685.439 564.759 L697.199 572.939 L693.039 559.239 L704.459 550.579 L690.139 550.279 L685.439 536.759 Z" fill="#000000" fill-rule="evenodd" fill-opacity="1" stroke="none"/>
<path clip-path="url(#clip432)" d="M786.714 603.578 L782.014 617.098 L767.694 617.398 L779.114 626.058 L774.954 639.758 L786.714 631.578 L798.474 639.758 L794.314 626.058 L805.734 617.398 L791.414 617.098 L786.714 603.578 Z" fill="#000000" fill-rule="evenodd" fill-opacity="1" stroke="none"/>
<path clip-path="url(#clip432)" d="M888.336 670.387 L883.636 683.907 L869.316 684.207 L880.736 692.867 L876.576 706.567 L888.336 698.387 L900.096 706.567 L895.936 692.867 L907.356 684.207 L893.036 683.907 L888.336 670.387 Z" fill="#000000" fill-rule="evenodd" fill-opacity="1" stroke="none"/>
<path clip-path="url(#clip432)" d="M993.912 737.19 L989.212 750.71 L974.892 751.01 L986.312 759.67 L982.152 773.37 L993.912 765.19 L1005.67 773.37 L1001.51 759.67 L1012.93 751.01 L998.612 750.71 L993.912 737.19 Z" fill="#000000" fill-rule="evenodd" fill-opacity="1" stroke="none"/>
<path clip-path="url(#clip432)" d="M1100.37 803.99 L1095.67 817.51 L1081.35 817.81 L1092.77 826.47 L1088.61 840.17 L1100.37 831.99 L1112.13 840.17 L1107.97 826.47 L1119.39 817.81 L1105.07 817.51 L1100.37 803.99 Z" fill="#000000" fill-rule="evenodd" fill-opacity="1" stroke="none"/>
<path clip-path="url(#clip432)" d="M1206.77 870.79 L1202.07 884.31 L1187.75 884.61 L1199.17 893.27 L1195.01 906.97 L1206.77 898.79 L1218.53 906.97 L1214.37 893.27 L1225.79 884.61 L1211.47 884.31 L1206.77 870.79 Z" fill="#000000" fill-rule="evenodd" fill-opacity="1" stroke="none"/>
<path clip-path="url(#clip432)" d="M1312.85 937.59 L1308.15 951.11 L1293.83 951.41 L1305.25 960.07 L1301.09 973.77 L1312.85 965.59 L1324.61 973.77 L1320.45 960.07 L1331.87 951.41 L1317.55 951.11 L1312.85 937.59 Z" fill="#000000" fill-rule="evenodd" fill-opacity="1" stroke="none"/>
<path clip-path="url(#clip432)" d="M1420.12 1004.39 L1415.42 1017.91 L1401.1 1018.21 L1412.52 1026.87 L1408.36 1040.57 L1420.12 1032.39 L1431.88 1040.57 L1427.72 1026.87 L1439.14 1018.21 L1424.82 1017.91 L1420.12 1004.39 Z" fill="#000000" fill-rule="evenodd" fill-opacity="1" stroke="none"/>
<path clip-path="url(#clip430)" d="M1864.26 972.17 L2352.76 972.17 L2352.76 609.29 L1864.26 609.29  Z" fill="#ffffff" fill-rule="evenodd" fill-opacity="1"/>
<polyline clip-path="url(#clip430)" style="stroke:#000000; stroke-linecap:round; stroke-linejoin:round; stroke-width:4; stroke-opacity:1; fill:none" points="1864.26,972.17 2352.76,972.17 2352.76,609.29 1864.26,609.29 1864.26,972.17 "/>
<polyline clip-path="url(#clip430)" style="stroke:#009af9; stroke-linecap:round; stroke-linejoin:round; stroke-width:4; stroke-opacity:0.5; fill:none" points="1887.72,661.13 2028.42,661.13 "/>
<circle clip-path="url(#clip430)" cx="1958.07" cy="661.13" r="19.5428" fill="#009af9" fill-rule="evenodd" fill-opacity="1" stroke="#000000" stroke-opacity="1" stroke-width="3.72364"/>
<path clip-path="url(#clip430)" d="M2051.88 643.85 L2056.55 643.85 L2056.55 658.016 L2073.54 658.016 L2073.54 643.85 L2078.22 643.85 L2078.22 678.41 L2073.54 678.41 L2073.54 661.951 L2056.55 661.951 L2056.55 678.41 L2051.88 678.41 L2051.88 643.85 Z" fill="#000000" fill-rule="nonzero" fill-opacity="1" /><path clip-path="url(#clip430)" d="M2109.51 664.382 L2109.51 666.465 L2089.93 666.465 Q2090.21 670.863 2092.57 673.178 Q2094.95 675.47 2099.19 675.47 Q2101.64 675.47 2103.94 674.868 Q2106.25 674.266 2108.52 673.062 L2108.52 677.09 Q2106.23 678.062 2103.82 678.572 Q2101.41 679.081 2098.94 679.081 Q2092.73 679.081 2089.1 675.47 Q2085.49 671.859 2085.49 665.701 Q2085.49 659.336 2088.91 655.609 Q2092.36 651.859 2098.19 651.859 Q2103.43 651.859 2106.46 655.238 Q2109.51 658.595 2109.51 664.382 M2105.25 663.132 Q2105.21 659.637 2103.29 657.553 Q2101.39 655.47 2098.24 655.47 Q2094.68 655.47 2092.52 657.484 Q2090.39 659.498 2090.07 663.155 L2105.25 663.132 Z" fill="#000000" fill-rule="nonzero" fill-opacity="1" /><path clip-path="url(#clip430)" d="M2131.53 656.465 Q2130.81 656.049 2129.95 655.863 Q2129.12 655.655 2128.1 655.655 Q2124.49 655.655 2122.55 658.016 Q2120.63 660.354 2120.63 664.752 L2120.63 678.41 L2116.34 678.41 L2116.34 652.484 L2120.63 652.484 L2120.63 656.512 Q2121.97 654.15 2124.12 653.016 Q2126.27 651.859 2129.35 651.859 Q2129.79 651.859 2130.32 651.928 Q2130.86 651.975 2131.5 652.09 L2131.53 656.465 Z" fill="#000000" fill-rule="nonzero" fill-opacity="1" /><path clip-path="url(#clip430)" d="M2155.35 657.461 Q2156.94 654.59 2159.17 653.225 Q2161.39 651.859 2164.4 651.859 Q2168.45 651.859 2170.65 654.706 Q2172.85 657.53 2172.85 662.762 L2172.85 678.41 L2168.56 678.41 L2168.56 662.9 Q2168.56 659.174 2167.25 657.368 Q2165.93 655.562 2163.22 655.562 Q2159.91 655.562 2157.99 657.762 Q2156.06 659.961 2156.06 663.757 L2156.06 678.41 L2151.78 678.41 L2151.78 662.9 Q2151.78 659.15 2150.46 657.368 Q2149.14 655.562 2146.39 655.562 Q2143.13 655.562 2141.2 657.785 Q2139.28 659.984 2139.28 663.757 L2139.28 678.41 L2135 678.41 L2135 652.484 L2139.28 652.484 L2139.28 656.512 Q2140.74 654.127 2142.78 652.993 Q2144.81 651.859 2147.62 651.859 Q2150.44 651.859 2152.41 653.294 Q2154.4 654.729 2155.35 657.461 Z" fill="#000000" fill-rule="nonzero" fill-opacity="1" /><path clip-path="url(#clip430)" d="M2181.34 652.484 L2185.6 652.484 L2185.6 678.41 L2181.34 678.41 L2181.34 652.484 M2181.34 642.391 L2185.6 642.391 L2185.6 647.785 L2181.34 647.785 L2181.34 642.391 Z" fill="#000000" fill-rule="nonzero" fill-opacity="1" /><path clip-path="url(#clip430)" d="M2198.73 645.123 L2198.73 652.484 L2207.5 652.484 L2207.5 655.794 L2198.73 655.794 L2198.73 669.868 Q2198.73 673.039 2199.58 673.942 Q2200.46 674.845 2203.12 674.845 L2207.5 674.845 L2207.5 678.41 L2203.12 678.41 Q2198.19 678.41 2196.32 676.581 Q2194.44 674.729 2194.44 669.868 L2194.44 655.794 L2191.32 655.794 L2191.32 652.484 L2194.44 652.484 L2194.44 645.123 L2198.73 645.123 Z" fill="#000000" fill-rule="nonzero" fill-opacity="1" /><path clip-path="url(#clip430)" d="M2235.28 664.382 L2235.28 666.465 L2215.69 666.465 Q2215.97 670.863 2218.33 673.178 Q2220.72 675.47 2224.95 675.47 Q2227.41 675.47 2229.7 674.868 Q2232.01 674.266 2234.28 673.062 L2234.28 677.09 Q2231.99 678.062 2229.58 678.572 Q2227.18 679.081 2224.7 679.081 Q2218.49 679.081 2214.86 675.47 Q2211.25 671.859 2211.25 665.701 Q2211.25 659.336 2214.68 655.609 Q2218.12 651.859 2223.96 651.859 Q2229.19 651.859 2232.22 655.238 Q2235.28 658.595 2235.28 664.382 M2231.02 663.132 Q2230.97 659.637 2229.05 657.553 Q2227.15 655.47 2224 655.47 Q2220.44 655.47 2218.29 657.484 Q2216.16 659.498 2215.83 663.155 L2231.02 663.132 Z" fill="#000000" fill-rule="nonzero" fill-opacity="1" /><path clip-path="url(#clip430)" d="M2240.12 663.525 L2252.59 663.525 L2252.59 667.322 L2240.12 667.322 L2240.12 663.525 Z" fill="#000000" fill-rule="nonzero" fill-opacity="1" /><path clip-path="url(#clip430)" d="M2264 674.474 L2280.32 674.474 L2280.32 678.41 L2258.38 678.41 L2258.38 674.474 Q2261.04 671.72 2265.62 667.09 Q2270.23 662.437 2271.41 661.095 Q2273.66 658.572 2274.54 656.836 Q2275.44 655.076 2275.44 653.387 Q2275.44 650.632 2273.49 648.896 Q2271.57 647.16 2268.47 647.16 Q2266.27 647.16 2263.82 647.924 Q2261.39 648.688 2258.61 650.238 L2258.61 645.516 Q2261.43 644.382 2263.89 643.803 Q2266.34 643.225 2268.38 643.225 Q2273.75 643.225 2276.94 645.91 Q2280.14 648.595 2280.14 653.086 Q2280.14 655.215 2279.33 657.137 Q2278.54 659.035 2276.43 661.627 Q2275.86 662.299 2272.75 665.516 Q2269.65 668.711 2264 674.474 Z" fill="#000000" fill-rule="nonzero" fill-opacity="1" /><polyline clip-path="url(#clip430)" style="stroke:#e26f46; stroke-linecap:round; stroke-linejoin:round; stroke-width:4; stroke-opacity:0.5; fill:none" points="1887.72,712.97 2028.42,712.97 "/>
<circle clip-path="url(#clip430)" cx="1958.07" cy="712.97" r="19.5428" fill="#e26f46" fill-rule="evenodd" fill-opacity="1" stroke="#000000" stroke-opacity="1" stroke-width="3.72364"/>
<path clip-path="url(#clip430)" d="M2051.88 695.69 L2056.55 695.69 L2056.55 709.856 L2073.54 709.856 L2073.54 695.69 L2078.22 695.69 L2078.22 730.25 L2073.54 730.25 L2073.54 713.791 L2056.55 713.791 L2056.55 730.25 L2051.88 730.25 L2051.88 695.69 Z" fill="#000000" fill-rule="nonzero" fill-opacity="1" /><path clip-path="url(#clip430)" d="M2109.51 716.222 L2109.51 718.305 L2089.93 718.305 Q2090.21 722.703 2092.57 725.018 Q2094.95 727.31 2099.19 727.31 Q2101.64 727.31 2103.94 726.708 Q2106.25 726.106 2108.52 724.902 L2108.52 728.93 Q2106.23 729.902 2103.82 730.412 Q2101.41 730.921 2098.94 730.921 Q2092.73 730.921 2089.1 727.31 Q2085.49 723.699 2085.49 717.541 Q2085.49 711.176 2088.91 707.449 Q2092.36 703.699 2098.19 703.699 Q2103.43 703.699 2106.46 707.078 Q2109.51 710.435 2109.51 716.222 M2105.25 714.972 Q2105.21 711.477 2103.29 709.393 Q2101.39 707.31 2098.24 707.31 Q2094.68 707.31 2092.52 709.324 Q2090.39 711.338 2090.07 714.995 L2105.25 714.972 Z" fill="#000000" fill-rule="nonzero" fill-opacity="1" /><path clip-path="url(#clip430)" d="M2131.53 708.305 Q2130.81 707.889 2129.95 707.703 Q2129.12 707.495 2128.1 707.495 Q2124.49 707.495 2122.55 709.856 Q2120.63 712.194 2120.63 716.592 L2120.63 730.25 L2116.34 730.25 L2116.34 704.324 L2120.63 704.324 L2120.63 708.352 Q2121.97 705.99 2124.12 704.856 Q2126.27 703.699 2129.35 703.699 Q2129.79 703.699 2130.32 703.768 Q2130.86 703.815 2131.5 703.93 L2131.53 708.305 Z" fill="#000000" fill-rule="nonzero" fill-opacity="1" /><path clip-path="url(#clip430)" d="M2155.35 709.301 Q2156.94 706.43 2159.17 705.065 Q2161.39 703.699 2164.4 703.699 Q2168.45 703.699 2170.65 706.546 Q2172.85 709.37 2172.85 714.602 L2172.85 730.25 L2168.56 730.25 L2168.56 714.74 Q2168.56 711.014 2167.25 709.208 Q2165.93 707.402 2163.22 707.402 Q2159.91 707.402 2157.99 709.602 Q2156.06 711.801 2156.06 715.597 L2156.06 730.25 L2151.78 730.25 L2151.78 714.74 Q2151.78 710.99 2150.46 709.208 Q2149.14 707.402 2146.39 707.402 Q2143.13 707.402 2141.2 709.625 Q2139.28 711.824 2139.28 715.597 L2139.28 730.25 L2135 730.25 L2135 704.324 L2139.28 704.324 L2139.28 708.352 Q2140.74 705.967 2142.78 704.833 Q2144.81 703.699 2147.62 703.699 Q2150.44 703.699 2152.41 705.134 Q2154.4 706.569 2155.35 709.301 Z" fill="#000000" fill-rule="nonzero" fill-opacity="1" /><path clip-path="url(#clip430)" d="M2181.34 704.324 L2185.6 704.324 L2185.6 730.25 L2181.34 730.25 L2181.34 704.324 M2181.34 694.231 L2185.6 694.231 L2185.6 699.625 L2181.34 699.625 L2181.34 694.231 Z" fill="#000000" fill-rule="nonzero" fill-opacity="1" /><path clip-path="url(#clip430)" d="M2198.73 696.963 L2198.73 704.324 L2207.5 704.324 L2207.5 707.634 L2198.73 707.634 L2198.73 721.708 Q2198.73 724.879 2199.58 725.782 Q2200.46 726.685 2203.12 726.685 L2207.5 726.685 L2207.5 730.25 L2203.12 730.25 Q2198.19 730.25 2196.32 728.421 Q2194.44 726.569 2194.44 721.708 L2194.44 707.634 L2191.32 707.634 L2191.32 704.324 L2194.44 704.324 L2194.44 696.963 L2198.73 696.963 Z" fill="#000000" fill-rule="nonzero" fill-opacity="1" /><path clip-path="url(#clip430)" d="M2235.28 716.222 L2235.28 718.305 L2215.69 718.305 Q2215.97 722.703 2218.33 725.018 Q2220.72 727.31 2224.95 727.31 Q2227.41 727.31 2229.7 726.708 Q2232.01 726.106 2234.28 724.902 L2234.28 728.93 Q2231.99 729.902 2229.58 730.412 Q2227.18 730.921 2224.7 730.921 Q2218.49 730.921 2214.86 727.31 Q2211.25 723.699 2211.25 717.541 Q2211.25 711.176 2214.68 707.449 Q2218.12 703.699 2223.96 703.699 Q2229.19 703.699 2232.22 707.078 Q2235.28 710.435 2235.28 716.222 M2231.02 714.972 Q2230.97 711.477 2229.05 709.393 Q2227.15 707.31 2224 707.31 Q2220.44 707.31 2218.29 709.324 Q2216.16 711.338 2215.83 714.995 L2231.02 714.972 Z" fill="#000000" fill-rule="nonzero" fill-opacity="1" /><path clip-path="url(#clip430)" d="M2240.12 715.365 L2252.59 715.365 L2252.59 719.162 L2240.12 719.162 L2240.12 715.365 Z" fill="#000000" fill-rule="nonzero" fill-opacity="1" /><path clip-path="url(#clip430)" d="M2272.82 699.764 L2261.02 718.213 L2272.82 718.213 L2272.82 699.764 M2271.6 695.69 L2277.48 695.69 L2277.48 718.213 L2282.41 718.213 L2282.41 722.101 L2277.48 722.101 L2277.48 730.25 L2272.82 730.25 L2272.82 722.101 L2257.22 722.101 L2257.22 717.588 L2271.6 695.69 Z" fill="#000000" fill-rule="nonzero" fill-opacity="1" /><polyline clip-path="url(#clip430)" style="stroke:#3da44d; stroke-linecap:round; stroke-linejoin:round; stroke-width:4; stroke-opacity:0.5; fill:none" points="1887.72,764.81 2028.42,764.81 "/>
<circle clip-path="url(#clip430)" cx="1958.07" cy="764.81" r="19.5428" fill="#3da44d" fill-rule="evenodd" fill-opacity="1" stroke="#000000" stroke-opacity="1" stroke-width="3.72364"/>
<path clip-path="url(#clip430)" d="M2051.88 747.53 L2056.55 747.53 L2056.55 761.696 L2073.54 761.696 L2073.54 747.53 L2078.22 747.53 L2078.22 782.09 L2073.54 782.09 L2073.54 765.631 L2056.55 765.631 L2056.55 782.09 L2051.88 782.09 L2051.88 747.53 Z" fill="#000000" fill-rule="nonzero" fill-opacity="1" /><path clip-path="url(#clip430)" d="M2109.51 768.062 L2109.51 770.145 L2089.93 770.145 Q2090.21 774.543 2092.57 776.858 Q2094.95 779.15 2099.19 779.15 Q2101.64 779.15 2103.94 778.548 Q2106.25 777.946 2108.52 776.742 L2108.52 780.77 Q2106.23 781.742 2103.82 782.252 Q2101.41 782.761 2098.94 782.761 Q2092.73 782.761 2089.1 779.15 Q2085.49 775.539 2085.49 769.381 Q2085.49 763.016 2088.91 759.289 Q2092.36 755.539 2098.19 755.539 Q2103.43 755.539 2106.46 758.918 Q2109.51 762.275 2109.51 768.062 M2105.25 766.812 Q2105.21 763.317 2103.29 761.233 Q2101.39 759.15 2098.24 759.15 Q2094.68 759.15 2092.52 761.164 Q2090.39 763.178 2090.07 766.835 L2105.25 766.812 Z" fill="#000000" fill-rule="nonzero" fill-opacity="1" /><path clip-path="url(#clip430)" d="M2131.53 760.145 Q2130.81 759.729 2129.95 759.543 Q2129.12 759.335 2128.1 759.335 Q2124.49 759.335 2122.55 761.696 Q2120.63 764.034 2120.63 768.432 L2120.63 782.09 L2116.34 782.09 L2116.34 756.164 L2120.63 756.164 L2120.63 760.192 Q2121.97 757.83 2124.12 756.696 Q2126.27 755.539 2129.35 755.539 Q2129.79 755.539 2130.32 755.608 Q2130.86 755.655 2131.5 755.77 L2131.53 760.145 Z" fill="#000000" fill-rule="nonzero" fill-opacity="1" /><path clip-path="url(#clip430)" d="M2155.35 761.141 Q2156.94 758.27 2159.17 756.905 Q2161.39 755.539 2164.4 755.539 Q2168.45 755.539 2170.65 758.386 Q2172.85 761.21 2172.85 766.442 L2172.85 782.09 L2168.56 782.09 L2168.56 766.58 Q2168.56 762.854 2167.25 761.048 Q2165.93 759.242 2163.22 759.242 Q2159.91 759.242 2157.99 761.442 Q2156.06 763.641 2156.06 767.437 L2156.06 782.09 L2151.78 782.09 L2151.78 766.58 Q2151.78 762.83 2150.46 761.048 Q2149.14 759.242 2146.39 759.242 Q2143.13 759.242 2141.2 761.465 Q2139.28 763.664 2139.28 767.437 L2139.28 782.09 L2135 782.09 L2135 756.164 L2139.28 756.164 L2139.28 760.192 Q2140.74 757.807 2142.78 756.673 Q2144.81 755.539 2147.62 755.539 Q2150.44 755.539 2152.41 756.974 Q2154.4 758.409 2155.35 761.141 Z" fill="#000000" fill-rule="nonzero" fill-opacity="1" /><path clip-path="url(#clip430)" d="M2181.34 756.164 L2185.6 756.164 L2185.6 782.09 L2181.34 782.09 L2181.34 756.164 M2181.34 746.071 L2185.6 746.071 L2185.6 751.465 L2181.34 751.465 L2181.34 746.071 Z" fill="#000000" fill-rule="nonzero" fill-opacity="1" /><path clip-path="url(#clip430)" d="M2198.73 748.803 L2198.73 756.164 L2207.5 756.164 L2207.5 759.474 L2198.73 759.474 L2198.73 773.548 Q2198.73 776.719 2199.58 777.622 Q2200.46 778.525 2203.12 778.525 L2207.5 778.525 L2207.5 782.09 L2203.12 782.09 Q2198.19 782.09 2196.32 780.261 Q2194.44 778.409 2194.44 773.548 L2194.44 759.474 L2191.32 759.474 L2191.32 756.164 L2194.44 756.164 L2194.44 748.803 L2198.73 748.803 Z" fill="#000000" fill-rule="nonzero" fill-opacity="1" /><path clip-path="url(#clip430)" d="M2235.28 768.062 L2235.28 770.145 L2215.69 770.145 Q2215.97 774.543 2218.33 776.858 Q2220.72 779.15 2224.95 779.15 Q2227.41 779.15 2229.7 778.548 Q2232.01 777.946 2234.28 776.742 L2234.28 780.77 Q2231.99 781.742 2229.58 782.252 Q2227.18 782.761 2224.7 782.761 Q2218.49 782.761 2214.86 779.15 Q2211.25 775.539 2211.25 769.381 Q2211.25 763.016 2214.68 759.289 Q2218.12 755.539 2223.96 755.539 Q2229.19 755.539 2232.22 758.918 Q2235.28 762.275 2235.28 768.062 M2231.02 766.812 Q2230.97 763.317 2229.05 761.233 Q2227.15 759.15 2224 759.15 Q2220.44 759.15 2218.29 761.164 Q2216.16 763.178 2215.83 766.835 L2231.02 766.812 Z" fill="#000000" fill-rule="nonzero" fill-opacity="1" /><path clip-path="url(#clip430)" d="M2240.12 767.205 L2252.59 767.205 L2252.59 771.002 L2240.12 771.002 L2240.12 767.205 Z" fill="#000000" fill-rule="nonzero" fill-opacity="1" /><path clip-path="url(#clip430)" d="M2270.55 762.946 Q2267.41 762.946 2265.55 765.099 Q2263.73 767.252 2263.73 771.002 Q2263.73 774.729 2265.55 776.904 Q2267.41 779.057 2270.55 779.057 Q2273.7 779.057 2275.53 776.904 Q2277.38 774.729 2277.38 771.002 Q2277.38 767.252 2275.53 765.099 Q2273.7 762.946 2270.55 762.946 M2279.84 748.293 L2279.84 752.553 Q2278.08 751.719 2276.27 751.28 Q2274.49 750.84 2272.73 750.84 Q2268.1 750.84 2265.65 753.965 Q2263.22 757.09 2262.87 763.409 Q2264.24 761.395 2266.3 760.33 Q2268.36 759.242 2270.83 759.242 Q2276.04 759.242 2279.05 762.414 Q2282.08 765.562 2282.08 771.002 Q2282.08 776.326 2278.93 779.543 Q2275.79 782.761 2270.55 782.761 Q2264.56 782.761 2261.39 778.178 Q2258.22 773.571 2258.22 764.844 Q2258.22 756.65 2262.11 751.789 Q2265.99 746.905 2272.55 746.905 Q2274.3 746.905 2276.09 747.252 Q2277.89 747.599 2279.84 748.293 Z" fill="#000000" fill-rule="nonzero" fill-opacity="1" /><polyline clip-path="url(#clip430)" style="stroke:#c271d2; stroke-linecap:round; stroke-linejoin:round; stroke-width:4; stroke-opacity:0.5; fill:none" points="1887.72,816.65 2028.42,816.65 "/>
<circle clip-path="url(#clip430)" cx="1958.07" cy="816.65" r="19.5428" fill="#c271d2" fill-rule="evenodd" fill-opacity="1" stroke="#000000" stroke-opacity="1" stroke-width="3.72364"/>
<path clip-path="url(#clip430)" d="M2051.88 799.37 L2056.55 799.37 L2056.55 813.536 L2073.54 813.536 L2073.54 799.37 L2078.22 799.37 L2078.22 833.93 L2073.54 833.93 L2073.54 817.471 L2056.55 817.471 L2056.55 833.93 L2051.88 833.93 L2051.88 799.37 Z" fill="#000000" fill-rule="nonzero" fill-opacity="1" /><path clip-path="url(#clip430)" d="M2109.51 819.902 L2109.51 821.985 L2089.93 821.985 Q2090.21 826.383 2092.57 828.698 Q2094.95 830.99 2099.19 830.99 Q2101.64 830.99 2103.94 830.388 Q2106.25 829.786 2108.52 828.582 L2108.52 832.61 Q2106.23 833.582 2103.82 834.092 Q2101.41 834.601 2098.94 834.601 Q2092.73 834.601 2089.1 830.99 Q2085.49 827.379 2085.49 821.221 Q2085.49 814.856 2088.91 811.129 Q2092.36 807.379 2098.19 807.379 Q2103.43 807.379 2106.46 810.758 Q2109.51 814.115 2109.51 819.902 M2105.25 818.652 Q2105.21 815.157 2103.29 813.073 Q2101.39 810.99 2098.24 810.99 Q2094.68 810.99 2092.52 813.004 Q2090.39 815.018 2090.07 818.675 L2105.25 818.652 Z" fill="#000000" fill-rule="nonzero" fill-opacity="1" /><path clip-path="url(#clip430)" d="M2131.53 811.985 Q2130.81 811.569 2129.95 811.383 Q2129.12 811.175 2128.1 811.175 Q2124.49 811.175 2122.55 813.536 Q2120.63 815.874 2120.63 820.272 L2120.63 833.93 L2116.34 833.93 L2116.34 808.004 L2120.63 808.004 L2120.63 812.032 Q2121.97 809.67 2124.12 808.536 Q2126.27 807.379 2129.35 807.379 Q2129.79 807.379 2130.32 807.448 Q2130.86 807.495 2131.5 807.61 L2131.53 811.985 Z" fill="#000000" fill-rule="nonzero" fill-opacity="1" /><path clip-path="url(#clip430)" d="M2155.35 812.981 Q2156.94 810.11 2159.17 808.745 Q2161.39 807.379 2164.4 807.379 Q2168.45 807.379 2170.65 810.226 Q2172.85 813.05 2172.85 818.282 L2172.85 833.93 L2168.56 833.93 L2168.56 818.42 Q2168.56 814.694 2167.25 812.888 Q2165.93 811.082 2163.22 811.082 Q2159.91 811.082 2157.99 813.282 Q2156.06 815.481 2156.06 819.277 L2156.06 833.93 L2151.78 833.93 L2151.78 818.42 Q2151.78 814.67 2150.46 812.888 Q2149.14 811.082 2146.39 811.082 Q2143.13 811.082 2141.2 813.305 Q2139.28 815.504 2139.28 819.277 L2139.28 833.93 L2135 833.93 L2135 808.004 L2139.28 808.004 L2139.28 812.032 Q2140.74 809.647 2142.78 808.513 Q2144.81 807.379 2147.62 807.379 Q2150.44 807.379 2152.41 808.814 Q2154.4 810.249 2155.35 812.981 Z" fill="#000000" fill-rule="nonzero" fill-opacity="1" /><path clip-path="url(#clip430)" d="M2181.34 808.004 L2185.6 808.004 L2185.6 833.93 L2181.34 833.93 L2181.34 808.004 M2181.34 797.911 L2185.6 797.911 L2185.6 803.305 L2181.34 803.305 L2181.34 797.911 Z" fill="#000000" fill-rule="nonzero" fill-opacity="1" /><path clip-path="url(#clip430)" d="M2198.73 800.643 L2198.73 808.004 L2207.5 808.004 L2207.5 811.314 L2198.73 811.314 L2198.73 825.388 Q2198.73 828.559 2199.58 829.462 Q2200.46 830.365 2203.12 830.365 L2207.5 830.365 L2207.5 833.93 L2203.12 833.93 Q2198.19 833.93 2196.32 832.101 Q2194.44 830.249 2194.44 825.388 L2194.44 811.314 L2191.32 811.314 L2191.32 808.004 L2194.44 808.004 L2194.44 800.643 L2198.73 800.643 Z" fill="#000000" fill-rule="nonzero" fill-opacity="1" /><path clip-path="url(#clip430)" d="M2235.28 819.902 L2235.28 821.985 L2215.69 821.985 Q2215.97 826.383 2218.33 828.698 Q2220.72 830.99 2224.95 830.99 Q2227.41 830.99 2229.7 830.388 Q2232.01 829.786 2234.28 828.582 L2234.28 832.61 Q2231.99 833.582 2229.58 834.092 Q2227.18 834.601 2224.7 834.601 Q2218.49 834.601 2214.86 830.99 Q2211.25 827.379 2211.25 821.221 Q2211.25 814.856 2214.68 811.129 Q2218.12 807.379 2223.96 807.379 Q2229.19 807.379 2232.22 810.758 Q2235.28 814.115 2235.28 819.902 M2231.02 818.652 Q2230.97 815.157 2229.05 813.073 Q2227.15 810.99 2224 810.99 Q2220.44 810.99 2218.29 813.004 Q2216.16 815.018 2215.83 818.675 L2231.02 818.652 Z" fill="#000000" fill-rule="nonzero" fill-opacity="1" /><path clip-path="url(#clip430)" d="M2240.12 819.045 L2252.59 819.045 L2252.59 822.842 L2240.12 822.842 L2240.12 819.045 Z" fill="#000000" fill-rule="nonzero" fill-opacity="1" /><path clip-path="url(#clip430)" d="M2269.98 817.518 Q2266.64 817.518 2264.72 819.3 Q2262.82 821.082 2262.82 824.207 Q2262.82 827.332 2264.72 829.115 Q2266.64 830.897 2269.98 830.897 Q2273.31 830.897 2275.23 829.115 Q2277.15 827.309 2277.15 824.207 Q2277.15 821.082 2275.23 819.3 Q2273.33 817.518 2269.98 817.518 M2265.3 815.527 Q2262.29 814.786 2260.6 812.726 Q2258.93 810.666 2258.93 807.703 Q2258.93 803.559 2261.87 801.152 Q2264.84 798.745 2269.98 798.745 Q2275.14 798.745 2278.08 801.152 Q2281.02 803.559 2281.02 807.703 Q2281.02 810.666 2279.33 812.726 Q2277.66 814.786 2274.68 815.527 Q2278.05 816.314 2279.93 818.606 Q2281.83 820.897 2281.83 824.207 Q2281.83 829.231 2278.75 831.916 Q2275.69 834.601 2269.98 834.601 Q2264.26 834.601 2261.18 831.916 Q2258.12 829.231 2258.12 824.207 Q2258.12 820.897 2260.02 818.606 Q2261.92 816.314 2265.3 815.527 M2263.59 808.143 Q2263.59 810.828 2265.25 812.332 Q2266.94 813.837 2269.98 813.837 Q2272.99 813.837 2274.68 812.332 Q2276.39 810.828 2276.39 808.143 Q2276.39 805.458 2274.68 803.953 Q2272.99 802.448 2269.98 802.448 Q2266.94 802.448 2265.25 803.953 Q2263.59 805.458 2263.59 808.143 Z" fill="#000000" fill-rule="nonzero" fill-opacity="1" /><polyline clip-path="url(#clip430)" style="stroke:#ff0000; stroke-linecap:round; stroke-linejoin:round; stroke-width:4; stroke-opacity:1; fill:none" points="1887.72,868.49 2028.42,868.49 "/>
<path clip-path="url(#clip430)" d="M2051.88 851.21 L2081.11 851.21 L2081.11 855.145 L2068.84 855.145 L2068.84 885.77 L2064.14 885.77 L2064.14 855.145 L2051.88 855.145 L2051.88 851.21 Z" fill="#000000" fill-rule="nonzero" fill-opacity="1" /><path clip-path="url(#clip430)" d="M2089.38 872.737 Q2084.21 872.737 2082.22 873.918 Q2080.23 875.098 2080.23 877.946 Q2080.23 880.214 2081.71 881.557 Q2083.22 882.876 2085.79 882.876 Q2089.33 882.876 2091.46 880.376 Q2093.61 877.853 2093.61 873.686 L2093.61 872.737 L2089.38 872.737 M2097.87 870.978 L2097.87 885.77 L2093.61 885.77 L2093.61 881.834 Q2092.15 884.196 2089.98 885.33 Q2087.8 886.441 2084.65 886.441 Q2080.67 886.441 2078.31 884.219 Q2075.97 881.973 2075.97 878.223 Q2075.97 873.848 2078.89 871.626 Q2081.83 869.404 2087.64 869.404 L2093.61 869.404 L2093.61 868.987 Q2093.61 866.047 2091.67 864.45 Q2089.75 862.83 2086.25 862.83 Q2084.03 862.83 2081.92 863.362 Q2079.82 863.895 2077.87 864.96 L2077.87 861.024 Q2080.21 860.122 2082.41 859.682 Q2084.61 859.219 2086.69 859.219 Q2092.32 859.219 2095.09 862.135 Q2097.87 865.052 2097.87 870.978 Z" fill="#000000" fill-rule="nonzero" fill-opacity="1" /><path clip-path="url(#clip430)" d="M2121.67 863.825 Q2120.95 863.409 2120.09 863.223 Q2119.26 863.015 2118.24 863.015 Q2114.63 863.015 2112.69 865.376 Q2110.76 867.714 2110.76 872.112 L2110.76 885.77 L2106.48 885.77 L2106.48 859.844 L2110.76 859.844 L2110.76 863.872 Q2112.11 861.51 2114.26 860.376 Q2116.41 859.219 2119.49 859.219 Q2119.93 859.219 2120.46 859.288 Q2121 859.335 2121.64 859.45 L2121.67 863.825 Z" fill="#000000" fill-rule="nonzero" fill-opacity="1" /><path clip-path="url(#clip430)" d="M2142.36 872.506 Q2142.36 867.876 2140.44 865.33 Q2138.54 862.784 2135.09 862.784 Q2131.67 862.784 2129.75 865.33 Q2127.85 867.876 2127.85 872.506 Q2127.85 877.112 2129.75 879.658 Q2131.67 882.205 2135.09 882.205 Q2138.54 882.205 2140.44 879.658 Q2142.36 877.112 2142.36 872.506 M2146.62 882.552 Q2146.62 889.172 2143.68 892.39 Q2140.74 895.631 2134.68 895.631 Q2132.43 895.631 2130.44 895.283 Q2128.45 894.959 2126.57 894.265 L2126.57 890.121 Q2128.45 891.14 2130.28 891.626 Q2132.11 892.112 2134 892.112 Q2138.19 892.112 2140.28 889.913 Q2142.36 887.737 2142.36 883.316 L2142.36 881.209 Q2141.04 883.501 2138.98 884.635 Q2136.92 885.77 2134.05 885.77 Q2129.28 885.77 2126.37 882.135 Q2123.45 878.501 2123.45 872.506 Q2123.45 866.487 2126.37 862.853 Q2129.28 859.219 2134.05 859.219 Q2136.92 859.219 2138.98 860.353 Q2141.04 861.487 2142.36 863.779 L2142.36 859.844 L2146.62 859.844 L2146.62 882.552 Z" fill="#000000" fill-rule="nonzero" fill-opacity="1" /><path clip-path="url(#clip430)" d="M2177.57 871.742 L2177.57 873.825 L2157.99 873.825 Q2158.26 878.223 2160.62 880.538 Q2163.01 882.83 2167.25 882.83 Q2169.7 882.83 2171.99 882.228 Q2174.31 881.626 2176.57 880.422 L2176.57 884.45 Q2174.28 885.422 2171.87 885.932 Q2169.47 886.441 2166.99 886.441 Q2160.79 886.441 2157.15 882.83 Q2153.54 879.219 2153.54 873.061 Q2153.54 866.696 2156.97 862.969 Q2160.42 859.219 2166.25 859.219 Q2171.48 859.219 2174.51 862.598 Q2177.57 865.955 2177.57 871.742 M2173.31 870.492 Q2173.26 866.997 2171.34 864.913 Q2169.44 862.83 2166.3 862.83 Q2162.73 862.83 2160.58 864.844 Q2158.45 866.858 2158.12 870.515 L2173.31 870.492 Z" fill="#000000" fill-rule="nonzero" fill-opacity="1" /><path clip-path="url(#clip430)" d="M2188.77 852.483 L2188.77 859.844 L2197.55 859.844 L2197.55 863.154 L2188.77 863.154 L2188.77 877.228 Q2188.77 880.399 2189.63 881.302 Q2190.51 882.205 2193.17 882.205 L2197.55 882.205 L2197.55 885.77 L2193.17 885.77 Q2188.24 885.77 2186.37 883.941 Q2184.49 882.089 2184.49 877.228 L2184.49 863.154 L2181.37 863.154 L2181.37 859.844 L2184.49 859.844 L2184.49 852.483 L2188.77 852.483 Z" fill="#000000" fill-rule="nonzero" fill-opacity="1" /><path clip-path="url(#clip430)" d="M2218.4 851.21 L2240.25 851.21 L2240.25 855.145 L2223.08 855.145 L2223.08 865.376 L2239.54 865.376 L2239.54 869.311 L2223.08 869.311 L2223.08 881.834 L2240.67 881.834 L2240.67 885.77 L2218.4 885.77 L2218.4 851.21 Z" fill="#000000" fill-rule="nonzero" fill-opacity="1" /><path clip-path="url(#clip430)" d="M2263.19 863.825 Q2262.48 863.409 2261.62 863.223 Q2260.79 863.015 2259.77 863.015 Q2256.16 863.015 2254.21 865.376 Q2252.29 867.714 2252.29 872.112 L2252.29 885.77 L2248.01 885.77 L2248.01 859.844 L2252.29 859.844 L2252.29 863.872 Q2253.63 861.51 2255.79 860.376 Q2257.94 859.219 2261.02 859.219 Q2261.46 859.219 2261.99 859.288 Q2262.52 859.335 2263.17 859.45 L2263.19 863.825 Z" fill="#000000" fill-rule="nonzero" fill-opacity="1" /><path clip-path="url(#clip430)" d="M2281.85 863.825 Q2281.13 863.409 2280.28 863.223 Q2279.44 863.015 2278.43 863.015 Q2274.81 863.015 2272.87 865.376 Q2270.95 867.714 2270.95 872.112 L2270.95 885.77 L2266.67 885.77 L2266.67 859.844 L2270.95 859.844 L2270.95 863.872 Q2272.29 861.51 2274.44 860.376 Q2276.6 859.219 2279.68 859.219 Q2280.12 859.219 2280.65 859.288 Q2281.18 859.335 2281.83 859.45 L2281.85 863.825 Z" fill="#000000" fill-rule="nonzero" fill-opacity="1" /><path clip-path="url(#clip430)" d="M2295.32 862.83 Q2291.9 862.83 2289.91 865.515 Q2287.92 868.177 2287.92 872.83 Q2287.92 877.483 2289.88 880.168 Q2291.87 882.83 2295.32 882.83 Q2298.73 882.83 2300.72 880.145 Q2302.71 877.459 2302.71 872.83 Q2302.71 868.223 2300.72 865.538 Q2298.73 862.83 2295.32 862.83 M2295.32 859.219 Q2300.88 859.219 2304.05 862.83 Q2307.22 866.441 2307.22 872.83 Q2307.22 879.196 2304.05 882.83 Q2300.88 886.441 2295.32 886.441 Q2289.74 886.441 2286.57 882.83 Q2283.43 879.196 2283.43 872.83 Q2283.43 866.441 2286.57 862.83 Q2289.74 859.219 2295.32 859.219 Z" fill="#000000" fill-rule="nonzero" fill-opacity="1" /><path clip-path="url(#clip430)" d="M2329.3 863.825 Q2328.59 863.409 2327.73 863.223 Q2326.9 863.015 2325.88 863.015 Q2322.27 863.015 2320.32 865.376 Q2318.4 867.714 2318.4 872.112 L2318.4 885.77 L2314.12 885.77 L2314.12 859.844 L2318.4 859.844 L2318.4 863.872 Q2319.74 861.51 2321.9 860.376 Q2324.05 859.219 2327.13 859.219 Q2327.57 859.219 2328.1 859.288 Q2328.63 859.335 2329.28 859.45 L2329.3 863.825 Z" fill="#000000" fill-rule="nonzero" fill-opacity="1" /><polyline clip-path="url(#clip430)" style="stroke:#000000; stroke-linecap:round; stroke-linejoin:round; stroke-width:4; stroke-opacity:0.5; fill:none" points="1887.72,920.33 2028.42,920.33 "/>
<path clip-path="url(#clip430)" d="M1958.07 898.615 L1952.97 913.294 L1937.42 913.62 L1949.82 923.022 L1945.3 937.896 L1958.07 929.015 L1970.84 937.896 L1966.32 923.022 L1978.72 913.62 L1963.17 913.294 L1958.07 898.615 Z" fill="#000000" fill-rule="evenodd" fill-opacity="1" stroke="none"/>
<path clip-path="url(#clip430)" d="M2058.98 903.05 L2063.66 903.05 L2063.66 935.202 Q2063.66 941.452 2061.27 944.276 Q2058.91 947.1 2053.66 947.1 L2051.88 947.1 L2051.88 943.165 L2053.33 943.165 Q2056.44 943.165 2057.71 941.429 Q2058.98 939.693 2058.98 935.202 L2058.98 903.05 Z" fill="#000000" fill-rule="nonzero" fill-opacity="1" /><path clip-path="url(#clip430)" d="M2072.34 927.378 L2072.34 911.684 L2076.6 911.684 L2076.6 927.216 Q2076.6 930.897 2078.03 932.748 Q2079.47 934.577 2082.34 934.577 Q2085.79 934.577 2087.78 932.378 Q2089.79 930.179 2089.79 926.383 L2089.79 911.684 L2094.05 911.684 L2094.05 937.61 L2089.79 937.61 L2089.79 933.628 Q2088.24 935.989 2086.18 937.147 Q2084.14 938.281 2081.44 938.281 Q2076.97 938.281 2074.65 935.503 Q2072.34 932.725 2072.34 927.378 M2083.06 911.059 L2083.06 911.059 Z" fill="#000000" fill-rule="nonzero" fill-opacity="1" /><path clip-path="url(#clip430)" d="M2105.37 924.67 Q2105.37 929.369 2107.29 932.054 Q2109.24 934.716 2112.62 934.716 Q2116 934.716 2117.94 932.054 Q2119.88 929.369 2119.88 924.67 Q2119.88 919.971 2117.94 917.309 Q2116 914.624 2112.62 914.624 Q2109.24 914.624 2107.29 917.309 Q2105.37 919.971 2105.37 924.67 M2119.88 933.721 Q2118.54 936.036 2116.48 937.17 Q2114.44 938.281 2111.57 938.281 Q2106.88 938.281 2103.91 934.531 Q2100.97 930.781 2100.97 924.67 Q2100.97 918.559 2103.91 914.809 Q2106.88 911.059 2111.57 911.059 Q2114.44 911.059 2116.48 912.193 Q2118.54 913.304 2119.88 915.619 L2119.88 911.684 L2124.14 911.684 L2124.14 947.471 L2119.88 947.471 L2119.88 933.721 Z" fill="#000000" fill-rule="nonzero" fill-opacity="1" /><path clip-path="url(#clip430)" d="M2151.53 924.67 Q2151.53 919.971 2149.58 917.309 Q2147.66 914.624 2144.28 914.624 Q2140.9 914.624 2138.96 917.309 Q2137.04 919.971 2137.04 924.67 Q2137.04 929.369 2138.96 932.054 Q2140.9 934.716 2144.28 934.716 Q2147.66 934.716 2149.58 932.054 Q2151.53 929.369 2151.53 924.67 M2137.04 915.619 Q2138.38 913.304 2140.42 912.193 Q2142.48 911.059 2145.32 911.059 Q2150.05 911.059 2152.99 914.809 Q2155.95 918.559 2155.95 924.67 Q2155.95 930.781 2152.99 934.531 Q2150.05 938.281 2145.32 938.281 Q2142.48 938.281 2140.42 937.17 Q2138.38 936.036 2137.04 933.721 L2137.04 937.61 L2132.75 937.61 L2132.75 901.591 L2137.04 901.591 L2137.04 915.619 Z" fill="#000000" fill-rule="nonzero" fill-opacity="1" /><path clip-path="url(#clip430)" d="M2173.06 914.67 Q2169.63 914.67 2167.64 917.355 Q2165.65 920.017 2165.65 924.67 Q2165.65 929.323 2167.62 932.008 Q2169.61 934.67 2173.06 934.67 Q2176.46 934.67 2178.45 931.985 Q2180.44 929.299 2180.44 924.67 Q2180.44 920.063 2178.45 917.378 Q2176.46 914.67 2173.06 914.67 M2173.06 911.059 Q2178.61 911.059 2181.78 914.67 Q2184.95 918.281 2184.95 924.67 Q2184.95 931.036 2181.78 934.67 Q2178.61 938.281 2173.06 938.281 Q2167.48 938.281 2164.31 934.67 Q2161.16 931.036 2161.16 924.67 Q2161.16 918.281 2164.31 914.67 Q2167.48 911.059 2173.06 911.059 Z" fill="#000000" fill-rule="nonzero" fill-opacity="1" /><path clip-path="url(#clip430)" d="M2212.11 911.684 L2202.73 924.299 L2212.59 937.61 L2207.57 937.61 L2200.02 927.424 L2192.48 937.61 L2187.45 937.61 L2197.52 924.045 L2188.31 911.684 L2193.33 911.684 L2200.21 920.92 L2207.08 911.684 L2212.11 911.684 Z" fill="#000000" fill-rule="nonzero" fill-opacity="1" /></svg>
