<?xml version="1.0" encoding="utf-8"?>
<svg xmlns="http://www.w3.org/2000/svg" xmlns:xlink="http://www.w3.org/1999/xlink" width="600" height="400" viewBox="0 0 2400 1600">
<defs>
  <clipPath id="clip400">
    <rect x="0" y="0" width="2400" height="1600"/>
  </clipPath>
</defs>
<path clip-path="url(#clip400)" d="M0 1600 L2400 1600 L2400 0 L0 0  Z" fill="#ffffff" fill-rule="evenodd" fill-opacity="1"/>
<defs>
  <clipPath id="clip401">
    <rect x="480" y="0" width="1681" height="1600"/>
  </clipPath>
</defs>
<path clip-path="url(#clip400)" d="M242.135 1423.18 L1793.91 1423.18 L1793.91 123.472 L242.135 123.472  Z" fill="#ffffff" fill-rule="evenodd" fill-opacity="1"/>
<defs>
  <clipPath id="clip402">
    <rect x="242" y="123" width="1553" height="1301"/>
  </clipPath>
</defs>
<polyline clip-path="url(#clip402)" style="stroke:#000000; stroke-linecap:round; stroke-linejoin:round; stroke-width:2; stroke-opacity:0.1; fill:none" points="397.751,1423.18 397.751,123.472 "/>
<polyline clip-path="url(#clip402)" style="stroke:#000000; stroke-linecap:round; stroke-linejoin:round; stroke-width:2; stroke-opacity:0.1; fill:none" points="725.453,1423.18 725.453,123.472 "/>
<polyline clip-path="url(#clip402)" style="stroke:#000000; stroke-linecap:round; stroke-linejoin:round; stroke-width:2; stroke-opacity:0.1; fill:none" points="1053.16,1423.18 1053.16,123.472 "/>
<polyline clip-path="url(#clip402)" style="stroke:#000000; stroke-linecap:round; stroke-linejoin:round; stroke-width:2; stroke-opacity:0.1; fill:none" points="1380.86,1423.18 1380.86,123.472 "/>
<polyline clip-path="url(#clip402)" style="stroke:#000000; stroke-linecap:round; stroke-linejoin:round; stroke-width:2; stroke-opacity:0.1; fill:none" points="1708.56,1423.18 1708.56,123.472 "/>
<polyline clip-path="url(#clip400)" style="stroke:#000000; stroke-linecap:round; stroke-linejoin:round; stroke-width:4; stroke-opacity:1; fill:none" points="242.135,1423.18 1793.91,1423.18 "/>
<polyline clip-path="url(#clip400)" style="stroke:#000000; stroke-linecap:round; stroke-linejoin:round; stroke-width:4; stroke-opacity:1; fill:none" points="397.751,1423.18 397.751,1404.28 "/>
<polyline clip-path="url(#clip400)" style="stroke:#000000; stroke-linecap:round; stroke-linejoin:round; stroke-width:4; stroke-opacity:1; fill:none" points="725.453,1423.18 725.453,1404.28 "/>
<polyline clip-path="url(#clip400)" style="stroke:#000000; stroke-linecap:round; stroke-linejoin:round; stroke-width:4; stroke-opacity:1; fill:none" points="1053.16,1423.18 1053.16,1404.28 "/>
<polyline clip-path="url(#clip400)" style="stroke:#000000; stroke-linecap:round; stroke-linejoin:round; stroke-width:4; stroke-opacity:1; fill:none" points="1380.86,1423.18 1380.86,1404.28 "/>
<polyline clip-path="url(#clip400)" style="stroke:#000000; stroke-linecap:round; stroke-linejoin:round; stroke-width:4; stroke-opacity:1; fill:none" points="1708.56,1423.18 1708.56,1404.28 "/>
<path clip-path="url(#clip400)" d="M367.219 1468.75 L396.895 1468.75 L396.895 1472.69 L367.219 1472.69 L367.219 1468.75 Z" fill="#000000" fill-rule="nonzero" fill-opacity="1" /><path clip-path="url(#clip400)" d="M421.154 1466.95 Q424.51 1467.66 426.385 1469.93 Q428.283 1472.2 428.283 1475.53 Q428.283 1480.65 424.765 1483.45 Q421.246 1486.25 414.765 1486.25 Q412.589 1486.25 410.274 1485.81 Q407.982 1485.39 405.529 1484.54 L405.529 1480.02 Q407.473 1481.16 409.788 1481.74 Q412.103 1482.32 414.626 1482.32 Q419.024 1482.32 421.316 1480.58 Q423.631 1478.84 423.631 1475.53 Q423.631 1472.48 421.478 1470.77 Q419.348 1469.03 415.529 1469.03 L411.501 1469.03 L411.501 1465.19 L415.714 1465.19 Q419.163 1465.19 420.992 1463.82 Q422.82 1462.43 422.82 1459.84 Q422.82 1457.18 420.922 1455.77 Q419.047 1454.33 415.529 1454.33 Q413.607 1454.33 411.408 1454.75 Q409.209 1455.16 406.57 1456.04 L406.57 1451.88 Q409.232 1451.14 411.547 1450.77 Q413.885 1450.39 415.945 1450.39 Q421.269 1450.39 424.371 1452.83 Q427.473 1455.23 427.473 1459.35 Q427.473 1462.22 425.83 1464.21 Q424.186 1466.18 421.154 1466.95 Z" fill="#000000" fill-rule="nonzero" fill-opacity="1" /><path clip-path="url(#clip400)" d="M695.396 1468.75 L725.071 1468.75 L725.071 1472.69 L695.396 1472.69 L695.396 1468.75 Z" fill="#000000" fill-rule="nonzero" fill-opacity="1" /><path clip-path="url(#clip400)" d="M739.192 1481.64 L755.511 1481.64 L755.511 1485.58 L733.567 1485.58 L733.567 1481.64 Q736.229 1478.89 740.812 1474.26 Q745.418 1469.61 746.599 1468.27 Q748.844 1465.74 749.724 1464.01 Q750.627 1462.25 750.627 1460.56 Q750.627 1457.8 748.682 1456.07 Q746.761 1454.33 743.659 1454.33 Q741.46 1454.33 739.006 1455.09 Q736.576 1455.86 733.798 1457.41 L733.798 1452.69 Q736.622 1451.55 739.076 1450.97 Q741.53 1450.39 743.567 1450.39 Q748.937 1450.39 752.131 1453.08 Q755.326 1455.77 755.326 1460.26 Q755.326 1462.39 754.516 1464.31 Q753.729 1466.2 751.622 1468.8 Q751.043 1469.47 747.942 1472.69 Q744.84 1475.88 739.192 1481.64 Z" fill="#000000" fill-rule="nonzero" fill-opacity="1" /><path clip-path="url(#clip400)" d="M1022.91 1468.75 L1052.59 1468.75 L1052.59 1472.69 L1022.91 1472.69 L1022.91 1468.75 Z" fill="#000000" fill-rule="nonzero" fill-opacity="1" /><path clip-path="url(#clip400)" d="M1063.49 1481.64 L1071.13 1481.64 L1071.13 1455.28 L1062.82 1456.95 L1062.82 1452.69 L1071.08 1451.02 L1075.76 1451.02 L1075.76 1481.64 L1083.4 1481.64 L1083.4 1485.58 L1063.49 1485.58 L1063.49 1481.64 Z" fill="#000000" fill-rule="nonzero" fill-opacity="1" /><path clip-path="url(#clip400)" d="M1380.86 1454.1 Q1377.25 1454.1 1375.42 1457.66 Q1373.61 1461.2 1373.61 1468.33 Q1373.61 1475.44 1375.42 1479.01 Q1377.25 1482.55 1380.86 1482.55 Q1384.49 1482.55 1386.3 1479.01 Q1388.13 1475.44 1388.13 1468.33 Q1388.13 1461.2 1386.3 1457.66 Q1384.49 1454.1 1380.86 1454.1 M1380.86 1450.39 Q1386.67 1450.39 1389.72 1455 Q1392.8 1459.58 1392.8 1468.33 Q1392.8 1477.06 1389.72 1481.67 Q1386.67 1486.25 1380.86 1486.25 Q1375.05 1486.25 1371.97 1481.67 Q1368.91 1477.06 1368.91 1468.33 Q1368.91 1459.58 1371.97 1455 Q1375.05 1450.39 1380.86 1450.39 Z" fill="#000000" fill-rule="nonzero" fill-opacity="1" /><path clip-path="url(#clip400)" d="M1698.94 1481.64 L1706.58 1481.64 L1706.58 1455.28 L1698.27 1456.95 L1698.27 1452.69 L1706.53 1451.02 L1711.21 1451.02 L1711.21 1481.64 L1718.85 1481.64 L1718.85 1485.58 L1698.94 1485.58 L1698.94 1481.64 Z" fill="#000000" fill-rule="nonzero" fill-opacity="1" /><path clip-path="url(#clip400)" d="M717.339 1520.52 L723.768 1520.52 L723.768 1562.63 L746.907 1562.63 L746.907 1568.04 L717.339 1568.04 L717.339 1520.52 Z" fill="#000000" fill-rule="nonzero" fill-opacity="1" /><path clip-path="url(#clip400)" d="M766.068 1536.5 Q761.357 1536.5 758.62 1540.19 Q755.883 1543.85 755.883 1550.25 Q755.883 1556.65 758.588 1560.34 Q761.326 1564 766.068 1564 Q770.747 1564 773.484 1560.31 Q776.221 1556.62 776.221 1550.25 Q776.221 1543.92 773.484 1540.23 Q770.747 1536.5 766.068 1536.5 M766.068 1531.54 Q773.707 1531.54 778.067 1536.5 Q782.428 1541.47 782.428 1550.25 Q782.428 1559 778.067 1564 Q773.707 1568.97 766.068 1568.97 Q758.397 1568.97 754.037 1564 Q749.708 1559 749.708 1550.25 Q749.708 1541.47 754.037 1536.5 Q758.397 1531.54 766.068 1531.54 Z" fill="#000000" fill-rule="nonzero" fill-opacity="1" /><path clip-path="url(#clip400)" d="M815.593 1549.81 Q815.593 1543.44 812.951 1539.94 Q810.341 1536.44 805.599 1536.44 Q800.888 1536.44 798.247 1539.94 Q795.637 1543.44 795.637 1549.81 Q795.637 1556.14 798.247 1559.64 Q800.888 1563.14 805.599 1563.14 Q810.341 1563.14 812.951 1559.64 Q815.593 1556.14 815.593 1549.81 M821.45 1563.62 Q821.45 1572.72 817.407 1577.15 Q813.365 1581.6 805.026 1581.6 Q801.939 1581.6 799.202 1581.13 Q796.464 1580.68 793.886 1579.72 L793.886 1574.03 Q796.464 1575.43 798.979 1576.1 Q801.493 1576.76 804.103 1576.76 Q809.864 1576.76 812.729 1573.74 Q815.593 1570.75 815.593 1564.67 L815.593 1561.77 Q813.779 1564.92 810.946 1566.48 Q808.113 1568.04 804.167 1568.04 Q797.61 1568.04 793.6 1563.05 Q789.589 1558.05 789.589 1549.81 Q789.589 1541.53 793.6 1536.53 Q797.61 1531.54 804.167 1531.54 Q808.113 1531.54 810.946 1533.1 Q813.779 1534.66 815.593 1537.81 L815.593 1532.4 L821.45 1532.4 L821.45 1563.62 Z" fill="#000000" fill-rule="nonzero" fill-opacity="1" /><path clip-path="url(#clip400)" d="M832.335 1564.54 L838.828 1564.54 L838.828 1545.1 L831.73 1546.4 L831.73 1542.71 L839.051 1541.47 L843.411 1541.47 L843.411 1564.54 L849.936 1564.54 L849.936 1568.04 L832.335 1568.04 L832.335 1564.54 Z" fill="#000000" fill-rule="nonzero" fill-opacity="1" /><path clip-path="url(#clip400)" d="M871.643 1546.5 Q870.052 1543.76 866.837 1543.76 Q863.622 1543.76 862.031 1546.5 Q860.408 1549.23 860.408 1554.71 Q860.408 1560.21 862.031 1562.95 Q863.622 1565.69 866.837 1565.69 Q870.052 1565.69 871.643 1562.95 Q873.266 1560.21 873.266 1554.71 Q873.266 1549.23 871.643 1546.5 M866.837 1540.93 Q871.962 1540.93 874.667 1544.46 Q877.372 1547.99 877.372 1554.71 Q877.372 1561.46 874.667 1564.99 Q871.962 1568.52 866.837 1568.52 Q861.681 1568.52 858.975 1564.99 Q856.27 1561.46 856.27 1554.71 Q856.27 1547.99 858.975 1544.46 Q861.681 1540.93 866.837 1540.93 Z" fill="#000000" fill-rule="nonzero" fill-opacity="1" /><path clip-path="url(#clip400)" d="M899.843 1518.58 Q895.578 1525.9 893.509 1533.06 Q891.441 1540.23 891.441 1547.58 Q891.441 1554.93 893.509 1562.16 Q895.61 1569.35 899.843 1576.64 L894.751 1576.64 Q889.976 1569.16 887.589 1561.93 Q885.234 1554.71 885.234 1547.58 Q885.234 1540.48 887.589 1533.29 Q889.945 1526.09 894.751 1518.58 L899.843 1518.58 Z" fill="#000000" fill-rule="nonzero" fill-opacity="1" /><path clip-path="url(#clip400)" d="M939.947 1522.08 L939.947 1528.35 Q936.287 1526.6 933.04 1525.74 Q929.794 1524.88 926.77 1524.88 Q921.519 1524.88 918.654 1526.92 Q915.821 1528.96 915.821 1532.71 Q915.821 1535.87 917.699 1537.49 Q919.609 1539.08 924.892 1540.07 L928.775 1540.86 Q935.969 1542.23 939.374 1545.7 Q942.812 1549.14 942.812 1554.93 Q942.812 1561.84 938.165 1565.4 Q933.55 1568.97 924.606 1568.97 Q921.232 1568.97 917.413 1568.2 Q913.625 1567.44 909.551 1565.94 L909.551 1559.32 Q913.466 1561.52 917.222 1562.63 Q920.977 1563.75 924.606 1563.75 Q930.112 1563.75 933.104 1561.58 Q936.096 1559.42 936.096 1555.41 Q936.096 1551.91 933.932 1549.93 Q931.799 1547.96 926.898 1546.97 L922.983 1546.21 Q915.789 1544.78 912.575 1541.72 Q909.36 1538.67 909.36 1533.22 Q909.36 1526.92 913.784 1523.29 Q918.24 1519.66 926.038 1519.66 Q929.38 1519.66 932.85 1520.27 Q936.319 1520.87 939.947 1522.08 Z" fill="#000000" fill-rule="nonzero" fill-opacity="1" /><path clip-path="url(#clip400)" d="M958.376 1522.27 L958.376 1532.4 L970.439 1532.4 L970.439 1536.95 L958.376 1536.95 L958.376 1556.3 Q958.376 1560.66 959.554 1561.9 Q960.763 1563.14 964.423 1563.14 L970.439 1563.14 L970.439 1568.04 L964.423 1568.04 Q957.644 1568.04 955.066 1565.53 Q952.488 1562.98 952.488 1556.3 L952.488 1536.95 L948.191 1536.95 L948.191 1532.4 L952.488 1532.4 L952.488 1522.27 L958.376 1522.27 Z" fill="#000000" fill-rule="nonzero" fill-opacity="1" /><path clip-path="url(#clip400)" d="M1008.63 1548.76 L1008.63 1551.62 L981.706 1551.62 Q982.088 1557.67 985.335 1560.85 Q988.613 1564 994.438 1564 Q997.812 1564 1000.96 1563.17 Q1004.15 1562.35 1007.26 1560.69 L1007.26 1566.23 Q1004.11 1567.57 1000.8 1568.27 Q997.493 1568.97 994.088 1568.97 Q985.558 1568.97 980.56 1564 Q975.595 1559.04 975.595 1550.57 Q975.595 1541.82 980.306 1536.69 Q985.048 1531.54 993.069 1531.54 Q1000.26 1531.54 1004.43 1536.18 Q1008.63 1540.8 1008.63 1548.76 M1002.78 1547.04 Q1002.71 1542.23 1000.07 1539.37 Q997.461 1536.5 993.133 1536.5 Q988.231 1536.5 985.271 1539.27 Q982.343 1542.04 981.897 1547.07 L1002.78 1547.04 Z" fill="#000000" fill-rule="nonzero" fill-opacity="1" /><path clip-path="url(#clip400)" d="M1023.91 1562.7 L1023.91 1581.6 L1018.02 1581.6 L1018.02 1532.4 L1023.91 1532.4 L1023.91 1537.81 Q1025.76 1534.62 1028.56 1533.1 Q1031.39 1531.54 1035.31 1531.54 Q1041.8 1531.54 1045.84 1536.69 Q1049.91 1541.85 1049.91 1550.25 Q1049.91 1558.65 1045.84 1563.81 Q1041.8 1568.97 1035.31 1568.97 Q1031.39 1568.97 1028.56 1567.44 Q1025.76 1565.88 1023.91 1562.7 M1043.84 1550.25 Q1043.84 1543.79 1041.16 1540.13 Q1038.52 1536.44 1033.87 1536.44 Q1029.23 1536.44 1026.55 1540.13 Q1023.91 1543.79 1023.91 1550.25 Q1023.91 1556.71 1026.55 1560.4 Q1029.23 1564.07 1033.87 1564.07 Q1038.52 1564.07 1041.16 1560.4 Q1043.84 1556.71 1043.84 1550.25 Z" fill="#000000" fill-rule="nonzero" fill-opacity="1" /><path clip-path="url(#clip400)" d="M1109.08 1522.08 L1109.08 1528.35 Q1105.42 1526.6 1102.18 1525.74 Q1098.93 1524.88 1095.91 1524.88 Q1090.66 1524.88 1087.79 1526.92 Q1084.96 1528.96 1084.96 1532.71 Q1084.96 1535.87 1086.84 1537.49 Q1088.75 1539.08 1094.03 1540.07 L1097.91 1540.86 Q1105.11 1542.23 1108.51 1545.7 Q1111.95 1549.14 1111.95 1554.93 Q1111.95 1561.84 1107.3 1565.4 Q1102.69 1568.97 1093.74 1568.97 Q1090.37 1568.97 1086.55 1568.2 Q1082.76 1567.44 1078.69 1565.94 L1078.69 1559.32 Q1082.6 1561.52 1086.36 1562.63 Q1090.11 1563.75 1093.74 1563.75 Q1099.25 1563.75 1102.24 1561.58 Q1105.23 1559.42 1105.23 1555.41 Q1105.23 1551.91 1103.07 1549.93 Q1100.94 1547.96 1096.03 1546.97 L1092.12 1546.21 Q1084.93 1544.78 1081.71 1541.72 Q1078.5 1538.67 1078.5 1533.22 Q1078.5 1526.92 1082.92 1523.29 Q1087.38 1519.66 1095.18 1519.66 Q1098.52 1519.66 1101.99 1520.27 Q1105.46 1520.87 1109.08 1522.08 Z" fill="#000000" fill-rule="nonzero" fill-opacity="1" /><path clip-path="url(#clip400)" d="M1121.72 1532.4 L1127.58 1532.4 L1127.58 1568.04 L1121.72 1568.04 L1121.72 1532.4 M1121.72 1518.52 L1127.58 1518.52 L1127.58 1525.93 L1121.72 1525.93 L1121.72 1518.52 Z" fill="#000000" fill-rule="nonzero" fill-opacity="1" /><path clip-path="url(#clip400)" d="M1137.28 1532.4 L1165.1 1532.4 L1165.1 1537.74 L1143.08 1563.37 L1165.1 1563.37 L1165.1 1568.04 L1136.49 1568.04 L1136.49 1562.7 L1158.51 1537.07 L1137.28 1537.07 L1137.28 1532.4 Z" fill="#000000" fill-rule="nonzero" fill-opacity="1" /><path clip-path="url(#clip400)" d="M1204.54 1548.76 L1204.54 1551.62 L1177.61 1551.62 Q1177.99 1557.67 1181.24 1560.85 Q1184.52 1564 1190.34 1564 Q1193.72 1564 1196.87 1563.17 Q1200.05 1562.35 1203.17 1560.69 L1203.17 1566.23 Q1200.02 1567.57 1196.71 1568.27 Q1193.4 1568.97 1189.99 1568.97 Q1181.46 1568.97 1176.47 1564 Q1171.5 1559.04 1171.5 1550.57 Q1171.5 1541.82 1176.21 1536.69 Q1180.95 1531.54 1188.97 1531.54 Q1196.17 1531.54 1200.34 1536.18 Q1204.54 1540.8 1204.54 1548.76 M1198.68 1547.04 Q1198.62 1542.23 1195.98 1539.37 Q1193.37 1536.5 1189.04 1536.5 Q1184.14 1536.5 1181.18 1539.27 Q1178.25 1542.04 1177.8 1547.07 L1198.68 1547.04 Z" fill="#000000" fill-rule="nonzero" fill-opacity="1" /><path clip-path="url(#clip400)" d="M1251.01 1526.86 L1237.96 1562.7 L1264.09 1562.7 L1251.01 1526.86 M1229.24 1568.04 L1247.38 1520.52 L1254.67 1520.52 L1272.78 1568.04 L1229.24 1568.04 Z" fill="#000000" fill-rule="nonzero" fill-opacity="1" /><path clip-path="url(#clip400)" d="M1285.26 1522.27 L1285.26 1532.4 L1297.32 1532.4 L1297.32 1536.95 L1285.26 1536.95 L1285.26 1556.3 Q1285.26 1560.66 1286.43 1561.9 Q1287.64 1563.14 1291.3 1563.14 L1297.32 1563.14 L1297.32 1568.04 L1291.3 1568.04 Q1284.52 1568.04 1281.94 1565.53 Q1279.37 1562.98 1279.37 1556.3 L1279.37 1536.95 L1275.07 1536.95 L1275.07 1532.4 L1279.37 1532.4 L1279.37 1522.27 L1285.26 1522.27 Z" fill="#000000" fill-rule="nonzero" fill-opacity="1" /><path clip-path="url(#clip400)" d="M1304.1 1518.58 L1309.19 1518.58 Q1313.96 1526.09 1316.32 1533.29 Q1318.71 1540.48 1318.71 1547.58 Q1318.71 1554.71 1316.32 1561.93 Q1313.96 1569.16 1309.19 1576.64 L1304.1 1576.64 Q1308.33 1569.35 1310.4 1562.16 Q1312.5 1554.93 1312.5 1547.58 Q1312.5 1540.23 1310.4 1533.06 Q1308.33 1525.9 1304.1 1518.58 Z" fill="#000000" fill-rule="nonzero" fill-opacity="1" /><polyline clip-path="url(#clip402)" style="stroke:#000000; stroke-linecap:round; stroke-linejoin:round; stroke-width:2; stroke-opacity:0.1; fill:none" points="242.135,1380.73 1793.91,1380.73 "/>
<polyline clip-path="url(#clip402)" style="stroke:#000000; stroke-linecap:round; stroke-linejoin:round; stroke-width:2; stroke-opacity:0.1; fill:none" points="242.135,1269.78 1793.91,1269.78 "/>
<polyline clip-path="url(#clip402)" style="stroke:#000000; stroke-linecap:round; stroke-linejoin:round; stroke-width:2; stroke-opacity:0.1; fill:none" points="242.135,1158.83 1793.91,1158.83 "/>
<polyline clip-path="url(#clip402)" style="stroke:#000000; stroke-linecap:round; stroke-linejoin:round; stroke-width:2; stroke-opacity:0.1; fill:none" points="242.135,1047.87 1793.91,1047.87 "/>
<polyline clip-path="url(#clip402)" style="stroke:#000000; stroke-linecap:round; stroke-linejoin:round; stroke-width:2; stroke-opacity:0.1; fill:none" points="242.135,936.922 1793.91,936.922 "/>
<polyline clip-path="url(#clip402)" style="stroke:#000000; stroke-linecap:round; stroke-linejoin:round; stroke-width:2; stroke-opacity:0.1; fill:none" points="242.135,825.97 1793.91,825.97 "/>
<polyline clip-path="url(#clip402)" style="stroke:#000000; stroke-linecap:round; stroke-linejoin:round; stroke-width:2; stroke-opacity:0.1; fill:none" points="242.135,715.018 1793.91,715.018 "/>
<polyline clip-path="url(#clip402)" style="stroke:#000000; stroke-linecap:round; stroke-linejoin:round; stroke-width:2; stroke-opacity:0.1; fill:none" points="242.135,604.065 1793.91,604.065 "/>
<polyline clip-path="url(#clip402)" style="stroke:#000000; stroke-linecap:round; stroke-linejoin:round; stroke-width:2; stroke-opacity:0.1; fill:none" points="242.135,493.113 1793.91,493.113 "/>
<polyline clip-path="url(#clip402)" style="stroke:#000000; stroke-linecap:round; stroke-linejoin:round; stroke-width:2; stroke-opacity:0.1; fill:none" points="242.135,382.161 1793.91,382.161 "/>
<polyline clip-path="url(#clip402)" style="stroke:#000000; stroke-linecap:round; stroke-linejoin:round; stroke-width:2; stroke-opacity:0.1; fill:none" points="242.135,271.209 1793.91,271.209 "/>
<polyline clip-path="url(#clip402)" style="stroke:#000000; stroke-linecap:round; stroke-linejoin:round; stroke-width:2; stroke-opacity:0.1; fill:none" points="242.135,160.256 1793.91,160.256 "/>
<polyline clip-path="url(#clip400)" style="stroke:#000000; stroke-linecap:round; stroke-linejoin:round; stroke-width:4; stroke-opacity:1; fill:none" points="242.135,1423.18 242.135,123.472 "/>
<polyline clip-path="url(#clip400)" style="stroke:#000000; stroke-linecap:round; stroke-linejoin:round; stroke-width:4; stroke-opacity:1; fill:none" points="242.135,1380.73 256.029,1380.73 "/>
<polyline clip-path="url(#clip400)" style="stroke:#000000; stroke-linecap:round; stroke-linejoin:round; stroke-width:4; stroke-opacity:1; fill:none" points="242.135,1269.78 256.029,1269.78 "/>
<polyline clip-path="url(#clip400)" style="stroke:#000000; stroke-linecap:round; stroke-linejoin:round; stroke-width:4; stroke-opacity:1; fill:none" points="242.135,1158.83 256.029,1158.83 "/>
<polyline clip-path="url(#clip400)" style="stroke:#000000; stroke-linecap:round; stroke-linejoin:round; stroke-width:4; stroke-opacity:1; fill:none" points="242.135,1047.87 256.029,1047.87 "/>
<polyline clip-path="url(#clip400)" style="stroke:#000000; stroke-linecap:round; stroke-linejoin:round; stroke-width:4; stroke-opacity:1; fill:none" points="242.135,936.922 256.029,936.922 "/>
<polyline clip-path="url(#clip400)" style="stroke:#000000; stroke-linecap:round; stroke-linejoin:round; stroke-width:4; stroke-opacity:1; fill:none" points="242.135,825.97 256.029,825.97 "/>
<polyline clip-path="url(#clip400)" style="stroke:#000000; stroke-linecap:round; stroke-linejoin:round; stroke-width:4; stroke-opacity:1; fill:none" points="242.135,715.018 256.029,715.018 "/>
<polyline clip-path="url(#clip400)" style="stroke:#000000; stroke-linecap:round; stroke-linejoin:round; stroke-width:4; stroke-opacity:1; fill:none" points="242.135,604.065 256.029,604.065 "/>
<polyline clip-path="url(#clip400)" style="stroke:#000000; stroke-linecap:round; stroke-linejoin:round; stroke-width:4; stroke-opacity:1; fill:none" points="242.135,493.113 256.029,493.113 "/>
<polyline clip-path="url(#clip400)" style="stroke:#000000; stroke-linecap:round; stroke-linejoin:round; stroke-width:4; stroke-opacity:1; fill:none" points="242.135,382.161 256.029,382.161 "/>
<polyline clip-path="url(#clip400)" style="stroke:#000000; stroke-linecap:round; stroke-linejoin:round; stroke-width:4; stroke-opacity:1; fill:none" points="242.135,271.209 256.029,271.209 "/>
<polyline clip-path="url(#clip400)" style="stroke:#000000; stroke-linecap:round; stroke-linejoin:round; stroke-width:4; stroke-opacity:1; fill:none" points="242.135,160.256 256.029,160.256 "/>
<path clip-path="url(#clip400)" d="M115.487 1381.18 L145.163 1381.18 L145.163 1385.12 L115.487 1385.12 L115.487 1381.18 Z" fill="#000000" fill-rule="nonzero" fill-opacity="1" /><path clip-path="url(#clip400)" d="M156.065 1394.08 L163.704 1394.08 L163.704 1367.71 L155.394 1369.38 L155.394 1365.12 L163.658 1363.45 L168.334 1363.45 L168.334 1394.08 L175.973 1394.08 L175.973 1398.01 L156.065 1398.01 L156.065 1394.08 Z" fill="#000000" fill-rule="nonzero" fill-opacity="1" /><path clip-path="url(#clip400)" d="M186.227 1394.08 L193.866 1394.08 L193.866 1367.71 L185.556 1369.38 L185.556 1365.12 L193.82 1363.45 L198.496 1363.45 L198.496 1394.08 L206.135 1394.08 L206.135 1398.01 L186.227 1398.01 L186.227 1394.08 Z" fill="#000000" fill-rule="nonzero" fill-opacity="1" /><path clip-path="url(#clip400)" d="M114.26 1270.23 L143.936 1270.23 L143.936 1274.17 L114.26 1274.17 L114.26 1270.23 Z" fill="#000000" fill-rule="nonzero" fill-opacity="1" /><path clip-path="url(#clip400)" d="M154.839 1283.12 L162.477 1283.12 L162.477 1256.76 L154.167 1258.42 L154.167 1254.17 L162.431 1252.5 L167.107 1252.5 L167.107 1283.12 L174.746 1283.12 L174.746 1287.06 L154.839 1287.06 L154.839 1283.12 Z" fill="#000000" fill-rule="nonzero" fill-opacity="1" /><path clip-path="url(#clip400)" d="M194.19 1255.58 Q190.579 1255.58 188.75 1259.14 Q186.945 1262.68 186.945 1269.81 Q186.945 1276.92 188.75 1280.48 Q190.579 1284.03 194.19 1284.03 Q197.825 1284.03 199.63 1280.48 Q201.459 1276.92 201.459 1269.81 Q201.459 1262.68 199.63 1259.14 Q197.825 1255.58 194.19 1255.58 M194.19 1251.87 Q200 1251.87 203.056 1256.48 Q206.135 1261.06 206.135 1269.81 Q206.135 1278.54 203.056 1283.15 Q200 1287.73 194.19 1287.73 Q188.38 1287.73 185.301 1283.15 Q182.246 1278.54 182.246 1269.81 Q182.246 1261.06 185.301 1256.48 Q188.38 1251.87 194.19 1251.87 Z" fill="#000000" fill-rule="nonzero" fill-opacity="1" /><path clip-path="url(#clip400)" d="M144.607 1159.28 L174.283 1159.28 L174.283 1163.21 L144.607 1163.21 L144.607 1159.28 Z" fill="#000000" fill-rule="nonzero" fill-opacity="1" /><path clip-path="url(#clip400)" d="M184.514 1175.39 L184.514 1171.13 Q186.274 1171.96 188.079 1172.4 Q189.885 1172.84 191.621 1172.84 Q196.25 1172.84 198.681 1169.74 Q201.135 1166.62 201.482 1160.27 Q200.139 1162.26 198.079 1163.33 Q196.019 1164.39 193.519 1164.39 Q188.334 1164.39 185.301 1161.27 Q182.292 1158.12 182.292 1152.68 Q182.292 1147.36 185.44 1144.14 Q188.588 1140.92 193.82 1140.92 Q199.815 1140.92 202.963 1145.53 Q206.135 1150.11 206.135 1158.86 Q206.135 1167.03 202.246 1171.92 Q198.38 1176.78 191.829 1176.78 Q190.07 1176.78 188.264 1176.43 Q186.459 1176.08 184.514 1175.39 M193.82 1160.74 Q196.968 1160.74 198.797 1158.58 Q200.649 1156.43 200.649 1152.68 Q200.649 1148.95 198.797 1146.8 Q196.968 1144.63 193.82 1144.63 Q190.672 1144.63 188.82 1146.8 Q186.991 1148.95 186.991 1152.68 Q186.991 1156.43 188.82 1158.58 Q190.672 1160.74 193.82 1160.74 Z" fill="#000000" fill-rule="nonzero" fill-opacity="1" /><path clip-path="url(#clip400)" d="M144.515 1048.33 L174.19 1048.33 L174.19 1052.26 L144.515 1052.26 L144.515 1048.33 Z" fill="#000000" fill-rule="nonzero" fill-opacity="1" /><path clip-path="url(#clip400)" d="M194.283 1048.74 Q190.95 1048.74 189.028 1050.52 Q187.13 1052.31 187.13 1055.43 Q187.13 1058.56 189.028 1060.34 Q190.95 1062.12 194.283 1062.12 Q197.616 1062.12 199.537 1060.34 Q201.459 1058.53 201.459 1055.43 Q201.459 1052.31 199.537 1050.52 Q197.639 1048.74 194.283 1048.74 M189.607 1046.75 Q186.598 1046.01 184.908 1043.95 Q183.241 1041.89 183.241 1038.93 Q183.241 1034.78 186.181 1032.38 Q189.144 1029.97 194.283 1029.97 Q199.445 1029.97 202.385 1032.38 Q205.324 1034.78 205.324 1038.93 Q205.324 1041.89 203.635 1043.95 Q201.968 1046.01 198.982 1046.75 Q202.362 1047.54 204.237 1049.83 Q206.135 1052.12 206.135 1055.43 Q206.135 1060.46 203.056 1063.14 Q200 1065.83 194.283 1065.83 Q188.565 1065.83 185.487 1063.14 Q182.431 1060.46 182.431 1055.43 Q182.431 1052.12 184.329 1049.83 Q186.227 1047.54 189.607 1046.75 M187.894 1039.37 Q187.894 1042.05 189.561 1043.56 Q191.25 1045.06 194.283 1045.06 Q197.292 1045.06 198.982 1043.56 Q200.695 1042.05 200.695 1039.37 Q200.695 1036.68 198.982 1035.18 Q197.292 1033.67 194.283 1033.67 Q191.25 1033.67 189.561 1035.18 Q187.894 1036.68 187.894 1039.37 Z" fill="#000000" fill-rule="nonzero" fill-opacity="1" /><path clip-path="url(#clip400)" d="M145.325 937.373 L175.001 937.373 L175.001 941.309 L145.325 941.309 L145.325 937.373 Z" fill="#000000" fill-rule="nonzero" fill-opacity="1" /><path clip-path="url(#clip400)" d="M183.913 919.642 L206.135 919.642 L206.135 921.633 L193.588 954.202 L188.704 954.202 L200.51 923.577 L183.913 923.577 L183.913 919.642 Z" fill="#000000" fill-rule="nonzero" fill-opacity="1" /><path clip-path="url(#clip400)" d="M144.26 826.421 L173.936 826.421 L173.936 830.356 L144.26 830.356 L144.26 826.421 Z" fill="#000000" fill-rule="nonzero" fill-opacity="1" /><path clip-path="url(#clip400)" d="M194.607 824.106 Q191.459 824.106 189.607 826.259 Q187.778 828.412 187.778 832.162 Q187.778 835.889 189.607 838.065 Q191.459 840.217 194.607 840.217 Q197.755 840.217 199.584 838.065 Q201.436 835.889 201.436 832.162 Q201.436 828.412 199.584 826.259 Q197.755 824.106 194.607 824.106 M203.889 809.454 L203.889 813.713 Q202.13 812.88 200.325 812.44 Q198.542 812 196.783 812 Q192.153 812 189.7 815.125 Q187.269 818.25 186.922 824.569 Q188.288 822.555 190.348 821.491 Q192.408 820.403 194.885 820.403 Q200.093 820.403 203.102 823.574 Q206.135 826.722 206.135 832.162 Q206.135 837.486 202.987 840.703 Q199.838 843.921 194.607 843.921 Q188.612 843.921 185.44 839.338 Q182.269 834.731 182.269 826.004 Q182.269 817.81 186.158 812.949 Q190.047 808.065 196.598 808.065 Q198.357 808.065 200.139 808.412 Q201.945 808.759 203.889 809.454 Z" fill="#000000" fill-rule="nonzero" fill-opacity="1" /><path clip-path="url(#clip400)" d="M145.417 715.469 L175.093 715.469 L175.093 719.404 L145.417 719.404 L145.417 715.469 Z" fill="#000000" fill-rule="nonzero" fill-opacity="1" /><path clip-path="url(#clip400)" d="M185.232 697.738 L203.588 697.738 L203.588 701.673 L189.514 701.673 L189.514 710.145 Q190.533 709.798 191.551 709.636 Q192.57 709.45 193.588 709.45 Q199.375 709.45 202.755 712.622 Q206.135 715.793 206.135 721.21 Q206.135 726.788 202.662 729.89 Q199.19 732.969 192.871 732.969 Q190.695 732.969 188.426 732.598 Q186.181 732.228 183.774 731.487 L183.774 726.788 Q185.857 727.923 188.079 728.478 Q190.301 729.034 192.778 729.034 Q196.783 729.034 199.121 726.927 Q201.459 724.821 201.459 721.21 Q201.459 717.599 199.121 715.492 Q196.783 713.386 192.778 713.386 Q190.903 713.386 189.028 713.802 Q187.176 714.219 185.232 715.099 L185.232 697.738 Z" fill="#000000" fill-rule="nonzero" fill-opacity="1" /><path clip-path="url(#clip400)" d="M143.936 604.517 L173.612 604.517 L173.612 608.452 L143.936 608.452 L143.936 604.517 Z" fill="#000000" fill-rule="nonzero" fill-opacity="1" /><path clip-path="url(#clip400)" d="M196.551 590.859 L184.746 609.308 L196.551 609.308 L196.551 590.859 M195.325 586.785 L201.204 586.785 L201.204 609.308 L206.135 609.308 L206.135 613.197 L201.204 613.197 L201.204 621.345 L196.551 621.345 L196.551 613.197 L180.95 613.197 L180.95 608.683 L195.325 586.785 Z" fill="#000000" fill-rule="nonzero" fill-opacity="1" /><path clip-path="url(#clip400)" d="M145.07 493.564 L174.746 493.564 L174.746 497.5 L145.07 497.5 L145.07 493.564 Z" fill="#000000" fill-rule="nonzero" fill-opacity="1" /><path clip-path="url(#clip400)" d="M199.005 491.759 Q202.362 492.476 204.237 494.745 Q206.135 497.013 206.135 500.347 Q206.135 505.463 202.616 508.263 Q199.098 511.064 192.616 511.064 Q190.44 511.064 188.126 510.625 Q185.834 510.208 183.38 509.351 L183.38 504.838 Q185.325 505.972 187.639 506.55 Q189.954 507.129 192.477 507.129 Q196.875 507.129 199.167 505.393 Q201.482 503.657 201.482 500.347 Q201.482 497.291 199.329 495.578 Q197.2 493.842 193.38 493.842 L189.352 493.842 L189.352 490 L193.565 490 Q197.014 490 198.843 488.634 Q200.672 487.245 200.672 484.652 Q200.672 481.99 198.774 480.578 Q196.899 479.143 193.38 479.143 Q191.459 479.143 189.26 479.56 Q187.061 479.977 184.422 480.856 L184.422 476.69 Q187.084 475.949 189.399 475.578 Q191.737 475.208 193.797 475.208 Q199.121 475.208 202.223 477.639 Q205.324 480.046 205.324 484.166 Q205.324 487.037 203.681 489.027 Q202.037 490.995 199.005 491.759 Z" fill="#000000" fill-rule="nonzero" fill-opacity="1" /><path clip-path="url(#clip400)" d="M146.019 382.612 L175.695 382.612 L175.695 386.547 L146.019 386.547 L146.019 382.612 Z" fill="#000000" fill-rule="nonzero" fill-opacity="1" /><path clip-path="url(#clip400)" d="M189.815 395.506 L206.135 395.506 L206.135 399.441 L184.19 399.441 L184.19 395.506 Q186.852 392.751 191.436 388.121 Q196.042 383.469 197.223 382.126 Q199.468 379.603 200.348 377.867 Q201.25 376.108 201.25 374.418 Q201.25 371.663 199.306 369.927 Q197.385 368.191 194.283 368.191 Q192.084 368.191 189.63 368.955 Q187.2 369.719 184.422 371.27 L184.422 366.547 Q187.246 365.413 189.7 364.834 Q192.153 364.256 194.19 364.256 Q199.561 364.256 202.755 366.941 Q205.949 369.626 205.949 374.117 Q205.949 376.246 205.139 378.168 Q204.352 380.066 202.246 382.658 Q201.667 383.33 198.565 386.547 Q195.463 389.742 189.815 395.506 Z" fill="#000000" fill-rule="nonzero" fill-opacity="1" /><path clip-path="url(#clip400)" d="M145.649 271.66 L175.325 271.66 L175.325 275.595 L145.649 275.595 L145.649 271.66 Z" fill="#000000" fill-rule="nonzero" fill-opacity="1" /><path clip-path="url(#clip400)" d="M186.227 284.553 L193.866 284.553 L193.866 258.188 L185.556 259.854 L185.556 255.595 L193.82 253.929 L198.496 253.929 L198.496 284.553 L206.135 284.553 L206.135 288.489 L186.227 288.489 L186.227 284.553 Z" fill="#000000" fill-rule="nonzero" fill-opacity="1" /><path clip-path="url(#clip400)" d="M194.19 146.055 Q190.579 146.055 188.75 149.62 Q186.945 153.161 186.945 160.291 Q186.945 167.397 188.75 170.962 Q190.579 174.504 194.19 174.504 Q197.825 174.504 199.63 170.962 Q201.459 167.397 201.459 160.291 Q201.459 153.161 199.63 149.62 Q197.825 146.055 194.19 146.055 M194.19 142.351 Q200 142.351 203.056 146.958 Q206.135 151.541 206.135 160.291 Q206.135 169.018 203.056 173.624 Q200 178.208 194.19 178.208 Q188.38 178.208 185.301 173.624 Q182.246 169.018 182.246 160.291 Q182.246 151.541 185.301 146.958 Q188.38 142.351 194.19 142.351 Z" fill="#000000" fill-rule="nonzero" fill-opacity="1" /><path clip-path="url(#clip400)" d="M16.4842 984.572 L16.4842 978.143 L58.5933 978.143 L58.5933 955.003 L64.0042 955.003 L64.0042 984.572 L16.4842 984.572 Z" fill="#000000" fill-rule="nonzero" fill-opacity="1" /><path clip-path="url(#clip400)" d="M32.4621 935.842 Q32.4621 940.553 36.1542 943.29 Q39.8145 946.028 46.212 946.028 Q52.6095 946.028 56.3017 943.322 Q59.9619 940.585 59.9619 935.842 Q59.9619 931.164 56.2698 928.426 Q52.5777 925.689 46.212 925.689 Q39.8781 925.689 36.186 928.426 Q32.4621 931.164 32.4621 935.842 M27.4968 935.842 Q27.4968 928.204 32.4621 923.843 Q37.4273 919.483 46.212 919.483 Q54.9649 919.483 59.9619 923.843 Q64.9272 928.204 64.9272 935.842 Q64.9272 943.513 59.9619 947.874 Q54.9649 952.202 46.212 952.202 Q37.4273 952.202 32.4621 947.874 Q27.4968 943.513 27.4968 935.842 Z" fill="#000000" fill-rule="nonzero" fill-opacity="1" /><path clip-path="url(#clip400)" d="M45.7664 886.317 Q39.4007 886.317 35.8996 888.959 Q32.3984 891.569 32.3984 896.311 Q32.3984 901.022 35.8996 903.664 Q39.4007 906.274 45.7664 906.274 Q52.1003 906.274 55.6014 903.664 Q59.1026 901.022 59.1026 896.311 Q59.1026 891.569 55.6014 888.959 Q52.1003 886.317 45.7664 886.317 M59.58 880.461 Q68.683 880.461 73.1071 884.503 Q77.5631 888.545 77.5631 896.884 Q77.5631 899.972 77.0857 902.709 Q76.6401 905.446 75.6852 908.024 L69.9879 908.024 Q71.3884 905.446 72.0568 902.932 Q72.7252 900.417 72.7252 897.807 Q72.7252 892.046 69.7015 889.182 Q66.7096 886.317 60.6303 886.317 L57.7339 886.317 Q60.885 888.132 62.4446 890.964 Q64.0042 893.797 64.0042 897.744 Q64.0042 904.3 59.0071 908.311 Q54.01 912.321 45.7664 912.321 Q37.491 912.321 32.4939 908.311 Q27.4968 904.3 27.4968 897.744 Q27.4968 893.797 29.0564 890.964 Q30.616 888.132 33.7671 886.317 L28.3562 886.317 L28.3562 880.461 L59.58 880.461 Z" fill="#000000" fill-rule="nonzero" fill-opacity="1" /><path clip-path="url(#clip400)" d="M60.503 869.575 L60.503 863.082 L41.0558 863.082 L42.3608 870.18 L38.6686 870.18 L37.4273 862.86 L37.4273 858.499 L60.503 858.499 L60.503 851.974 L64.0042 851.974 L64.0042 869.575 L60.503 869.575 Z" fill="#000000" fill-rule="nonzero" fill-opacity="1" /><path clip-path="url(#clip400)" d="M42.4562 830.267 Q39.719 831.859 39.719 835.073 Q39.719 838.288 42.4562 839.879 Q45.1935 841.503 50.668 841.503 Q56.1743 841.503 58.9116 839.879 Q61.6488 838.288 61.6488 835.073 Q61.6488 831.859 58.9116 830.267 Q56.1743 828.644 50.668 828.644 Q45.1935 828.644 42.4562 830.267 M36.8862 835.073 Q36.8862 829.949 40.4192 827.244 Q43.9522 824.538 50.668 824.538 Q57.4157 824.538 60.9486 827.244 Q64.4816 829.949 64.4816 835.073 Q64.4816 840.23 60.9486 842.935 Q57.4157 845.64 50.668 845.64 Q43.9522 845.64 40.4192 842.935 Q36.8862 840.23 36.8862 835.073 Z" fill="#000000" fill-rule="nonzero" fill-opacity="1" /><path clip-path="url(#clip400)" d="M14.5426 802.067 Q21.8632 806.332 29.0246 808.401 Q36.186 810.47 43.5384 810.47 Q50.8908 810.47 58.1159 808.401 Q65.3091 806.3 72.5979 802.067 L72.5979 807.16 Q65.1182 811.934 57.8931 814.321 Q50.668 816.676 43.5384 816.676 Q36.4406 816.676 29.2474 814.321 Q22.0542 811.966 14.5426 807.16 L14.5426 802.067 Z" fill="#000000" fill-rule="nonzero" fill-opacity="1" /><path clip-path="url(#clip400)" d="M41.7242 767.915 Q42.4244 765.846 44.7161 763.905 Q47.0077 761.931 51.0181 759.958 L64.0042 753.433 L64.0042 760.34 L51.8138 766.419 Q47.0395 768.775 45.48 771.003 Q43.9204 773.199 43.9204 777.018 L43.9204 784.02 L64.0042 784.02 L64.0042 790.45 L16.4842 790.45 L16.4842 775.936 Q16.4842 767.788 19.8898 763.777 Q23.2955 759.767 30.1704 759.767 Q34.6582 759.767 37.6183 761.868 Q40.5784 763.937 41.7242 767.915 M21.7677 784.02 L38.6368 784.02 L38.6368 775.936 Q38.6368 771.289 36.5043 768.934 Q34.34 766.547 30.1704 766.547 Q26.0009 766.547 23.9002 768.934 Q21.7677 771.289 21.7677 775.936 L21.7677 784.02 Z" fill="#000000" fill-rule="nonzero" fill-opacity="1" /><path clip-path="url(#clip400)" d="M44.7161 717.849 L47.5806 717.849 L47.5806 744.776 Q53.6281 744.394 56.8109 741.147 Q59.9619 737.869 59.9619 732.044 Q59.9619 728.671 59.1344 725.52 Q58.3069 722.337 56.6518 719.217 L62.1899 719.217 Q63.5267 722.369 64.227 725.679 Q64.9272 728.989 64.9272 732.394 Q64.9272 740.925 59.9619 745.922 Q54.9967 750.887 46.5303 750.887 Q37.7774 750.887 32.6531 746.176 Q27.4968 741.434 27.4968 733.413 Q27.4968 726.22 32.1438 722.05 Q36.7589 717.849 44.7161 717.849 M42.9973 723.705 Q38.1912 723.769 35.3266 726.411 Q32.4621 729.021 32.4621 733.349 Q32.4621 738.251 35.2312 741.211 Q38.0002 744.139 43.0292 744.585 L42.9973 723.705 Z" fill="#000000" fill-rule="nonzero" fill-opacity="1" /><path clip-path="url(#clip400)" d="M14.479 708.237 L14.479 702.38 L64.0042 702.38 L64.0042 708.237 L14.479 708.237 Z" fill="#000000" fill-rule="nonzero" fill-opacity="1" /><path clip-path="url(#clip400)" d="M16.4842 669.151 L16.4842 639.105 L21.895 639.105 L21.895 662.722 L35.9632 662.722 L35.9632 640.092 L41.3741 640.092 L41.3741 662.722 L58.5933 662.722 L58.5933 638.532 L64.0042 638.532 L64.0042 669.151 L16.4842 669.151 Z" fill="#000000" fill-rule="nonzero" fill-opacity="1" /><path clip-path="url(#clip400)" d="M33.8307 607.563 Q33.2578 608.55 33.0032 609.727 Q32.7167 610.873 32.7167 612.274 Q32.7167 617.239 35.9632 619.912 Q39.1779 622.554 45.2253 622.554 L64.0042 622.554 L64.0042 628.443 L28.3562 628.443 L28.3562 622.554 L33.8944 622.554 Q30.6479 620.708 29.0883 617.748 Q27.4968 614.788 27.4968 610.555 Q27.4968 609.95 27.5923 609.218 Q27.656 608.486 27.8151 607.595 L33.8307 607.563 Z" fill="#000000" fill-rule="nonzero" fill-opacity="1" /><path clip-path="url(#clip400)" d="M33.8307 581.909 Q33.2578 582.896 33.0032 584.074 Q32.7167 585.219 32.7167 586.62 Q32.7167 591.585 35.9632 594.259 Q39.1779 596.9 45.2253 596.9 L64.0042 596.9 L64.0042 602.789 L28.3562 602.789 L28.3562 596.9 L33.8944 596.9 Q30.6479 595.054 29.0883 592.094 Q27.4968 589.134 27.4968 584.901 Q27.4968 584.296 27.5923 583.564 Q27.656 582.832 27.8151 581.941 L33.8307 581.909 Z" fill="#000000" fill-rule="nonzero" fill-opacity="1" /><path clip-path="url(#clip400)" d="M14.5426 576.689 L14.5426 571.597 Q22.0542 566.822 29.2474 564.467 Q36.4406 562.08 43.5384 562.08 Q50.668 562.08 57.8931 564.467 Q65.1182 566.822 72.5979 571.597 L72.5979 576.689 Q65.3091 572.456 58.1159 570.387 Q50.8908 568.287 43.5384 568.287 Q36.186 568.287 29.0246 570.387 Q21.8632 572.456 14.5426 576.689 Z" fill="#000000" fill-rule="nonzero" fill-opacity="1" /><path clip-path="url(#clip400)" d="M506.819 16.7545 L506.819 25.383 Q502.687 21.5346 497.988 19.6307 Q493.329 17.7268 488.063 17.7268 Q477.693 17.7268 472.184 24.0867 Q466.674 30.4061 466.674 42.3968 Q466.674 54.3469 472.184 60.7069 Q477.693 67.0263 488.063 67.0263 Q493.329 67.0263 497.988 65.1223 Q502.687 63.2184 506.819 59.3701 L506.819 67.9175 Q502.525 70.8341 497.704 72.2924 Q492.924 73.7508 487.577 73.7508 Q473.844 73.7508 465.945 65.3654 Q458.046 56.9395 458.046 42.3968 Q458.046 27.8135 465.945 19.4281 Q473.844 11.0023 487.577 11.0023 Q493.005 11.0023 497.785 12.4606 Q502.606 13.8784 506.819 16.7545 Z" fill="#000000" fill-rule="nonzero" fill-opacity="1" /><path clip-path="url(#clip400)" d="M519.458 12.096 L530.476 12.096 L557.293 62.6918 L557.293 12.096 L565.233 12.096 L565.233 72.576 L554.214 72.576 L527.397 21.9802 L527.397 72.576 L519.458 72.576 L519.458 12.096 Z" fill="#000000" fill-rule="nonzero" fill-opacity="1" /><path clip-path="url(#clip400)" d="M606.066 17.6457 Q597.154 17.6457 591.888 24.2892 Q586.662 30.9327 586.662 42.3968 Q586.662 53.8203 591.888 60.4638 Q597.154 67.1073 606.066 67.1073 Q614.978 67.1073 620.163 60.4638 Q625.389 53.8203 625.389 42.3968 Q625.389 30.9327 620.163 24.2892 Q614.978 17.6457 606.066 17.6457 M606.066 11.0023 Q618.786 11.0023 626.402 19.5497 Q634.017 28.0566 634.017 42.3968 Q634.017 56.6965 626.402 65.2439 Q618.786 73.7508 606.066 73.7508 Q593.306 73.7508 585.649 65.2439 Q578.034 56.737 578.034 42.3968 Q578.034 28.0566 585.649 19.5497 Q593.306 11.0023 606.066 11.0023 Z" fill="#000000" fill-rule="nonzero" fill-opacity="1" /><path clip-path="url(#clip400)" d="M638.433 12.096 L689.596 12.096 L689.596 18.9825 L668.126 18.9825 L668.126 72.576 L659.902 72.576 L659.902 18.9825 L638.433 18.9825 L638.433 12.096 Z" fill="#000000" fill-rule="nonzero" fill-opacity="1" /><path clip-path="url(#clip400)" d="M685.788 46.5287 L707.622 46.5287 L707.622 53.1722 L685.788 53.1722 L685.788 46.5287 Z" fill="#000000" fill-rule="nonzero" fill-opacity="1" /><path clip-path="url(#clip400)" d="M727.593 65.6895 L756.152 65.6895 L756.152 72.576 L717.749 72.576 L717.749 65.6895 Q722.408 60.8689 730.429 52.7671 Q738.49 44.6248 740.556 42.2752 Q744.485 37.8598 746.025 34.8216 Q747.605 31.7429 747.605 28.7857 Q747.605 23.9651 744.202 20.927 Q740.84 17.8888 735.411 17.8888 Q731.563 17.8888 727.269 19.2256 Q723.016 20.5624 718.154 23.2765 L718.154 15.0127 Q723.097 13.0277 727.391 12.015 Q731.685 11.0023 735.249 11.0023 Q744.647 11.0023 750.238 15.7013 Q755.828 20.4004 755.828 28.2591 Q755.828 31.9859 754.41 35.3482 Q753.033 38.6699 749.346 43.2069 Q748.334 44.3817 742.906 50.0125 Q737.477 55.6027 727.593 65.6895 Z" fill="#000000" fill-rule="nonzero" fill-opacity="1" /><path clip-path="url(#clip400)" d="M800.55 62.2867 L809.097 62.2867 L809.097 72.576 L800.55 72.576 L800.55 62.2867 M800.55 29.6769 L809.097 29.6769 L809.097 39.9662 L800.55 39.9662 L800.55 29.6769 Z" fill="#000000" fill-rule="nonzero" fill-opacity="1" /><path clip-path="url(#clip400)" d="M889.548 14.0809 L889.548 22.0612 Q884.89 19.8332 880.758 18.7395 Q876.626 17.6457 872.777 17.6457 Q866.094 17.6457 862.448 20.2383 Q858.842 22.8309 858.842 27.611 Q858.842 31.6214 861.232 33.6873 Q863.663 35.7128 870.387 36.9686 L875.33 37.9813 Q884.485 39.7232 888.819 44.1387 Q893.194 48.5136 893.194 55.8863 Q893.194 64.6767 887.28 69.2137 Q881.406 73.7508 870.023 73.7508 Q865.729 73.7508 860.868 72.7785 Q856.047 71.8063 850.862 69.9024 L850.862 61.4765 Q855.845 64.2716 860.625 65.6895 Q865.405 67.1073 870.023 67.1073 Q877.031 67.1073 880.839 64.3527 Q884.647 61.598 884.647 56.4939 Q884.647 52.0379 881.892 49.5264 Q879.178 47.0148 872.94 45.759 L867.957 44.7868 Q858.802 42.9639 854.71 39.075 Q850.619 35.1862 850.619 28.2591 Q850.619 20.2383 856.25 15.6203 Q861.921 11.0023 871.846 11.0023 Q876.099 11.0023 880.515 11.7719 Q884.93 12.5416 889.548 14.0809 Z" fill="#000000" fill-rule="nonzero" fill-opacity="1" /><path clip-path="url(#clip400)" d="M913.003 14.324 L913.003 27.2059 L928.356 27.2059 L928.356 32.9987 L913.003 32.9987 L913.003 57.6282 Q913.003 63.1779 914.502 64.7578 Q916.041 66.3376 920.7 66.3376 L928.356 66.3376 L928.356 72.576 L920.7 72.576 Q912.071 72.576 908.79 69.3758 Q905.509 66.1351 905.509 57.6282 L905.509 32.9987 L900.04 32.9987 L900.04 27.2059 L905.509 27.2059 L905.509 14.324 L913.003 14.324 Z" fill="#000000" fill-rule="nonzero" fill-opacity="1" /><path clip-path="url(#clip400)" d="M976.967 48.0275 L976.967 51.6733 L942.696 51.6733 Q943.182 59.3701 947.314 63.421 Q951.487 67.4314 958.9 67.4314 Q963.194 67.4314 967.204 66.3781 Q971.255 65.3249 975.225 63.2184 L975.225 70.267 Q971.214 71.9684 967.002 72.8596 Q962.789 73.7508 958.454 73.7508 Q947.598 73.7508 941.238 67.4314 Q934.918 61.1119 934.918 50.3365 Q934.918 39.1965 940.914 32.6746 Q946.95 26.1121 957.158 26.1121 Q966.313 26.1121 971.62 32.0264 Q976.967 37.9003 976.967 48.0275 M969.513 45.84 Q969.432 39.7232 966.07 36.0774 Q962.748 32.4315 957.239 32.4315 Q951 32.4315 947.233 35.9558 Q943.506 39.4801 942.939 45.8805 L969.513 45.84 Z" fill="#000000" fill-rule="nonzero" fill-opacity="1" /><path clip-path="url(#clip400)" d="M996.411 65.7705 L996.411 89.8329 L988.917 89.8329 L988.917 27.2059 L996.411 27.2059 L996.411 34.0924 Q998.761 30.0415 1002.33 28.0971 Q1005.93 26.1121 1010.91 26.1121 Q1019.18 26.1121 1024.32 32.6746 Q1029.51 39.2371 1029.51 49.9314 Q1029.51 60.6258 1024.32 67.1883 Q1019.18 73.7508 1010.91 73.7508 Q1005.93 73.7508 1002.33 71.8063 Q998.761 69.8214 996.411 65.7705 M1021.77 49.9314 Q1021.77 41.7081 1018.37 37.0496 Q1015 32.3505 1009.09 32.3505 Q1003.18 32.3505 999.773 37.0496 Q996.411 41.7081 996.411 49.9314 Q996.411 58.1548 999.773 62.8538 Q1003.18 67.5124 1009.09 67.5124 Q1015 67.5124 1018.37 62.8538 Q1021.77 58.1548 1021.77 49.9314 Z" fill="#000000" fill-rule="nonzero" fill-opacity="1" /><path clip-path="url(#clip400)" d="M1104.81 14.0809 L1104.81 22.0612 Q1100.15 19.8332 1096.02 18.7395 Q1091.89 17.6457 1088.04 17.6457 Q1081.36 17.6457 1077.71 20.2383 Q1074.11 22.8309 1074.11 27.611 Q1074.11 31.6214 1076.5 33.6873 Q1078.93 35.7128 1085.65 36.9686 L1090.59 37.9813 Q1099.75 39.7232 1104.08 44.1387 Q1108.46 48.5136 1108.46 55.8863 Q1108.46 64.6767 1102.54 69.2137 Q1096.67 73.7508 1085.29 73.7508 Q1080.99 73.7508 1076.13 72.7785 Q1071.31 71.8063 1066.13 69.9024 L1066.13 61.4765 Q1071.11 64.2716 1075.89 65.6895 Q1080.67 67.1073 1085.29 67.1073 Q1092.3 67.1073 1096.1 64.3527 Q1099.91 61.598 1099.91 56.4939 Q1099.91 52.0379 1097.16 49.5264 Q1094.44 47.0148 1088.2 45.759 L1083.22 44.7868 Q1074.07 42.9639 1069.98 39.075 Q1065.88 35.1862 1065.88 28.2591 Q1065.88 20.2383 1071.51 15.6203 Q1077.19 11.0023 1087.11 11.0023 Q1091.36 11.0023 1095.78 11.7719 Q1100.2 12.5416 1104.81 14.0809 Z" fill="#000000" fill-rule="nonzero" fill-opacity="1" /><path clip-path="url(#clip400)" d="M1120.9 27.2059 L1128.35 27.2059 L1128.35 72.576 L1120.9 72.576 L1120.9 27.2059 M1120.9 9.54393 L1128.35 9.54393 L1128.35 18.9825 L1120.9 18.9825 L1120.9 9.54393 Z" fill="#000000" fill-rule="nonzero" fill-opacity="1" /><path clip-path="url(#clip400)" d="M1140.7 27.2059 L1176.11 27.2059 L1176.11 34.0114 L1148.08 66.6212 L1176.11 66.6212 L1176.11 72.576 L1139.69 72.576 L1139.69 65.7705 L1167.72 33.1607 L1140.7 33.1607 L1140.7 27.2059 Z" fill="#000000" fill-rule="nonzero" fill-opacity="1" /><path clip-path="url(#clip400)" d="M1226.3 48.0275 L1226.3 51.6733 L1192.03 51.6733 Q1192.52 59.3701 1196.65 63.421 Q1200.82 67.4314 1208.23 67.4314 Q1212.53 67.4314 1216.54 66.3781 Q1220.59 65.3249 1224.56 63.2184 L1224.56 70.267 Q1220.55 71.9684 1216.33 72.8596 Q1212.12 73.7508 1207.79 73.7508 Q1196.93 73.7508 1190.57 67.4314 Q1184.25 61.1119 1184.25 50.3365 Q1184.25 39.1965 1190.25 32.6746 Q1196.28 26.1121 1206.49 26.1121 Q1215.65 26.1121 1220.95 32.0264 Q1226.3 37.9003 1226.3 48.0275 M1218.85 45.84 Q1218.77 39.7232 1215.4 36.0774 Q1212.08 32.4315 1206.57 32.4315 Q1200.33 32.4315 1196.57 35.9558 Q1192.84 39.4801 1192.27 45.8805 L1218.85 45.84 Z" fill="#000000" fill-rule="nonzero" fill-opacity="1" /><path clip-path="url(#clip400)" d="M1259.56 27.2059 L1267.46 27.2059 L1281.64 65.2844 L1295.81 27.2059 L1303.71 27.2059 L1286.7 72.576 L1276.57 72.576 L1259.56 27.2059 Z" fill="#000000" fill-rule="nonzero" fill-opacity="1" /><path clip-path="url(#clip400)" d="M1342.93 28.5427 L1342.93 35.5912 Q1339.77 33.9709 1336.36 33.1607 Q1332.96 32.3505 1329.31 32.3505 Q1323.76 32.3505 1320.97 34.0519 Q1318.21 35.7533 1318.21 39.156 Q1318.21 41.7486 1320.2 43.2475 Q1322.18 44.7058 1328.18 46.0426 L1330.73 46.6097 Q1338.67 48.3111 1341.99 51.4303 Q1345.36 54.509 1345.36 60.0587 Q1345.36 66.3781 1340.33 70.0644 Q1335.35 73.7508 1326.6 73.7508 Q1322.95 73.7508 1318.98 73.0216 Q1315.06 72.3329 1310.68 70.9151 L1310.68 63.2184 Q1314.81 65.3654 1318.82 66.4591 Q1322.83 67.5124 1326.76 67.5124 Q1332.03 67.5124 1334.86 65.73 Q1337.7 63.9071 1337.7 60.6258 Q1337.7 57.5877 1335.63 55.9673 Q1333.61 54.3469 1326.68 52.8481 L1324.09 52.2405 Q1317.16 50.7821 1314.08 47.7845 Q1311 44.7463 1311 39.4801 Q1311 33.0797 1315.54 29.5959 Q1320.08 26.1121 1328.42 26.1121 Q1332.56 26.1121 1336.2 26.7198 Q1339.85 27.3274 1342.93 28.5427 Z" fill="#000000" fill-rule="nonzero" fill-opacity="1" /><path clip-path="url(#clip400)" d="M1383.92 12.096 L1422.16 12.096 L1422.16 18.9825 L1392.1 18.9825 L1392.1 36.8875 L1420.91 36.8875 L1420.91 43.7741 L1392.1 43.7741 L1392.1 65.6895 L1422.89 65.6895 L1422.89 72.576 L1383.92 72.576 L1383.92 12.096 Z" fill="#000000" fill-rule="nonzero" fill-opacity="1" /><path clip-path="url(#clip400)" d="M1462.31 34.1734 Q1461.05 33.4443 1459.55 33.1202 Q1458.09 32.7556 1456.31 32.7556 Q1449.99 32.7556 1446.59 36.8875 Q1443.23 40.9789 1443.23 48.6757 L1443.23 72.576 L1435.73 72.576 L1435.73 27.2059 L1443.23 27.2059 L1443.23 34.2544 Q1445.58 30.1225 1449.34 28.1376 Q1453.11 26.1121 1458.5 26.1121 Q1459.27 26.1121 1460.2 26.2337 Q1461.13 26.3147 1462.27 26.5172 L1462.31 34.1734 Z" fill="#000000" fill-rule="nonzero" fill-opacity="1" /><path clip-path="url(#clip400)" d="M1494.96 34.1734 Q1493.7 33.4443 1492.2 33.1202 Q1490.74 32.7556 1488.96 32.7556 Q1482.64 32.7556 1479.24 36.8875 Q1475.88 40.9789 1475.88 48.6757 L1475.88 72.576 L1468.38 72.576 L1468.38 27.2059 L1475.88 27.2059 L1475.88 34.2544 Q1478.23 30.1225 1481.99 28.1376 Q1485.76 26.1121 1491.15 26.1121 Q1491.92 26.1121 1492.85 26.2337 Q1493.78 26.3147 1494.92 26.5172 L1494.96 34.1734 Z" fill="#000000" fill-rule="nonzero" fill-opacity="1" /><path clip-path="url(#clip400)" d="M1518.53 32.4315 Q1512.54 32.4315 1509.05 37.1306 Q1505.57 41.7891 1505.57 49.9314 Q1505.57 58.0738 1509.01 62.7728 Q1512.5 67.4314 1518.53 67.4314 Q1524.49 67.4314 1527.97 62.7323 Q1531.45 58.0333 1531.45 49.9314 Q1531.45 41.8701 1527.97 37.1711 Q1524.49 32.4315 1518.53 32.4315 M1518.53 26.1121 Q1528.25 26.1121 1533.8 32.4315 Q1539.35 38.7509 1539.35 49.9314 Q1539.35 61.0714 1533.8 67.4314 Q1528.25 73.7508 1518.53 73.7508 Q1508.77 73.7508 1503.22 67.4314 Q1497.71 61.0714 1497.71 49.9314 Q1497.71 38.7509 1503.22 32.4315 Q1508.77 26.1121 1518.53 26.1121 Z" fill="#000000" fill-rule="nonzero" fill-opacity="1" /><path clip-path="url(#clip400)" d="M1578 34.1734 Q1576.74 33.4443 1575.24 33.1202 Q1573.79 32.7556 1572 32.7556 Q1565.68 32.7556 1562.28 36.8875 Q1558.92 40.9789 1558.92 48.6757 L1558.92 72.576 L1551.43 72.576 L1551.43 27.2059 L1558.92 27.2059 L1558.92 34.2544 Q1561.27 30.1225 1565.04 28.1376 Q1568.8 26.1121 1574.19 26.1121 Q1574.96 26.1121 1575.89 26.2337 Q1576.82 26.3147 1577.96 26.5172 L1578 34.1734 Z" fill="#000000" fill-rule="nonzero" fill-opacity="1" /><polyline clip-path="url(#clip402)" style="stroke:#009af9; stroke-linecap:round; stroke-linejoin:round; stroke-width:4; stroke-opacity:1; fill:none" points="1708.56,228.358 1609.91,235.41 1511.26,234.707 1412.62,272.75 1313.97,333.185 1215.32,395.364 1116.67,454.202 1018.02,519.851 919.374,586.499 820.726,653.275 722.078,720.064 623.43,786.752 524.782,854.293 426.133,919.833 327.485,986.633 "/>
<circle clip-path="url(#clip402)" cx="1708.56" cy="228.358" r="18" fill="#009af9" fill-rule="evenodd" fill-opacity="1" stroke="#000000" stroke-opacity="1" stroke-width="3.2"/>
<circle clip-path="url(#clip402)" cx="1609.91" cy="235.41" r="18" fill="#009af9" fill-rule="evenodd" fill-opacity="1" stroke="#000000" stroke-opacity="1" stroke-width="3.2"/>
<circle clip-path="url(#clip402)" cx="1511.26" cy="234.707" r="18" fill="#009af9" fill-rule="evenodd" fill-opacity="1" stroke="#000000" stroke-opacity="1" stroke-width="3.2"/>
<circle clip-path="url(#clip402)" cx="1412.62" cy="272.75" r="18" fill="#009af9" fill-rule="evenodd" fill-opacity="1" stroke="#000000" stroke-opacity="1" stroke-width="3.2"/>
<circle clip-path="url(#clip402)" cx="1313.97" cy="333.185" r="18" fill="#009af9" fill-rule="evenodd" fill-opacity="1" stroke="#000000" stroke-opacity="1" stroke-width="3.2"/>
<circle clip-path="url(#clip402)" cx="1215.32" cy="395.364" r="18" fill="#009af9" fill-rule="evenodd" fill-opacity="1" stroke="#000000" stroke-opacity="1" stroke-width="3.2"/>
<circle clip-path="url(#clip402)" cx="1116.67" cy="454.202" r="18" fill="#009af9" fill-rule="evenodd" fill-opacity="1" stroke="#000000" stroke-opacity="1" stroke-width="3.2"/>
<circle clip-path="url(#clip402)" cx="1018.02" cy="519.851" r="18" fill="#009af9" fill-rule="evenodd" fill-opacity="1" stroke="#000000" stroke-opacity="1" stroke-width="3.2"/>
<circle clip-path="url(#clip402)" cx="919.374" cy="586.499" r="18" fill="#009af9" fill-rule="evenodd" fill-opacity="1" stroke="#000000" stroke-opacity="1" stroke-width="3.2"/>
<circle clip-path="url(#clip402)" cx="820.726" cy="653.275" r="18" fill="#009af9" fill-rule="evenodd" fill-opacity="1" stroke="#000000" stroke-opacity="1" stroke-width="3.2"/>
<circle clip-path="url(#clip402)" cx="722.078" cy="720.064" r="18" fill="#009af9" fill-rule="evenodd" fill-opacity="1" stroke="#000000" stroke-opacity="1" stroke-width="3.2"/>
<circle clip-path="url(#clip402)" cx="623.43" cy="786.752" r="18" fill="#009af9" fill-rule="evenodd" fill-opacity="1" stroke="#000000" stroke-opacity="1" stroke-width="3.2"/>
<circle clip-path="url(#clip402)" cx="524.782" cy="854.293" r="18" fill="#009af9" fill-rule="evenodd" fill-opacity="1" stroke="#000000" stroke-opacity="1" stroke-width="3.2"/>
<circle clip-path="url(#clip402)" cx="426.133" cy="919.833" r="18" fill="#009af9" fill-rule="evenodd" fill-opacity="1" stroke="#000000" stroke-opacity="1" stroke-width="3.2"/>
<circle clip-path="url(#clip402)" cx="327.485" cy="986.633" r="18" fill="#009af9" fill-rule="evenodd" fill-opacity="1" stroke="#000000" stroke-opacity="1" stroke-width="3.2"/>
<polyline clip-path="url(#clip402)" style="stroke:#e26f46; stroke-linecap:round; stroke-linejoin:round; stroke-width:4; stroke-opacity:1; fill:none" points="1708.56,292.134 1609.91,324.74 1511.26,421.254 1412.62,512.426 1313.97,566.603 1215.32,691.747 1116.67,822.161 1018.02,955.206 919.374,1088.74 820.726,1199.85 722.078,1123.27 623.43,1060.97 524.782,1079.32 426.133,1136.16 327.485,1202.96 "/>
<circle clip-path="url(#clip402)" cx="1708.56" cy="292.134" r="18" fill="#e26f46" fill-rule="evenodd" fill-opacity="1" stroke="#000000" stroke-opacity="1" stroke-width="3.2"/>
<circle clip-path="url(#clip402)" cx="1609.91" cy="324.74" r="18" fill="#e26f46" fill-rule="evenodd" fill-opacity="1" stroke="#000000" stroke-opacity="1" stroke-width="3.2"/>
<circle clip-path="url(#clip402)" cx="1511.26" cy="421.254" r="18" fill="#e26f46" fill-rule="evenodd" fill-opacity="1" stroke="#000000" stroke-opacity="1" stroke-width="3.2"/>
<circle clip-path="url(#clip402)" cx="1412.62" cy="512.426" r="18" fill="#e26f46" fill-rule="evenodd" fill-opacity="1" stroke="#000000" stroke-opacity="1" stroke-width="3.2"/>
<circle clip-path="url(#clip402)" cx="1313.97" cy="566.603" r="18" fill="#e26f46" fill-rule="evenodd" fill-opacity="1" stroke="#000000" stroke-opacity="1" stroke-width="3.2"/>
<circle clip-path="url(#clip402)" cx="1215.32" cy="691.747" r="18" fill="#e26f46" fill-rule="evenodd" fill-opacity="1" stroke="#000000" stroke-opacity="1" stroke-width="3.2"/>
<circle clip-path="url(#clip402)" cx="1116.67" cy="822.161" r="18" fill="#e26f46" fill-rule="evenodd" fill-opacity="1" stroke="#000000" stroke-opacity="1" stroke-width="3.2"/>
<circle clip-path="url(#clip402)" cx="1018.02" cy="955.206" r="18" fill="#e26f46" fill-rule="evenodd" fill-opacity="1" stroke="#000000" stroke-opacity="1" stroke-width="3.2"/>
<circle clip-path="url(#clip402)" cx="919.374" cy="1088.74" r="18" fill="#e26f46" fill-rule="evenodd" fill-opacity="1" stroke="#000000" stroke-opacity="1" stroke-width="3.2"/>
<circle clip-path="url(#clip402)" cx="820.726" cy="1199.85" r="18" fill="#e26f46" fill-rule="evenodd" fill-opacity="1" stroke="#000000" stroke-opacity="1" stroke-width="3.2"/>
<circle clip-path="url(#clip402)" cx="722.078" cy="1123.27" r="18" fill="#e26f46" fill-rule="evenodd" fill-opacity="1" stroke="#000000" stroke-opacity="1" stroke-width="3.2"/>
<circle clip-path="url(#clip402)" cx="623.43" cy="1060.97" r="18" fill="#e26f46" fill-rule="evenodd" fill-opacity="1" stroke="#000000" stroke-opacity="1" stroke-width="3.2"/>
<circle clip-path="url(#clip402)" cx="524.782" cy="1079.32" r="18" fill="#e26f46" fill-rule="evenodd" fill-opacity="1" stroke="#000000" stroke-opacity="1" stroke-width="3.2"/>
<circle clip-path="url(#clip402)" cx="426.133" cy="1136.16" r="18" fill="#e26f46" fill-rule="evenodd" fill-opacity="1" stroke="#000000" stroke-opacity="1" stroke-width="3.2"/>
<circle clip-path="url(#clip402)" cx="327.485" cy="1202.96" r="18" fill="#e26f46" fill-rule="evenodd" fill-opacity="1" stroke="#000000" stroke-opacity="1" stroke-width="3.2"/>
<polyline clip-path="url(#clip402)" style="stroke:#3da44d; stroke-linecap:round; stroke-linejoin:round; stroke-width:4; stroke-opacity:1; fill:none" points="1708.56,369.833 1609.91,494.235 1511.26,586.747 1412.62,636.959 1313.97,811.931 1215.32,985.261 1116.67,1182.24 1018.02,1280.3 919.374,1272.08 820.726,1282.04 722.078,1192.5 623.43,1130.09 524.782,1148.44 426.133,1205.32 327.485,1272.11 "/>
<circle clip-path="url(#clip402)" cx="1708.56" cy="369.833" r="18" fill="#3da44d" fill-rule="evenodd" fill-opacity="1" stroke="#000000" stroke-opacity="1" stroke-width="3.2"/>
<circle clip-path="url(#clip402)" cx="1609.91" cy="494.235" r="18" fill="#3da44d" fill-rule="evenodd" fill-opacity="1" stroke="#000000" stroke-opacity="1" stroke-width="3.2"/>
<circle clip-path="url(#clip402)" cx="1511.26" cy="586.747" r="18" fill="#3da44d" fill-rule="evenodd" fill-opacity="1" stroke="#000000" stroke-opacity="1" stroke-width="3.2"/>
<circle clip-path="url(#clip402)" cx="1412.62" cy="636.959" r="18" fill="#3da44d" fill-rule="evenodd" fill-opacity="1" stroke="#000000" stroke-opacity="1" stroke-width="3.2"/>
<circle clip-path="url(#clip402)" cx="1313.97" cy="811.931" r="18" fill="#3da44d" fill-rule="evenodd" fill-opacity="1" stroke="#000000" stroke-opacity="1" stroke-width="3.2"/>
<circle clip-path="url(#clip402)" cx="1215.32" cy="985.261" r="18" fill="#3da44d" fill-rule="evenodd" fill-opacity="1" stroke="#000000" stroke-opacity="1" stroke-width="3.2"/>
<circle clip-path="url(#clip402)" cx="1116.67" cy="1182.24" r="18" fill="#3da44d" fill-rule="evenodd" fill-opacity="1" stroke="#000000" stroke-opacity="1" stroke-width="3.2"/>
<circle clip-path="url(#clip402)" cx="1018.02" cy="1280.3" r="18" fill="#3da44d" fill-rule="evenodd" fill-opacity="1" stroke="#000000" stroke-opacity="1" stroke-width="3.2"/>
<circle clip-path="url(#clip402)" cx="919.374" cy="1272.08" r="18" fill="#3da44d" fill-rule="evenodd" fill-opacity="1" stroke="#000000" stroke-opacity="1" stroke-width="3.2"/>
<circle clip-path="url(#clip402)" cx="820.726" cy="1282.04" r="18" fill="#3da44d" fill-rule="evenodd" fill-opacity="1" stroke="#000000" stroke-opacity="1" stroke-width="3.2"/>
<circle clip-path="url(#clip402)" cx="722.078" cy="1192.5" r="18" fill="#3da44d" fill-rule="evenodd" fill-opacity="1" stroke="#000000" stroke-opacity="1" stroke-width="3.2"/>
<circle clip-path="url(#clip402)" cx="623.43" cy="1130.09" r="18" fill="#3da44d" fill-rule="evenodd" fill-opacity="1" stroke="#000000" stroke-opacity="1" stroke-width="3.2"/>
<circle clip-path="url(#clip402)" cx="524.782" cy="1148.44" r="18" fill="#3da44d" fill-rule="evenodd" fill-opacity="1" stroke="#000000" stroke-opacity="1" stroke-width="3.2"/>
<circle clip-path="url(#clip402)" cx="426.133" cy="1205.32" r="18" fill="#3da44d" fill-rule="evenodd" fill-opacity="1" stroke="#000000" stroke-opacity="1" stroke-width="3.2"/>
<circle clip-path="url(#clip402)" cx="327.485" cy="1272.11" r="18" fill="#3da44d" fill-rule="evenodd" fill-opacity="1" stroke="#000000" stroke-opacity="1" stroke-width="3.2"/>
<polyline clip-path="url(#clip402)" style="stroke:#c271d2; stroke-linecap:round; stroke-linejoin:round; stroke-width:4; stroke-opacity:1; fill:none" points="1708.56,492.773 1609.91,623.794 1511.26,659.326 1412.62,845.582 1313.97,1012.1 1215.32,1264.06 1116.67,1386.4 1018.02,1351.05 919.374,1340.08 820.726,1348.69 722.078,1259.88 623.43,1197.46 524.782,1215.81 426.133,1272.69 327.485,1339.48 "/>
<circle clip-path="url(#clip402)" cx="1708.56" cy="492.773" r="18" fill="#c271d2" fill-rule="evenodd" fill-opacity="1" stroke="#000000" stroke-opacity="1" stroke-width="3.2"/>
<circle clip-path="url(#clip402)" cx="1609.91" cy="623.794" r="18" fill="#c271d2" fill-rule="evenodd" fill-opacity="1" stroke="#000000" stroke-opacity="1" stroke-width="3.2"/>
<circle clip-path="url(#clip402)" cx="1511.26" cy="659.326" r="18" fill="#c271d2" fill-rule="evenodd" fill-opacity="1" stroke="#000000" stroke-opacity="1" stroke-width="3.2"/>
<circle clip-path="url(#clip402)" cx="1412.62" cy="845.582" r="18" fill="#c271d2" fill-rule="evenodd" fill-opacity="1" stroke="#000000" stroke-opacity="1" stroke-width="3.2"/>
<circle clip-path="url(#clip402)" cx="1313.97" cy="1012.1" r="18" fill="#c271d2" fill-rule="evenodd" fill-opacity="1" stroke="#000000" stroke-opacity="1" stroke-width="3.2"/>
<circle clip-path="url(#clip402)" cx="1215.32" cy="1264.06" r="18" fill="#c271d2" fill-rule="evenodd" fill-opacity="1" stroke="#000000" stroke-opacity="1" stroke-width="3.2"/>
<circle clip-path="url(#clip402)" cx="1116.67" cy="1386.4" r="18" fill="#c271d2" fill-rule="evenodd" fill-opacity="1" stroke="#000000" stroke-opacity="1" stroke-width="3.2"/>
<circle clip-path="url(#clip402)" cx="1018.02" cy="1351.05" r="18" fill="#c271d2" fill-rule="evenodd" fill-opacity="1" stroke="#000000" stroke-opacity="1" stroke-width="3.2"/>
<circle clip-path="url(#clip402)" cx="919.374" cy="1340.08" r="18" fill="#c271d2" fill-rule="evenodd" fill-opacity="1" stroke="#000000" stroke-opacity="1" stroke-width="3.2"/>
<circle clip-path="url(#clip402)" cx="820.726" cy="1348.69" r="18" fill="#c271d2" fill-rule="evenodd" fill-opacity="1" stroke="#000000" stroke-opacity="1" stroke-width="3.2"/>
<circle clip-path="url(#clip402)" cx="722.078" cy="1259.88" r="18" fill="#c271d2" fill-rule="evenodd" fill-opacity="1" stroke="#000000" stroke-opacity="1" stroke-width="3.2"/>
<circle clip-path="url(#clip402)" cx="623.43" cy="1197.46" r="18" fill="#c271d2" fill-rule="evenodd" fill-opacity="1" stroke="#000000" stroke-opacity="1" stroke-width="3.2"/>
<circle clip-path="url(#clip402)" cx="524.782" cy="1215.81" r="18" fill="#c271d2" fill-rule="evenodd" fill-opacity="1" stroke="#000000" stroke-opacity="1" stroke-width="3.2"/>
<circle clip-path="url(#clip402)" cx="426.133" cy="1272.69" r="18" fill="#c271d2" fill-rule="evenodd" fill-opacity="1" stroke="#000000" stroke-opacity="1" stroke-width="3.2"/>
<circle clip-path="url(#clip402)" cx="327.485" cy="1339.48" r="18" fill="#c271d2" fill-rule="evenodd" fill-opacity="1" stroke="#000000" stroke-opacity="1" stroke-width="3.2"/>
<polyline clip-path="url(#clip402)" style="stroke:#ff0000; stroke-linecap:round; stroke-linejoin:round; stroke-width:4; stroke-opacity:1; fill:none" points="286.053,936.922 1749.99,936.922 "/>
<polyline clip-path="url(#clip402)" style="stroke:#000000; stroke-linecap:round; stroke-linejoin:round; stroke-width:4; stroke-opacity:1; fill:none" points="1708.56,227.056 1609.91,227.056 1511.26,227.056 1412.62,227.056 1313.97,227.056 1215.32,160.256 1116.67,160.256 1018.02,556.759 919.374,623.578 820.726,690.387 722.078,757.19 623.43,823.99 524.782,890.79 426.133,957.59 327.485,1024.39 "/>
<path clip-path="url(#clip402)" d="M1708.56 207.056 L1703.86 220.576 L1689.54 220.876 L1700.96 229.536 L1696.8 243.236 L1708.56 235.056 L1720.32 243.236 L1716.16 229.536 L1727.58 220.876 L1713.26 220.576 L1708.56 207.056 Z" fill="#000000" fill-rule="evenodd" fill-opacity="1" stroke="none"/>
<path clip-path="url(#clip402)" d="M1609.91 207.056 L1605.21 220.576 L1590.89 220.876 L1602.31 229.536 L1598.15 243.236 L1609.91 235.056 L1621.67 243.236 L1617.51 229.536 L1628.93 220.876 L1614.61 220.576 L1609.91 207.056 Z" fill="#000000" fill-rule="evenodd" fill-opacity="1" stroke="none"/>
<path clip-path="url(#clip402)" d="M1511.26 207.056 L1506.56 220.576 L1492.24 220.876 L1503.66 229.536 L1499.5 243.236 L1511.26 235.056 L1523.02 243.236 L1518.86 229.536 L1530.28 220.876 L1515.96 220.576 L1511.26 207.056 Z" fill="#000000" fill-rule="evenodd" fill-opacity="1" stroke="none"/>
<path clip-path="url(#clip402)" d="M1412.62 207.056 L1407.92 220.576 L1393.6 220.876 L1405.02 229.536 L1400.86 243.236 L1412.62 235.056 L1424.38 243.236 L1420.22 229.536 L1431.64 220.876 L1417.32 220.576 L1412.62 207.056 Z" fill="#000000" fill-rule="evenodd" fill-opacity="1" stroke="none"/>
<path clip-path="url(#clip402)" d="M1313.97 207.056 L1309.27 220.576 L1294.95 220.876 L1306.37 229.536 L1302.21 243.236 L1313.97 235.056 L1325.73 243.236 L1321.57 229.536 L1332.99 220.876 L1318.67 220.576 L1313.97 207.056 Z" fill="#000000" fill-rule="evenodd" fill-opacity="1" stroke="none"/>
<path clip-path="url(#clip402)" d="M1215.32 140.256 L1210.62 153.776 L1196.3 154.076 L1207.72 162.736 L1203.56 176.436 L1215.32 168.256 L1227.08 176.436 L1222.92 162.736 L1234.34 154.076 L1220.02 153.776 L1215.32 140.256 Z" fill="#000000" fill-rule="evenodd" fill-opacity="1" stroke="none"/>
<path clip-path="url(#clip402)" d="M1116.67 140.256 L1111.97 153.776 L1097.65 154.076 L1109.07 162.736 L1104.91 176.436 L1116.67 168.256 L1128.43 176.436 L1124.27 162.736 L1135.69 154.076 L1121.37 153.776 L1116.67 140.256 Z" fill="#000000" fill-rule="evenodd" fill-opacity="1" stroke="none"/>
<path clip-path="url(#clip402)" d="M1018.02 536.759 L1013.32 550.279 L999.003 550.579 L1010.42 559.239 L1006.26 572.939 L1018.02 564.759 L1029.78 572.939 L1025.62 559.239 L1037.04 550.579 L1022.72 550.279 L1018.02 536.759 Z" fill="#000000" fill-rule="evenodd" fill-opacity="1" stroke="none"/>
<path clip-path="url(#clip402)" d="M919.374 603.578 L914.674 617.098 L900.354 617.398 L911.774 626.058 L907.614 639.758 L919.374 631.578 L931.134 639.758 L926.974 626.058 L938.394 617.398 L924.074 617.098 L919.374 603.578 Z" fill="#000000" fill-rule="evenodd" fill-opacity="1" stroke="none"/>
<path clip-path="url(#clip402)" d="M820.726 670.387 L816.026 683.907 L801.706 684.207 L813.126 692.867 L808.966 706.567 L820.726 698.387 L832.486 706.567 L828.326 692.867 L839.746 684.207 L825.426 683.907 L820.726 670.387 Z" fill="#000000" fill-rule="evenodd" fill-opacity="1" stroke="none"/>
<path clip-path="url(#clip402)" d="M722.078 737.19 L717.378 750.71 L703.058 751.01 L714.478 759.67 L710.318 773.37 L722.078 765.19 L733.838 773.37 L729.678 759.67 L741.098 751.01 L726.778 750.71 L722.078 737.19 Z" fill="#000000" fill-rule="evenodd" fill-opacity="1" stroke="none"/>
<path clip-path="url(#clip402)" d="M623.43 803.99 L618.73 817.51 L604.41 817.81 L615.83 826.47 L611.67 840.17 L623.43 831.99 L635.19 840.17 L631.03 826.47 L642.45 817.81 L628.13 817.51 L623.43 803.99 Z" fill="#000000" fill-rule="evenodd" fill-opacity="1" stroke="none"/>
<path clip-path="url(#clip402)" d="M524.782 870.79 L520.082 884.31 L505.762 884.61 L517.182 893.27 L513.022 906.97 L524.782 898.79 L536.542 906.97 L532.382 893.27 L543.802 884.61 L529.482 884.31 L524.782 870.79 Z" fill="#000000" fill-rule="evenodd" fill-opacity="1" stroke="none"/>
<path clip-path="url(#clip402)" d="M426.133 937.59 L421.433 951.11 L407.113 951.41 L418.533 960.07 L414.373 973.77 L426.133 965.59 L437.893 973.77 L433.733 960.07 L445.153 951.41 L430.833 951.11 L426.133 937.59 Z" fill="#000000" fill-rule="evenodd" fill-opacity="1" stroke="none"/>
<path clip-path="url(#clip402)" d="M327.485 1004.39 L322.785 1017.91 L308.465 1018.21 L319.885 1026.87 L315.725 1040.57 L327.485 1032.39 L339.245 1040.57 L335.085 1026.87 L346.505 1018.21 L332.185 1017.91 L327.485 1004.39 Z" fill="#000000" fill-rule="evenodd" fill-opacity="1" stroke="none"/>
<path clip-path="url(#clip400)" d="M1864.26 972.17 L2352.76 972.17 L2352.76 609.29 L1864.26 609.29  Z" fill="#ffffff" fill-rule="evenodd" fill-opacity="1"/>
<polyline clip-path="url(#clip400)" style="stroke:#000000; stroke-linecap:round; stroke-linejoin:round; stroke-width:4; stroke-opacity:1; fill:none" points="1864.26,972.17 2352.76,972.17 2352.76,609.29 1864.26,609.29 1864.26,972.17 "/>
<polyline clip-path="url(#clip400)" style="stroke:#009af9; stroke-linecap:round; stroke-linejoin:round; stroke-width:4; stroke-opacity:1; fill:none" points="1887.72,661.13 2028.42,661.13 "/>
<circle clip-path="url(#clip400)" cx="1958.07" cy="661.13" r="19.5428" fill="#009af9" fill-rule="evenodd" fill-opacity="1" stroke="#000000" stroke-opacity="1" stroke-width="3.72364"/>
<path clip-path="url(#clip400)" d="M2051.88 643.85 L2056.55 643.85 L2056.55 658.016 L2073.54 658.016 L2073.54 643.85 L2078.22 643.85 L2078.22 678.41 L2073.54 678.41 L2073.54 661.951 L2056.55 661.951 L2056.55 678.41 L2051.88 678.41 L2051.88 643.85 Z" fill="#000000" fill-rule="nonzero" fill-opacity="1" /><path clip-path="url(#clip400)" d="M2109.51 664.382 L2109.51 666.465 L2089.93 666.465 Q2090.21 670.863 2092.57 673.178 Q2094.95 675.47 2099.19 675.47 Q2101.64 675.47 2103.94 674.868 Q2106.25 674.266 2108.52 673.062 L2108.52 677.09 Q2106.23 678.062 2103.82 678.572 Q2101.41 679.081 2098.94 679.081 Q2092.73 679.081 2089.1 675.47 Q2085.49 671.859 2085.49 665.701 Q2085.49 659.336 2088.91 655.609 Q2092.36 651.859 2098.19 651.859 Q2103.43 651.859 2106.46 655.238 Q2109.51 658.595 2109.51 664.382 M2105.25 663.132 Q2105.21 659.637 2103.29 657.553 Q2101.39 655.47 2098.24 655.47 Q2094.68 655.47 2092.52 657.484 Q2090.39 659.498 2090.07 663.155 L2105.25 663.132 Z" fill="#000000" fill-rule="nonzero" fill-opacity="1" /><path clip-path="url(#clip400)" d="M2131.53 656.465 Q2130.81 656.049 2129.95 655.863 Q2129.12 655.655 2128.1 655.655 Q2124.49 655.655 2122.55 658.016 Q2120.63 660.354 2120.63 664.752 L2120.63 678.41 L2116.34 678.41 L2116.34 652.484 L2120.63 652.484 L2120.63 656.512 Q2121.97 654.15 2124.12 653.016 Q2126.27 651.859 2129.35 651.859 Q2129.79 651.859 2130.32 651.928 Q2130.86 651.975 2131.5 652.09 L2131.53 656.465 Z" fill="#000000" fill-rule="nonzero" fill-opacity="1" /><path clip-path="url(#clip400)" d="M2155.35 657.461 Q2156.94 654.59 2159.17 653.225 Q2161.39 651.859 2164.4 651.859 Q2168.45 651.859 2170.65 654.706 Q2172.85 657.53 2172.85 662.762 L2172.85 678.41 L2168.56 678.41 L2168.56 662.9 Q2168.56 659.174 2167.25 657.368 Q2165.93 655.562 2163.22 655.562 Q2159.91 655.562 2157.99 657.762 Q2156.06 659.961 2156.06 663.757 L2156.06 678.41 L2151.78 678.41 L2151.78 662.9 Q2151.78 659.15 2150.46 657.368 Q2149.14 655.562 2146.39 655.562 Q2143.13 655.562 2141.2 657.785 Q2139.28 659.984 2139.28 663.757 L2139.28 678.41 L2135 678.41 L2135 652.484 L2139.28 652.484 L2139.28 656.512 Q2140.74 654.127 2142.78 652.993 Q2144.81 651.859 2147.62 651.859 Q2150.44 651.859 2152.41 653.294 Q2154.4 654.729 2155.35 657.461 Z" fill="#000000" fill-rule="nonzero" fill-opacity="1" /><path clip-path="url(#clip400)" d="M2181.34 652.484 L2185.6 652.484 L2185.6 678.41 L2181.34 678.41 L2181.34 652.484 M2181.34 642.391 L2185.6 642.391 L2185.6 647.785 L2181.34 647.785 L2181.34 642.391 Z" fill="#000000" fill-rule="nonzero" fill-opacity="1" /><path clip-path="url(#clip400)" d="M2198.73 645.123 L2198.73 652.484 L2207.5 652.484 L2207.5 655.794 L2198.73 655.794 L2198.73 669.868 Q2198.73 673.039 2199.58 673.942 Q2200.46 674.845 2203.12 674.845 L2207.5 674.845 L2207.5 678.41 L2203.12 678.41 Q2198.19 678.41 2196.32 676.581 Q2194.44 674.729 2194.44 669.868 L2194.44 655.794 L2191.32 655.794 L2191.32 652.484 L2194.44 652.484 L2194.44 645.123 L2198.73 645.123 Z" fill="#000000" fill-rule="nonzero" fill-opacity="1" /><path clip-path="url(#clip400)" d="M2235.28 664.382 L2235.28 666.465 L2215.69 666.465 Q2215.97 670.863 2218.33 673.178 Q2220.72 675.47 2224.95 675.47 Q2227.41 675.47 2229.7 674.868 Q2232.01 674.266 2234.28 673.062 L2234.28 677.09 Q2231.99 678.062 2229.58 678.572 Q2227.18 679.081 2224.7 679.081 Q2218.49 679.081 2214.86 675.47 Q2211.25 671.859 2211.25 665.701 Q2211.25 659.336 2214.68 655.609 Q2218.12 651.859 2223.96 651.859 Q2229.19 651.859 2232.22 655.238 Q2235.28 658.595 2235.28 664.382 M2231.02 663.132 Q2230.97 659.637 2229.05 657.553 Q2227.15 655.47 2224 655.47 Q2220.44 655.47 2218.29 657.484 Q2216.16 659.498 2215.83 663.155 L2231.02 663.132 Z" fill="#000000" fill-rule="nonzero" fill-opacity="1" /><path clip-path="url(#clip400)" d="M2240.12 663.525 L2252.59 663.525 L2252.59 667.322 L2240.12 667.322 L2240.12 663.525 Z" fill="#000000" fill-rule="nonzero" fill-opacity="1" /><path clip-path="url(#clip400)" d="M2264 674.474 L2280.32 674.474 L2280.32 678.41 L2258.38 678.41 L2258.38 674.474 Q2261.04 671.72 2265.62 667.09 Q2270.23 662.437 2271.41 661.095 Q2273.66 658.572 2274.54 656.836 Q2275.44 655.076 2275.44 653.387 Q2275.44 650.632 2273.49 648.896 Q2271.57 647.16 2268.47 647.16 Q2266.27 647.16 2263.82 647.924 Q2261.39 648.688 2258.61 650.238 L2258.61 645.516 Q2261.43 644.382 2263.89 643.803 Q2266.34 643.225 2268.38 643.225 Q2273.75 643.225 2276.94 645.91 Q2280.14 648.595 2280.14 653.086 Q2280.14 655.215 2279.33 657.137 Q2278.54 659.035 2276.43 661.627 Q2275.86 662.299 2272.75 665.516 Q2269.65 668.711 2264 674.474 Z" fill="#000000" fill-rule="nonzero" fill-opacity="1" /><polyline clip-path="url(#clip400)" style="stroke:#e26f46; stroke-linecap:round; stroke-linejoin:round; stroke-width:4; stroke-opacity:1; fill:none" points="1887.72,712.97 2028.42,712.97 "/>
<circle clip-path="url(#clip400)" cx="1958.07" cy="712.97" r="19.5428" fill="#e26f46" fill-rule="evenodd" fill-opacity="1" stroke="#000000" stroke-opacity="1" stroke-width="3.72364"/>
<path clip-path="url(#clip400)" d="M2051.88 695.69 L2056.55 695.69 L2056.55 709.856 L2073.54 709.856 L2073.54 695.69 L2078.22 695.69 L2078.22 730.25 L2073.54 730.25 L2073.54 713.791 L2056.55 713.791 L2056.55 730.25 L2051.88 730.25 L2051.88 695.69 Z" fill="#000000" fill-rule="nonzero" fill-opacity="1" /><path clip-path="url(#clip400)" d="M2109.51 716.222 L2109.51 718.305 L2089.93 718.305 Q2090.21 722.703 2092.57 725.018 Q2094.95 727.31 2099.19 727.31 Q2101.64 727.31 2103.94 726.708 Q2106.25 726.106 2108.52 724.902 L2108.52 728.93 Q2106.23 729.902 2103.82 730.412 Q2101.41 730.921 2098.94 730.921 Q2092.73 730.921 2089.1 727.31 Q2085.49 723.699 2085.49 717.541 Q2085.49 711.176 2088.91 707.449 Q2092.36 703.699 2098.19 703.699 Q2103.43 703.699 2106.46 707.078 Q2109.51 710.435 2109.51 716.222 M2105.25 714.972 Q2105.21 711.477 2103.29 709.393 Q2101.39 707.31 2098.24 707.31 Q2094.68 707.31 2092.52 709.324 Q2090.39 711.338 2090.07 714.995 L2105.25 714.972 Z" fill="#000000" fill-rule="nonzero" fill-opacity="1" /><path clip-path="url(#clip400)" d="M2131.53 708.305 Q2130.81 707.889 2129.95 707.703 Q2129.12 707.495 2128.1 707.495 Q2124.49 707.495 2122.55 709.856 Q2120.63 712.194 2120.63 716.592 L2120.63 730.25 L2116.34 730.25 L2116.34 704.324 L2120.63 704.324 L2120.63 708.352 Q2121.97 705.99 2124.12 704.856 Q2126.27 703.699 2129.35 703.699 Q2129.79 703.699 2130.32 703.768 Q2130.86 703.815 2131.5 703.93 L2131.53 708.305 Z" fill="#000000" fill-rule="nonzero" fill-opacity="1" /><path clip-path="url(#clip400)" d="M2155.35 709.301 Q2156.94 706.43 2159.17 705.065 Q2161.39 703.699 2164.4 703.699 Q2168.45 703.699 2170.65 706.546 Q2172.85 709.37 2172.85 714.602 L2172.85 730.25 L2168.56 730.25 L2168.56 714.74 Q2168.56 711.014 2167.25 709.208 Q2165.93 707.402 2163.22 707.402 Q2159.91 707.402 2157.99 709.602 Q2156.06 711.801 2156.06 715.597 L2156.06 730.25 L2151.78 730.25 L2151.78 714.74 Q2151.78 710.99 2150.46 709.208 Q2149.14 707.402 2146.39 707.402 Q2143.13 707.402 2141.2 709.625 Q2139.28 711.824 2139.28 715.597 L2139.28 730.25 L2135 730.25 L2135 704.324 L2139.28 704.324 L2139.28 708.352 Q2140.74 705.967 2142.78 704.833 Q2144.81 703.699 2147.62 703.699 Q2150.44 703.699 2152.41 705.134 Q2154.4 706.569 2155.35 709.301 Z" fill="#000000" fill-rule="nonzero" fill-opacity="1" /><path clip-path="url(#clip400)" d="M2181.34 704.324 L2185.6 704.324 L2185.6 730.25 L2181.34 730.25 L2181.34 704.324 M2181.34 694.231 L2185.6 694.231 L2185.6 699.625 L2181.34 699.625 L2181.34 694.231 Z" fill="#000000" fill-rule="nonzero" fill-opacity="1" /><path clip-path="url(#clip400)" d="M2198.73 696.963 L2198.73 704.324 L2207.5 704.324 L2207.5 707.634 L2198.73 707.634 L2198.73 721.708 Q2198.73 724.879 2199.58 725.782 Q2200.46 726.685 2203.12 726.685 L2207.5 726.685 L2207.5 730.25 L2203.12 730.25 Q2198.19 730.25 2196.32 728.421 Q2194.44 726.569 2194.44 721.708 L2194.44 707.634 L2191.32 707.634 L2191.32 704.324 L2194.44 704.324 L2194.44 696.963 L2198.73 696.963 Z" fill="#000000" fill-rule="nonzero" fill-opacity="1" /><path clip-path="url(#clip400)" d="M2235.28 716.222 L2235.28 718.305 L2215.69 718.305 Q2215.97 722.703 2218.33 725.018 Q2220.72 727.31 2224.95 727.31 Q2227.41 727.31 2229.7 726.708 Q2232.01 726.106 2234.28 724.902 L2234.28 728.93 Q2231.99 729.902 2229.58 730.412 Q2227.18 730.921 2224.7 730.921 Q2218.49 730.921 2214.86 727.31 Q2211.25 723.699 2211.25 717.541 Q2211.25 711.176 2214.68 707.449 Q2218.12 703.699 2223.96 703.699 Q2229.19 703.699 2232.22 707.078 Q2235.28 710.435 2235.28 716.222 M2231.02 714.972 Q2230.97 711.477 2229.05 709.393 Q2227.15 707.31 2224 707.31 Q2220.44 707.31 2218.29 709.324 Q2216.16 711.338 2215.83 714.995 L2231.02 714.972 Z" fill="#000000" fill-rule="nonzero" fill-opacity="1" /><path clip-path="url(#clip400)" d="M2240.12 715.365 L2252.59 715.365 L2252.59 719.162 L2240.12 719.162 L2240.12 715.365 Z" fill="#000000" fill-rule="nonzero" fill-opacity="1" /><path clip-path="url(#clip400)" d="M2272.82 699.764 L2261.02 718.213 L2272.82 718.213 L2272.82 699.764 M2271.6 695.69 L2277.48 695.69 L2277.48 718.213 L2282.41 718.213 L2282.41 722.101 L2277.48 722.101 L2277.48 730.25 L2272.82 730.25 L2272.82 722.101 L2257.22 722.101 L2257.22 717.588 L2271.6 695.69 Z" fill="#000000" fill-rule="nonzero" fill-opacity="1" /><polyline clip-path="url(#clip400)" style="stroke:#3da44d; stroke-linecap:round; stroke-linejoin:round; stroke-width:4; stroke-opacity:1; fill:none" points="1887.72,764.81 2028.42,764.81 "/>
<circle clip-path="url(#clip400)" cx="1958.07" cy="764.81" r="19.5428" fill="#3da44d" fill-rule="evenodd" fill-opacity="1" stroke="#000000" stroke-opacity="1" stroke-width="3.72364"/>
<path clip-path="url(#clip400)" d="M2051.88 747.53 L2056.55 747.53 L2056.55 761.696 L2073.54 761.696 L2073.54 747.53 L2078.22 747.53 L2078.22 782.09 L2073.54 782.09 L2073.54 765.631 L2056.55 765.631 L2056.55 782.09 L2051.88 782.09 L2051.88 747.53 Z" fill="#000000" fill-rule="nonzero" fill-opacity="1" /><path clip-path="url(#clip400)" d="M2109.51 768.062 L2109.51 770.145 L2089.93 770.145 Q2090.21 774.543 2092.57 776.858 Q2094.95 779.15 2099.19 779.15 Q2101.64 779.15 2103.94 778.548 Q2106.25 777.946 2108.52 776.742 L2108.52 780.77 Q2106.23 781.742 2103.82 782.252 Q2101.41 782.761 2098.94 782.761 Q2092.73 782.761 2089.1 779.15 Q2085.49 775.539 2085.49 769.381 Q2085.49 763.016 2088.91 759.289 Q2092.36 755.539 2098.19 755.539 Q2103.43 755.539 2106.46 758.918 Q2109.51 762.275 2109.51 768.062 M2105.25 766.812 Q2105.21 763.317 2103.29 761.233 Q2101.39 759.15 2098.24 759.15 Q2094.68 759.15 2092.52 761.164 Q2090.39 763.178 2090.07 766.835 L2105.25 766.812 Z" fill="#000000" fill-rule="nonzero" fill-opacity="1" /><path clip-path="url(#clip400)" d="M2131.53 760.145 Q2130.81 759.729 2129.95 759.543 Q2129.12 759.335 2128.1 759.335 Q2124.49 759.335 2122.55 761.696 Q2120.63 764.034 2120.63 768.432 L2120.63 782.09 L2116.34 782.09 L2116.34 756.164 L2120.63 756.164 L2120.63 760.192 Q2121.97 757.83 2124.12 756.696 Q2126.27 755.539 2129.35 755.539 Q2129.79 755.539 2130.32 755.608 Q2130.86 755.655 2131.5 755.77 L2131.53 760.145 Z" fill="#000000" fill-rule="nonzero" fill-opacity="1" /><path clip-path="url(#clip400)" d="M2155.35 761.141 Q2156.94 758.27 2159.17 756.905 Q2161.39 755.539 2164.4 755.539 Q2168.45 755.539 2170.65 758.386 Q2172.85 761.21 2172.85 766.442 L2172.85 782.09 L2168.56 782.09 L2168.56 766.58 Q2168.56 762.854 2167.25 761.048 Q2165.93 759.242 2163.22 759.242 Q2159.91 759.242 2157.99 761.442 Q2156.06 763.641 2156.06 767.437 L2156.06 782.09 L2151.78 782.09 L2151.78 766.58 Q2151.78 762.83 2150.46 761.048 Q2149.14 759.242 2146.39 759.242 Q2143.13 759.242 2141.2 761.465 Q2139.28 763.664 2139.28 767.437 L2139.28 782.09 L2135 782.09 L2135 756.164 L2139.28 756.164 L2139.28 760.192 Q2140.74 757.807 2142.78 756.673 Q2144.81 755.539 2147.62 755.539 Q2150.44 755.539 2152.41 756.974 Q2154.4 758.409 2155.35 761.141 Z" fill="#000000" fill-rule="nonzero" fill-opacity="1" /><path clip-path="url(#clip400)" d="M2181.34 756.164 L2185.6 756.164 L2185.6 782.09 L2181.34 782.09 L2181.34 756.164 M2181.34 746.071 L2185.6 746.071 L2185.6 751.465 L2181.34 751.465 L2181.34 746.071 Z" fill="#000000" fill-rule="nonzero" fill-opacity="1" /><path clip-path="url(#clip400)" d="M2198.73 748.803 L2198.73 756.164 L2207.5 756.164 L2207.5 759.474 L2198.73 759.474 L2198.73 773.548 Q2198.73 776.719 2199.58 777.622 Q2200.46 778.525 2203.12 778.525 L2207.5 778.525 L2207.5 782.09 L2203.12 782.09 Q2198.19 782.09 2196.32 780.261 Q2194.44 778.409 2194.44 773.548 L2194.44 759.474 L2191.32 759.474 L2191.32 756.164 L2194.44 756.164 L2194.44 748.803 L2198.73 748.803 Z" fill="#000000" fill-rule="nonzero" fill-opacity="1" /><path clip-path="url(#clip400)" d="M2235.28 768.062 L2235.28 770.145 L2215.69 770.145 Q2215.97 774.543 2218.33 776.858 Q2220.72 779.15 2224.95 779.15 Q2227.41 779.15 2229.7 778.548 Q2232.01 777.946 2234.28 776.742 L2234.28 780.77 Q2231.99 781.742 2229.58 782.252 Q2227.18 782.761 2224.7 782.761 Q2218.49 782.761 2214.86 779.15 Q2211.25 775.539 2211.25 769.381 Q2211.25 763.016 2214.68 759.289 Q2218.12 755.539 2223.96 755.539 Q2229.19 755.539 2232.22 758.918 Q2235.28 762.275 2235.28 768.062 M2231.02 766.812 Q2230.97 763.317 2229.05 761.233 Q2227.15 759.15 2224 759.15 Q2220.44 759.15 2218.29 761.164 Q2216.16 763.178 2215.83 766.835 L2231.02 766.812 Z" fill="#000000" fill-rule="nonzero" fill-opacity="1" /><path clip-path="url(#clip400)" d="M2240.12 767.205 L2252.59 767.205 L2252.59 771.002 L2240.12 771.002 L2240.12 767.205 Z" fill="#000000" fill-rule="nonzero" fill-opacity="1" /><path clip-path="url(#clip400)" d="M2270.55 762.946 Q2267.41 762.946 2265.55 765.099 Q2263.73 767.252 2263.73 771.002 Q2263.73 774.729 2265.55 776.904 Q2267.41 779.057 2270.55 779.057 Q2273.7 779.057 2275.53 776.904 Q2277.38 774.729 2277.38 771.002 Q2277.38 767.252 2275.53 765.099 Q2273.7 762.946 2270.55 762.946 M2279.84 748.293 L2279.84 752.553 Q2278.08 751.719 2276.27 751.28 Q2274.49 750.84 2272.73 750.84 Q2268.1 750.84 2265.65 753.965 Q2263.22 757.09 2262.87 763.409 Q2264.24 761.395 2266.3 760.33 Q2268.36 759.242 2270.83 759.242 Q2276.04 759.242 2279.05 762.414 Q2282.08 765.562 2282.08 771.002 Q2282.08 776.326 2278.93 779.543 Q2275.79 782.761 2270.55 782.761 Q2264.56 782.761 2261.39 778.178 Q2258.22 773.571 2258.22 764.844 Q2258.22 756.65 2262.11 751.789 Q2265.99 746.905 2272.55 746.905 Q2274.3 746.905 2276.09 747.252 Q2277.89 747.599 2279.84 748.293 Z" fill="#000000" fill-rule="nonzero" fill-opacity="1" /><polyline clip-path="url(#clip400)" style="stroke:#c271d2; stroke-linecap:round; stroke-linejoin:round; stroke-width:4; stroke-opacity:1; fill:none" points="1887.72,816.65 2028.42,816.65 "/>
<circle clip-path="url(#clip400)" cx="1958.07" cy="816.65" r="19.5428" fill="#c271d2" fill-rule="evenodd" fill-opacity="1" stroke="#000000" stroke-opacity="1" stroke-width="3.72364"/>
<path clip-path="url(#clip400)" d="M2051.88 799.37 L2056.55 799.37 L2056.55 813.536 L2073.54 813.536 L2073.54 799.37 L2078.22 799.37 L2078.22 833.93 L2073.54 833.93 L2073.54 817.471 L2056.55 817.471 L2056.55 833.93 L2051.88 833.93 L2051.88 799.37 Z" fill="#000000" fill-rule="nonzero" fill-opacity="1" /><path clip-path="url(#clip400)" d="M2109.51 819.902 L2109.51 821.985 L2089.93 821.985 Q2090.21 826.383 2092.57 828.698 Q2094.95 830.99 2099.19 830.99 Q2101.64 830.99 2103.94 830.388 Q2106.25 829.786 2108.52 828.582 L2108.52 832.61 Q2106.23 833.582 2103.82 834.092 Q2101.41 834.601 2098.94 834.601 Q2092.73 834.601 2089.1 830.99 Q2085.49 827.379 2085.49 821.221 Q2085.49 814.856 2088.91 811.129 Q2092.36 807.379 2098.19 807.379 Q2103.43 807.379 2106.46 810.758 Q2109.51 814.115 2109.51 819.902 M2105.25 818.652 Q2105.21 815.157 2103.29 813.073 Q2101.39 810.99 2098.24 810.99 Q2094.68 810.99 2092.52 813.004 Q2090.39 815.018 2090.07 818.675 L2105.25 818.652 Z" fill="#000000" fill-rule="nonzero" fill-opacity="1" /><path clip-path="url(#clip400)" d="M2131.53 811.985 Q2130.81 811.569 2129.95 811.383 Q2129.12 811.175 2128.1 811.175 Q2124.49 811.175 2122.55 813.536 Q2120.63 815.874 2120.63 820.272 L2120.63 833.93 L2116.34 833.93 L2116.34 808.004 L2120.63 808.004 L2120.63 812.032 Q2121.97 809.67 2124.12 808.536 Q2126.27 807.379 2129.35 807.379 Q2129.79 807.379 2130.32 807.448 Q2130.86 807.495 2131.5 807.61 L2131.53 811.985 Z" fill="#000000" fill-rule="nonzero" fill-opacity="1" /><path clip-path="url(#clip400)" d="M2155.35 812.981 Q2156.94 810.11 2159.17 808.745 Q2161.39 807.379 2164.4 807.379 Q2168.45 807.379 2170.65 810.226 Q2172.85 813.05 2172.85 818.282 L2172.85 833.93 L2168.56 833.93 L2168.56 818.42 Q2168.56 814.694 2167.25 812.888 Q2165.93 811.082 2163.22 811.082 Q2159.91 811.082 2157.99 813.282 Q2156.06 815.481 2156.06 819.277 L2156.06 833.93 L2151.78 833.93 L2151.78 818.42 Q2151.78 814.67 2150.46 812.888 Q2149.14 811.082 2146.39 811.082 Q2143.13 811.082 2141.2 813.305 Q2139.28 815.504 2139.28 819.277 L2139.28 833.93 L2135 833.93 L2135 808.004 L2139.28 808.004 L2139.28 812.032 Q2140.74 809.647 2142.78 808.513 Q2144.81 807.379 2147.62 807.379 Q2150.44 807.379 2152.41 808.814 Q2154.4 810.249 2155.35 812.981 Z" fill="#000000" fill-rule="nonzero" fill-opacity="1" /><path clip-path="url(#clip400)" d="M2181.34 808.004 L2185.6 808.004 L2185.6 833.93 L2181.34 833.93 L2181.34 808.004 M2181.34 797.911 L2185.6 797.911 L2185.6 803.305 L2181.34 803.305 L2181.34 797.911 Z" fill="#000000" fill-rule="nonzero" fill-opacity="1" /><path clip-path="url(#clip400)" d="M2198.73 800.643 L2198.73 808.004 L2207.5 808.004 L2207.5 811.314 L2198.73 811.314 L2198.73 825.388 Q2198.73 828.559 2199.58 829.462 Q2200.46 830.365 2203.12 830.365 L2207.5 830.365 L2207.5 833.93 L2203.12 833.93 Q2198.19 833.93 2196.32 832.101 Q2194.44 830.249 2194.44 825.388 L2194.44 811.314 L2191.32 811.314 L2191.32 808.004 L2194.44 808.004 L2194.44 800.643 L2198.73 800.643 Z" fill="#000000" fill-rule="nonzero" fill-opacity="1" /><path clip-path="url(#clip400)" d="M2235.28 819.902 L2235.28 821.985 L2215.69 821.985 Q2215.97 826.383 2218.33 828.698 Q2220.72 830.99 2224.95 830.99 Q2227.41 830.99 2229.7 830.388 Q2232.01 829.786 2234.28 828.582 L2234.28 832.61 Q2231.99 833.582 2229.58 834.092 Q2227.18 834.601 2224.7 834.601 Q2218.49 834.601 2214.86 830.99 Q2211.25 827.379 2211.25 821.221 Q2211.25 814.856 2214.68 811.129 Q2218.12 807.379 2223.96 807.379 Q2229.19 807.379 2232.22 810.758 Q2235.28 814.115 2235.28 819.902 M2231.02 818.652 Q2230.97 815.157 2229.05 813.073 Q2227.15 810.99 2224 810.99 Q2220.44 810.99 2218.29 813.004 Q2216.16 815.018 2215.83 818.675 L2231.02 818.652 Z" fill="#000000" fill-rule="nonzero" fill-opacity="1" /><path clip-path="url(#clip400)" d="M2240.12 819.045 L2252.59 819.045 L2252.59 822.842 L2240.12 822.842 L2240.12 819.045 Z" fill="#000000" fill-rule="nonzero" fill-opacity="1" /><path clip-path="url(#clip400)" d="M2269.98 817.518 Q2266.64 817.518 2264.72 819.3 Q2262.82 821.082 2262.82 824.207 Q2262.82 827.332 2264.72 829.115 Q2266.64 830.897 2269.98 830.897 Q2273.31 830.897 2275.23 829.115 Q2277.15 827.309 2277.15 824.207 Q2277.15 821.082 2275.23 819.3 Q2273.33 817.518 2269.98 817.518 M2265.3 815.527 Q2262.29 814.786 2260.6 812.726 Q2258.93 810.666 2258.93 807.703 Q2258.93 803.559 2261.87 801.152 Q2264.84 798.745 2269.98 798.745 Q2275.14 798.745 2278.08 801.152 Q2281.02 803.559 2281.02 807.703 Q2281.02 810.666 2279.33 812.726 Q2277.66 814.786 2274.68 815.527 Q2278.05 816.314 2279.93 818.606 Q2281.83 820.897 2281.83 824.207 Q2281.83 829.231 2278.75 831.916 Q2275.69 834.601 2269.98 834.601 Q2264.26 834.601 2261.18 831.916 Q2258.12 829.231 2258.12 824.207 Q2258.12 820.897 2260.02 818.606 Q2261.92 816.314 2265.3 815.527 M2263.59 808.143 Q2263.59 810.828 2265.25 812.332 Q2266.94 813.837 2269.98 813.837 Q2272.99 813.837 2274.68 812.332 Q2276.39 810.828 2276.39 808.143 Q2276.39 805.458 2274.68 803.953 Q2272.99 802.448 2269.98 802.448 Q2266.94 802.448 2265.25 803.953 Q2263.59 805.458 2263.59 808.143 Z" fill="#000000" fill-rule="nonzero" fill-opacity="1" /><polyline clip-path="url(#clip400)" style="stroke:#ff0000; stroke-linecap:round; stroke-linejoin:round; stroke-width:4; stroke-opacity:1; fill:none" points="1887.72,868.49 2028.42,868.49 "/>
<path clip-path="url(#clip400)" d="M2051.88 851.21 L2081.11 851.21 L2081.11 855.145 L2068.84 855.145 L2068.84 885.77 L2064.14 885.77 L2064.14 855.145 L2051.88 855.145 L2051.88 851.21 Z" fill="#000000" fill-rule="nonzero" fill-opacity="1" /><path clip-path="url(#clip400)" d="M2089.38 872.737 Q2084.21 872.737 2082.22 873.918 Q2080.23 875.098 2080.23 877.946 Q2080.23 880.214 2081.71 881.557 Q2083.22 882.876 2085.79 882.876 Q2089.33 882.876 2091.46 880.376 Q2093.61 877.853 2093.61 873.686 L2093.61 872.737 L2089.38 872.737 M2097.87 870.978 L2097.87 885.77 L2093.61 885.77 L2093.61 881.834 Q2092.15 884.196 2089.98 885.33 Q2087.8 886.441 2084.65 886.441 Q2080.67 886.441 2078.31 884.219 Q2075.97 881.973 2075.97 878.223 Q2075.97 873.848 2078.89 871.626 Q2081.83 869.404 2087.64 869.404 L2093.61 869.404 L2093.61 868.987 Q2093.61 866.047 2091.67 864.45 Q2089.75 862.83 2086.25 862.83 Q2084.03 862.83 2081.92 863.362 Q2079.82 863.895 2077.87 864.96 L2077.87 861.024 Q2080.21 860.122 2082.41 859.682 Q2084.61 859.219 2086.69 859.219 Q2092.32 859.219 2095.09 862.135 Q2097.87 865.052 2097.87 870.978 Z" fill="#000000" fill-rule="nonzero" fill-opacity="1" /><path clip-path="url(#clip400)" d="M2121.67 863.825 Q2120.95 863.409 2120.09 863.223 Q2119.26 863.015 2118.24 863.015 Q2114.63 863.015 2112.69 865.376 Q2110.76 867.714 2110.76 872.112 L2110.76 885.77 L2106.48 885.77 L2106.48 859.844 L2110.76 859.844 L2110.76 863.872 Q2112.11 861.51 2114.26 860.376 Q2116.41 859.219 2119.49 859.219 Q2119.93 859.219 2120.46 859.288 Q2121 859.335 2121.64 859.45 L2121.67 863.825 Z" fill="#000000" fill-rule="nonzero" fill-opacity="1" /><path clip-path="url(#clip400)" d="M2142.36 872.506 Q2142.36 867.876 2140.44 865.33 Q2138.54 862.784 2135.09 862.784 Q2131.67 862.784 2129.75 865.33 Q2127.85 867.876 2127.85 872.506 Q2127.85 877.112 2129.75 879.658 Q2131.67 882.205 2135.09 882.205 Q2138.54 882.205 2140.44 879.658 Q2142.36 877.112 2142.36 872.506 M2146.62 882.552 Q2146.62 889.172 2143.68 892.39 Q2140.74 895.631 2134.68 895.631 Q2132.43 895.631 2130.44 895.283 Q2128.45 894.959 2126.57 894.265 L2126.57 890.121 Q2128.45 891.14 2130.28 891.626 Q2132.11 892.112 2134 892.112 Q2138.19 892.112 2140.28 889.913 Q2142.36 887.737 2142.36 883.316 L2142.36 881.209 Q2141.04 883.501 2138.98 884.635 Q2136.92 885.77 2134.05 885.77 Q2129.28 885.77 2126.37 882.135 Q2123.45 878.501 2123.45 872.506 Q2123.45 866.487 2126.37 862.853 Q2129.28 859.219 2134.05 859.219 Q2136.92 859.219 2138.98 860.353 Q2141.04 861.487 2142.36 863.779 L2142.36 859.844 L2146.62 859.844 L2146.62 882.552 Z" fill="#000000" fill-rule="nonzero" fill-opacity="1" /><path clip-path="url(#clip400)" d="M2177.57 871.742 L2177.57 873.825 L2157.99 873.825 Q2158.26 878.223 2160.62 880.538 Q2163.01 882.83 2167.25 882.83 Q2169.7 882.83 2171.99 882.228 Q2174.31 881.626 2176.57 880.422 L2176.57 884.45 Q2174.28 885.422 2171.87 885.932 Q2169.47 886.441 2166.99 886.441 Q2160.79 886.441 2157.15 882.83 Q2153.54 879.219 2153.54 873.061 Q2153.54 866.696 2156.97 862.969 Q2160.42 859.219 2166.25 859.219 Q2171.48 859.219 2174.51 862.598 Q2177.57 865.955 2177.57 871.742 M2173.31 870.492 Q2173.26 866.997 2171.34 864.913 Q2169.44 862.83 2166.3 862.83 Q2162.73 862.83 2160.58 864.844 Q2158.45 866.858 2158.12 870.515 L2173.31 870.492 Z" fill="#000000" fill-rule="nonzero" fill-opacity="1" /><path clip-path="url(#clip400)" d="M2188.77 852.483 L2188.77 859.844 L2197.55 859.844 L2197.55 863.154 L2188.77 863.154 L2188.77 877.228 Q2188.77 880.399 2189.63 881.302 Q2190.51 882.205 2193.17 882.205 L2197.55 882.205 L2197.55 885.77 L2193.17 885.77 Q2188.24 885.77 2186.37 883.941 Q2184.49 882.089 2184.49 877.228 L2184.49 863.154 L2181.37 863.154 L2181.37 859.844 L2184.49 859.844 L2184.49 852.483 L2188.77 852.483 Z" fill="#000000" fill-rule="nonzero" fill-opacity="1" /><path clip-path="url(#clip400)" d="M2218.4 851.21 L2240.25 851.21 L2240.25 855.145 L2223.08 855.145 L2223.08 865.376 L2239.54 865.376 L2239.54 869.311 L2223.08 869.311 L2223.08 881.834 L2240.67 881.834 L2240.67 885.77 L2218.4 885.77 L2218.4 851.21 Z" fill="#000000" fill-rule="nonzero" fill-opacity="1" /><path clip-path="url(#clip400)" d="M2263.19 863.825 Q2262.48 863.409 2261.62 863.223 Q2260.79 863.015 2259.77 863.015 Q2256.16 863.015 2254.21 865.376 Q2252.29 867.714 2252.29 872.112 L2252.29 885.77 L2248.01 885.77 L2248.01 859.844 L2252.29 859.844 L2252.29 863.872 Q2253.63 861.51 2255.79 860.376 Q2257.94 859.219 2261.02 859.219 Q2261.46 859.219 2261.99 859.288 Q2262.52 859.335 2263.17 859.45 L2263.19 863.825 Z" fill="#000000" fill-rule="nonzero" fill-opacity="1" /><path clip-path="url(#clip400)" d="M2281.85 863.825 Q2281.13 863.409 2280.28 863.223 Q2279.44 863.015 2278.43 863.015 Q2274.81 863.015 2272.87 865.376 Q2270.95 867.714 2270.95 872.112 L2270.95 885.77 L2266.67 885.77 L2266.67 859.844 L2270.95 859.844 L2270.95 863.872 Q2272.29 861.51 2274.44 860.376 Q2276.6 859.219 2279.68 859.219 Q2280.12 859.219 2280.65 859.288 Q2281.18 859.335 2281.83 859.45 L2281.85 863.825 Z" fill="#000000" fill-rule="nonzero" fill-opacity="1" /><path clip-path="url(#clip400)" d="M2295.32 862.83 Q2291.9 862.83 2289.91 865.515 Q2287.92 868.177 2287.92 872.83 Q2287.92 877.483 2289.88 880.168 Q2291.87 882.83 2295.32 882.83 Q2298.73 882.83 2300.72 880.145 Q2302.71 877.459 2302.71 872.83 Q2302.71 868.223 2300.72 865.538 Q2298.73 862.83 2295.32 862.83 M2295.32 859.219 Q2300.88 859.219 2304.05 862.83 Q2307.22 866.441 2307.22 872.83 Q2307.22 879.196 2304.05 882.83 Q2300.88 886.441 2295.32 886.441 Q2289.74 886.441 2286.57 882.83 Q2283.43 879.196 2283.43 872.83 Q2283.43 866.441 2286.57 862.83 Q2289.74 859.219 2295.32 859.219 Z" fill="#000000" fill-rule="nonzero" fill-opacity="1" /><path clip-path="url(#clip400)" d="M2329.3 863.825 Q2328.59 863.409 2327.73 863.223 Q2326.9 863.015 2325.88 863.015 Q2322.27 863.015 2320.32 865.376 Q2318.4 867.714 2318.4 872.112 L2318.4 885.77 L2314.12 885.77 L2314.12 859.844 L2318.4 859.844 L2318.4 863.872 Q2319.74 861.51 2321.9 860.376 Q2324.05 859.219 2327.13 859.219 Q2327.57 859.219 2328.1 859.288 Q2328.63 859.335 2329.28 859.45 L2329.3 863.825 Z" fill="#000000" fill-rule="nonzero" fill-opacity="1" /><polyline clip-path="url(#clip400)" style="stroke:#000000; stroke-linecap:round; stroke-linejoin:round; stroke-width:4; stroke-opacity:1; fill:none" points="1887.72,920.33 2028.42,920.33 "/>
<path clip-path="url(#clip400)" d="M1958.07 898.615 L1952.97 913.294 L1937.42 913.62 L1949.82 923.022 L1945.3 937.896 L1958.07 929.015 L1970.84 937.896 L1966.32 923.022 L1978.72 913.62 L1963.17 913.294 L1958.07 898.615 Z" fill="#000000" fill-rule="evenodd" fill-opacity="1" stroke="none"/>
<path clip-path="url(#clip400)" d="M2058.98 903.05 L2063.66 903.05 L2063.66 935.202 Q2063.66 941.452 2061.27 944.276 Q2058.91 947.1 2053.66 947.1 L2051.88 947.1 L2051.88 943.165 L2053.33 943.165 Q2056.44 943.165 2057.71 941.429 Q2058.98 939.693 2058.98 935.202 L2058.98 903.05 Z" fill="#000000" fill-rule="nonzero" fill-opacity="1" /><path clip-path="url(#clip400)" d="M2072.34 927.378 L2072.34 911.684 L2076.6 911.684 L2076.6 927.216 Q2076.6 930.897 2078.03 932.748 Q2079.47 934.577 2082.34 934.577 Q2085.79 934.577 2087.78 932.378 Q2089.79 930.179 2089.79 926.383 L2089.79 911.684 L2094.05 911.684 L2094.05 937.61 L2089.79 937.61 L2089.79 933.628 Q2088.24 935.989 2086.18 937.147 Q2084.14 938.281 2081.44 938.281 Q2076.97 938.281 2074.65 935.503 Q2072.34 932.725 2072.34 927.378 M2083.06 911.059 L2083.06 911.059 Z" fill="#000000" fill-rule="nonzero" fill-opacity="1" /><path clip-path="url(#clip400)" d="M2105.37 924.67 Q2105.37 929.369 2107.29 932.054 Q2109.24 934.716 2112.62 934.716 Q2116 934.716 2117.94 932.054 Q2119.88 929.369 2119.88 924.67 Q2119.88 919.971 2117.94 917.309 Q2116 914.624 2112.62 914.624 Q2109.24 914.624 2107.29 917.309 Q2105.37 919.971 2105.37 924.67 M2119.88 933.721 Q2118.54 936.036 2116.48 937.17 Q2114.44 938.281 2111.57 938.281 Q2106.88 938.281 2103.91 934.531 Q2100.97 930.781 2100.97 924.67 Q2100.97 918.559 2103.91 914.809 Q2106.88 911.059 2111.57 911.059 Q2114.44 911.059 2116.48 912.193 Q2118.54 913.304 2119.88 915.619 L2119.88 911.684 L2124.14 911.684 L2124.14 947.471 L2119.88 947.471 L2119.88 933.721 Z" fill="#000000" fill-rule="nonzero" fill-opacity="1" /><path clip-path="url(#clip400)" d="M2151.53 924.67 Q2151.53 919.971 2149.58 917.309 Q2147.66 914.624 2144.28 914.624 Q2140.9 914.624 2138.96 917.309 Q2137.04 919.971 2137.04 924.67 Q2137.04 929.369 2138.96 932.054 Q2140.9 934.716 2144.28 934.716 Q2147.66 934.716 2149.58 932.054 Q2151.53 929.369 2151.53 924.67 M2137.04 915.619 Q2138.38 913.304 2140.42 912.193 Q2142.48 911.059 2145.32 911.059 Q2150.05 911.059 2152.99 914.809 Q2155.95 918.559 2155.95 924.67 Q2155.95 930.781 2152.99 934.531 Q2150.05 938.281 2145.32 938.281 Q2142.48 938.281 2140.42 937.17 Q2138.38 936.036 2137.04 933.721 L2137.04 937.61 L2132.75 937.61 L2132.75 901.591 L2137.04 901.591 L2137.04 915.619 Z" fill="#000000" fill-rule="nonzero" fill-opacity="1" /><path clip-path="url(#clip400)" d="M2173.06 914.67 Q2169.63 914.67 2167.64 917.355 Q2165.65 920.017 2165.65 924.67 Q2165.65 929.323 2167.62 932.008 Q2169.61 934.67 2173.06 934.67 Q2176.46 934.67 2178.45 931.985 Q2180.44 929.299 2180.44 924.67 Q2180.44 920.063 2178.45 917.378 Q2176.46 914.67 2173.06 914.67 M2173.06 911.059 Q2178.61 911.059 2181.78 914.67 Q2184.95 918.281 2184.95 924.67 Q2184.95 931.036 2181.78 934.67 Q2178.61 938.281 2173.06 938.281 Q2167.48 938.281 2164.31 934.67 Q2161.16 931.036 2161.16 924.67 Q2161.16 918.281 2164.31 914.67 Q2167.48 911.059 2173.06 911.059 Z" fill="#000000" fill-rule="nonzero" fill-opacity="1" /><path clip-path="url(#clip400)" d="M2212.11 911.684 L2202.73 924.299 L2212.59 937.61 L2207.57 937.61 L2200.02 927.424 L2192.48 937.61 L2187.45 937.61 L2197.52 924.045 L2188.31 911.684 L2193.33 911.684 L2200.21 920.92 L2207.08 911.684 L2212.11 911.684 Z" fill="#000000" fill-rule="nonzero" fill-opacity="1" /></svg>
